<svg xmlns="http://www.w3.org/2000/svg" style="display: none;" xmlns:sketch="http://www.bohemiancoding.com/sketch/ns" xmlns:xlink="http://www.w3.org/1999/xlink"><symbol title="icon" viewBox="0 0 58.5 24" id="icon-4x4"><title>4x4</title> <g id="svgstore084fe8244c54e9687f1d1ace2f613a36suv"> <path id="svgstore084fe8244c54e9687f1d1ace2f613a36ground" d="M0,24l8-0.7h43.2l6.6,0.7H0z"/> <path id="svgstore084fe8244c54e9687f1d1ace2f613a36tyre-front" d="M48,13.1c-2.8,0-5.1,2.3-5.1,5.1s2.3,5.1,5.1,5.1s5.1-2.3,5.1-5.1C53.1,15.4,50.8,13.1,48,13.1z M48,21.7
		c-1.9,0-3.5-1.6-3.5-3.5c0-2,1.6-3.5,3.5-3.5c2,0,3.5,1.6,3.5,3.5C51.5,20.1,49.9,21.7,48,21.7z"/> <path id="svgstore084fe8244c54e9687f1d1ace2f613a36tyre-rear" d="M10.5,13.1c-2.8,0-5.1,2.3-5.1,5.1s2.3,5.1,5.1,5.1s5.1-2.3,5.1-5.1C15.5,15.4,13.3,13.1,10.5,13.1z
		 M10.4,21.7c-1.9,0-3.5-1.6-3.5-3.5c0-2,1.6-3.5,3.5-3.5s3.5,1.6,3.5,3.5C14,20.1,12.4,21.7,10.4,21.7z"/> <path id="svgstore084fe8244c54e9687f1d1ace2f613a36body" d="M58.5,14.1c0-0.6-0.8-1.6-0.8-1.6s-0.2-1-0.5-1.8c-0.5-1.2-1-1.4-1-1.4s-3.1-1-6.3-1.7C46.4,7,43,6.9,43,6.9
		C33.2,0,32.1,0.4,32.1,0.4S25.9-0.1,19.5,0C13,0.2,6.3,1,6.3,1s0.2,0.2,0.4,0.4c0.1,0.1,0.6,0,0.3,0.3C5.5,3,3.7,5.1,2.8,6.1
		C2.7,6.2,2.4,6.3,2.2,6.4C2.1,6.6,2,6.7,2,6.7S1.6,7.3,1.5,8c-0.1,0.6,0,1.2,0,1.2s0,1.6-0.3,2.3C1,12,0.7,12.2,0.5,12.5
		c-0.2,0.5-0.1,0.9-0.1,0.9l-0.2,0.3L0.4,15c0.5,2.3,0.7,2.5,1.8,2.9c0.7,0.3,2.4,0.2,2.4,0.2s-0.3-2.4,1.9-4.3
		c2.1-1.9,6.2-2.1,8.4,0.6c1.8,2.2,1.2,5,1.2,5l26.2,1c0,0-1-3.2,0.6-5.5c2.3-3.4,7.4-3.4,9.6-0.4c2.1,2.7,1,5.4,1,5.4l-0.1,0.5
		c0,0,2.1,0,3.2-0.2c1.2-0.2,0.4-0.4,0.4-0.4c1.2-0.1,1.4-2.4,1.4-2.4S58.6,15.4,58.5,14.1z M5.3,7.8C4.7,8.2,2.6,8.9,2.6,8.9
		C2.1,8.2,2.5,7.2,2.5,7.2c0.4-0.6,1.1-0.5,1.1-0.5C5.1,6.6,5.4,7,5.4,7C6.2,7.5,5.3,7.8,5.3,7.8z M28.7,1.2c1,0.1,2.1,0.3,2.1,0.3
		c4.3,0.8,8.6,4.6,8.6,4.6c-1.3-0.1-0.7,1.3-0.7,1.3L26.9,6.5L26.5,1C26.5,1,27.6,1.1,28.7,1.2z M29.3,8.8c-0.8-0.3-1.9-0.1-1.9-0.1
		s-0.3,0-0.5-0.1c-0.2,0-0.2-0.1-0.2-0.1c0-0.5,0.3-0.4,0.3-0.4c0.7,0.1,2.1,0.2,2.1,0.2c0.5,0,0.5,0.3,0.5,0.3
		C29.9,8.9,29.3,8.8,29.3,8.8z M19.7,0.9c2.6-0.1,5.4,0,5.4,0l0,5.5c0,0-8.1-0.4-12.1-0.5c0,0,0.4-1,1-2.2c0.6-1.2,1.3-2.5,1.3-2.5
		S17.4,1,19.7,0.9z M15.5,8.1C14.6,7.8,13.5,8,13.5,8s-0.3,0-0.5-0.1c-0.2,0-0.2-0.1-0.2-0.1c0-0.5,0.3-0.4,0.3-0.4
		c0.7,0.1,2.1,0.2,2.1,0.2c0.5,0,0.5,0.3,0.5,0.3C16,8.1,15.5,8.1,15.5,8.1z M7.9,5.8c0,0-0.3,0-0.5,0C7.3,5.7,7.2,5.6,7.2,5.6
		L6.8,5.3c0,0-0.1-0.2-0.1-0.3c0-0.2,0.1-0.3,0.1-0.3S8.3,3.2,10,2.2c1.2-0.7,2.3-0.7,2.3-0.7L14,1.4L11.6,6L7.9,5.8z M40,18.7
		l-22.1-0.8l0-0.1c0,0-0.2-4.9-4.7-6.4c-1-0.3-1-0.5-1.2-1.2c-0.5-1.4-0.5-2.2-0.5-2.2c0-0.2,0.1-0.5,0.1-0.5c0,0,0.1,0,0.1,0
		l-0.1,0.5c0,0.2,0.1,1.2,0.5,2.2c0.2,0.5,0.2,0.9,1.1,1.1c4.6,1.4,4.8,6.6,4.8,6.6l0,0l7.7,0.3c0.2-0.8,0.3-2.2,0.3-2.2
		s0.2-2,0-5.6c-0.1-1-0.1-1.5-0.1-1.8l0,0.1c0,0,0-0.6,0-0.1l0,0L26,8.4c0,0-0.1-1.3,0.2,1.8c0.2,2.8,0.1,5.5,0.1,5.5
		c-0.1,0.9-0.3,2.2-0.3,2.2L40,18.5L40,18.7z M40.8,14c-0.3,2.2-0.8,4.5-0.8,4.5l-0.2,0c0,0,0.5-2.3,0.8-4.5
		c0.3-2.1,0.4-4.2,0.4-4.2l0.1,0C41.2,9.7,41.1,11.8,40.8,14z M53,10.1c-0.9-0.7,0.2-0.7,0.2-0.7c1.3,0.1,2.3,0.4,2.3,0.4
		c1.3,0.8,1,2.2,1,2.2C54.3,11.2,53,10.1,53,10.1z M56.9,19.1c-0.3,0.4-0.4,0.2-0.4,0.2c-0.7-1,0.3-1.4,0.3-1.4
		C57.3,17.7,56.9,19.1,56.9,19.1z"/> <g id="svgstore084fe8244c54e9687f1d1ace2f613a36alloy-front"> <path d="M48,17c0.7,0,1.2,0.5,1.2,1.2s-0.5,1.2-1.2,1.2s-1.2-0.5-1.2-1.2S47.3,17,48,17z"/> <path d="M46.4,13.8l1.5,1.7l1.5-1.7l-1.2,3.4h-0.8L46.4,13.8z"/> <path d="M52,15.7l-1.4,1.8l2,1.2l-3.6-0.6l-0.1-0.7L52,15.7z"/> <path d="M44,15.7l1.4,1.8l-2,1.2l3.6-0.6l0.1-0.7L44,15.7z"/> <path d="M49.4,22.6l0.1-2.3l2.3,0.3l-3.1-1.9l-0.6,0.5L49.4,22.6z"/> <path d="M46.4,22.6l-0.1-2.3L44,20.6l3.1-1.9l0.6,0.5L46.4,22.6z"/> </g> <g id="svgstore084fe8244c54e9687f1d1ace2f613a36alloy-rear"> <path d="M8.8,22.6l-0.1-2.3l-2.3,0.3l3.1-1.9l0.6,0.5L8.8,22.6z"/> <path d="M10.4,17c0.7,0,1.2,0.5,1.2,1.2s-0.5,1.2-1.2,1.2s-1.2-0.5-1.2-1.2S9.8,17,10.4,17z"/> <path d="M8.9,13.8l1.5,1.7l1.5-1.7l-1.2,3.4h-0.8L8.9,13.8z"/> <path d="M14.4,15.7L13,17.5l2,1.2l-3.6-0.6l-0.1-0.7L14.4,15.7z"/> <path d="M6.5,15.7l1.4,1.8l-2,1.2l3.6-0.6l0.1-0.7L6.5,15.7z"/> <path d="M11.9,22.6l0.1-2.3l2.3,0.3l-3.1-1.9l-0.6,0.5L11.9,22.6z"/> </g> </g>  </symbol><symbol title="icon" viewBox="93.993 31.493 42 42" id="icon-annual-tax-cars"><title>annual-tax-cars</title> <polygon id="svgstore9f776cd982f92c928f009310bf96d4a7A" points="112.52,54.503 115.432,54.503 113.996,50.368 "/> <path id="svgstore9f776cd982f92c928f009310bf96d4a7tax-icon" d="M114.994,31.493c-11.598,0-21.001,9.401-21.001,21.001c0,11.598,9.401,20.999,21.001,20.999
	c11.598,0,20.999-9.4,20.999-20.999C135.993,40.896,126.592,31.493,114.994,31.493z M105.804,58.47h-2.393v-8.645h-3.416v-1.86
	h9.207v1.86h-3.398V58.47z M116.812,58.47l-0.751-2.158h-4.188l-0.77,2.158h-2.484l4.058-10.505h2.687l4.021,10.505H116.812z
	 M127.09,58.47l-2.161-3.58l-2.278,3.58h-2.764l3.655-5.354l-3.478-5.152h2.839l2.023,3.423l2.083-3.423h2.745l-3.479,5.068
	l3.691,5.438H127.09z"/> </symbol><symbol title="icon" viewBox="0 0 42 42" id="icon-boot-size"><title>boot-size</title> <g id="svgstore83bca955b7ba2260296a544bdc06414dboot-size"> <path d="M19.48,12.691c0,0-0.051-0.323-0.248-0.493c-0.211-0.181-0.543-0.209-0.543-0.209H15.73c0,0-0.328,0.026-0.527,0.203
		c-0.184,0.162-0.219,0.476-0.219,0.476v0.812h4.496V12.691z"/> <path d="M21,0C9.402,0,0,9.402,0,21s9.402,21,21,21s21-9.402,21-21S32.598,0,21,0z M16.49,21.144v5.833h-6.021
		c-1.648,0-2.982-1.296-2.982-2.895v-7.707c0-1.599,1.334-2.895,2.982-2.895h3.018v-1.548c0,0,0.037-0.633,0.447-0.995
		s1.043-0.452,1.043-0.452h4.527c0,0,0.617,0.075,1.018,0.43c0.418,0.369,0.473,1.018,0.473,1.018v1.548h2.566
		c1.172,0,2.176,0.663,2.664,1.617h-3.258c0,0-0.831,0.031-1.377,0.577c-0.571,0.571-0.596,1.331-0.596,1.331v0.971h-1.342
		C18.053,17.976,16.49,19.48,16.49,21.144z M34.49,27.68c0,1.28-1.068,2.318-2.387,2.318H20.361c-1.318,0-2.371-1.038-2.371-2.318
		v-5.872c0-1.279,1.068-2.317,2.387-2.317h2.117v-1.6c0,0,0.041-0.668,0.408-1.019c0.369-0.352,1.064-0.388,1.064-0.388h0.457
		c0.034-0.006,0.059-0.009,0.059-0.009h1.869c0,0,0.021,0.003,0.054,0.009h2.13c0,0,0.689,0.042,1.053,0.401
		c0.361,0.356,0.396,1.029,0.396,1.029v1.578h2.119c1.318,0,2.387,1.038,2.387,2.317V27.68z"/> <path d="M27.852,17.975h-1.309v0h-1.955c-0.011,0.001-0.26,0.024-0.416,0.162c-0.148,0.13-0.176,0.38-0.176,0.38v0.973h4.488
		v-0.955c0,0-0.041-0.259-0.199-0.394C28.117,17.998,27.852,17.975,27.852,17.975z"/> </g> </symbol><symbol title="icon" viewBox="0 0 59.4 19.2" id="icon-convertible"><title>convertible</title> <g id="svgstore679f455273f3e0e179e41c22ab374043conv"> <path id="svgstore679f455273f3e0e179e41c22ab374043ground" d="M2.1,19.2l8.1-0.7h40.7l6.6,0.7H2.1z"/> <g id="svgstore679f455273f3e0e179e41c22ab374043ally-front"> <path d="M48.7,13.4c0.5,0,1,0.4,1,1c0,0.5-0.4,1-1,1s-1-0.4-1-1C47.7,13.9,48.1,13.4,48.7,13.4z"/> <path d="M47.4,10.9l1.2,1.4l1.2-1.4L49,13.7h-0.6L47.4,10.9z"/> <path d="M51.9,12.4l-1.1,1.5l1.6,1l-2.9-0.4l-0.1-0.6L51.9,12.4z"/> <path d="M45.5,12.4l1.1,1.5l-1.6,1l2.9-0.4l0.1-0.6L45.5,12.4z"/> <path d="M49.8,17.9l0.1-1.8l1.8,0.3l-2.5-1.5l-0.5,0.4L49.8,17.9z"/> <path d="M47.4,17.9l-0.1-1.8l-1.8,0.3l2.5-1.5l0.5,0.4L47.4,17.9z"/> </g> <path id="svgstore679f455273f3e0e179e41c22ab374043tyre-front" d="M48.7,10.3c-2.2,0-4.1,1.8-4.1,4.1s1.8,4.1,4.1,4.1c2.2,0,4.1-1.8,4.1-4.1S50.9,10.3,48.7,10.3z
		 M48.7,17.2c-1.6,0-2.8-1.3-2.8-2.8s1.3-2.8,2.8-2.8s2.8,1.3,2.8,2.8C51.5,16,50.2,17.2,48.7,17.2z"/> <g id="svgstore679f455273f3e0e179e41c22ab374043alloy-rear"> <path d="M12,13.4c0.5,0,1,0.4,1,1c0,0.5-0.4,1-1,1s-1-0.4-1-1C11.1,13.9,11.5,13.4,12,13.4z"/> <path d="M10.8,10.9l1.2,1.4l1.2-1.4l-0.9,2.8h-0.6L10.8,10.9z"/> <path d="M15.2,12.4l-1.1,1.5l1.6,1l-2.9-0.4l-0.1-0.6L15.2,12.4z"/> <path d="M8.9,12.4l1.1,1.5l-1.6,1l2.9-0.4l0.1-0.6L8.9,12.4z"/> <path d="M13.2,17.9l0.1-1.8l1.8,0.3l-2.5-1.5l-0.5,0.4L13.2,17.9z"/> <path d="M10.8,17.9l-0.1-1.8l-1.8,0.3l2.5-1.5l0.5,0.4L10.8,17.9z"/> </g> <path id="svgstore679f455273f3e0e179e41c22ab374043tyre-rear" d="M12,10.3c-2.2,0-4.1,1.8-4.1,4.1s1.8,4.1,4.1,4.1c2.2,0,4.1-1.8,4.1-4.1S14.2,10.3,12,10.3z M12,17.2
		c-1.6,0-2.8-1.3-2.8-2.8s1.3-2.8,2.8-2.8s2.8,1.3,2.8,2.8C14.9,16,13.6,17.2,12,17.2z"/> <path id="svgstore679f455273f3e0e179e41c22ab374043body" d="M59.1,12.7c0-0.4,0.3-0.5,0.3-0.5c-0.3-2.5-2.1-4-2.1-4c-0.7-0.5-3.1-1.2-5.4-1.8c-3.2-0.7-6.4-1.3-6.4-1.3
		s-1.5-0.7-3.8-1.7c-2.2-1-5.2-2.3-7.9-3.1C33.5,0.2,32.7,0,32.7,0s-0.3,0-0.5,0.1c-0.2,0.1-0.3,0.2-0.3,0.4C31.8,0.8,32,0.9,32,0.9
		s2.5,0.7,4.4,1.4c1.8,0.6,3,1.3,3,1.3s-0.5,0.2-0.5,0.7c0,0.6,0.4,1.4,0.4,1.4L25.7,5c0,0-0.3-2.2-0.9-2.5C24.3,2.2,24,2.3,24,2.3
		s-0.2,0.1-0.2,0.3c-0.3,1.4-0.2,2.2-0.2,2.2L16,4.3c0,0,0-1.7-1.2-2.1c-0.5-0.1-0.6-0.3-1.2,0C13.4,2.3,13.3,3,13.1,3
		c-0.3,0-0.5,1.1-0.5,1.1L5.7,3.7c0,0-0.7,0.2-1.5,0.3C2.9,4.2,1.7,4.1,1.7,4.1S1.4,4,1.5,4.5c0.1,0.2,0.4,0.6,0.4,0.6
		S1.5,5.4,1.3,6.2c-0.2,0.8-0.2,2-0.2,2c-0.6,0.9-1,1.2-1,1.2c-0.2,0.4-0.1,1.1,0,1.6c0,0.3,0.2,0.4,0.2,0.4s0,0.4,0,0.6
		c0,0.2-0.2,0.3-0.2,0.3s0.1,0.6,0.4,0.9c0.1,0.1-0.1,0.3-0.1,0.3l0.5,0.8l1.1,0.1c2.4,0.4,4.3,0.6,4.3,0.6l1.3,1.2
		c0,0-0.7-2.9,0.6-4.5c2.1-2.9,6.2-2.9,8.2,0c0.9,1.2,0.7,3.2,0.6,4.1c0,0,0,0.1,0,0.1L44,16.3c0,0-0.7-2.8,0.5-4.6
		c1.1-1.5,2.7-2.2,4.3-2.2c1.6,0,3,0.8,4.1,2.2c1.1,1.6,0.4,4.5,0.4,4.5c2.3,0.1,6-1,6-1c0-0.2-0.2-0.6-0.2-0.6S59.1,13.4,59.1,12.7
		z M5.2,6.7C4.6,7,2.5,7.8,2.5,7.8C2,7,2.4,6,2.4,6c0.4-0.6,1.1-0.5,1.1-0.5C5,5.4,5.3,5.9,5.3,5.9C6.1,6.4,5.2,6.7,5.2,6.7z
		 M23.9,6.5c0.7,0.1,2.1,0.2,2.1,0.2c0.5,0,0.5,0.3,0.5,0.3c0.2,0.3-0.3,0.2-0.3,0.2c-0.8-0.3-2-0.1-2-0.1S24,7.1,23.9,7
		c-0.2,0-0.2-0.1-0.2-0.1C23.6,6.4,23.9,6.5,23.9,6.5z M42.4,15.4c0,0-11.2-0.3-17.1-0.5c0,0-0.1,0-0.1,0L25,14.7c0,0,0,0,0,0
		c-0.2-0.1-2.8-1.7-3.4-7.8c0,0,0-0.7-0.2-1.4h0.1c0,0,0.2,0.8,0.2,1.4c0,0,0.1,1.3,0.4,2.7c0.2,0.8,0.6,1.8,1,2.6
		c0.7,1.6,2.1,2.5,2.1,2.5h0c6,0.3,17.2,0.5,17.2,0.5L42.4,15.4z M43.3,10.7c-0.3,2.3-0.8,4.5-0.8,4.5l-0.2,0c0,0,0.5-2.3,0.9-4.6
		c0.3-2.2-0.7-4.2-0.7-4.2l0.1,0C42.6,6.4,43.5,8.5,43.3,10.7z M53.8,8.1c1.3,0.1,2.3,0.5,2.3,0.5c1.4,0.8,1,2.2,1,2.2
		c-2.2-0.9-3.5-2-3.5-2C52.7,8.1,53.8,8.1,53.8,8.1z M57.7,14.2c-0.3,0.4-0.4,0.2-0.4,0.2c-0.7-1,0.3-1.4,0.3-1.4
		C58.1,12.8,57.7,14.2,57.7,14.2z"/> </g>  </symbol><symbol title="icon" viewBox="0 0 59.5 19" id="icon-coupe"><title>coupe</title> <g id="svgstore34afc15da208f19f6ae143ae93d6f263coupe"> <path id="svgstore34afc15da208f19f6ae143ae93d6f263ground" d="M1.3,19l8.1-0.7h40.8l6.7,0.7H1.3z"/> <g id="svgstore34afc15da208f19f6ae143ae93d6f263alloy-front"> <path d="M47.9,13.2c0.5,0,1,0.4,1,1s-0.4,1-1,1s-1-0.4-1-1S47.4,13.2,47.9,13.2z"/> <path d="M46.7,10.7l1.2,1.4l1.2-1.4l-0.9,2.8h-0.6L46.7,10.7z"/> <path d="M51.1,12.2L50,13.7l1.6,1l-2.9-0.4l-0.1-0.6L51.1,12.2z"/> <path d="M44.8,12.2l1.1,1.5l-1.6,1l2.9-0.4l0.1-0.6L44.8,12.2z"/> <path d="M49.1,17.7l0.1-1.9l1.8,0.3l-2.5-1.5L48.1,15L49.1,17.7z"/> <path d="M46.7,17.7l-0.1-1.9l-1.8,0.3l2.5-1.5l0.5,0.4L46.7,17.7z"/> </g> <path id="svgstore34afc15da208f19f6ae143ae93d6f263tyre-front" d="M48,10.1c-2.2,0-4.1,1.8-4.1,4.1s1.8,4.1,4.1,4.1c2.2,0,4.1-1.8,4.1-4.1S50.2,10.1,48,10.1z M47.9,17
		c-1.6,0-2.8-1.3-2.8-2.8c0-1.6,1.3-2.8,2.8-2.8s2.8,1.3,2.8,2.8C50.8,15.8,49.5,17,47.9,17z"/> <g id="svgstore34afc15da208f19f6ae143ae93d6f263alloy-rear"> <path d="M11.3,13.2c0.5,0,1,0.4,1,1s-0.4,1-1,1s-1-0.4-1-1S10.8,13.2,11.3,13.2z"/> <path d="M10.1,10.7l1.2,1.4l1.2-1.4l-0.9,2.8H11L10.1,10.7z"/> <path d="M14.5,12.2l-1.1,1.5l1.6,1L12,14.2l-0.1-0.6L14.5,12.2z"/> <path d="M8.1,12.2l1.1,1.5l-1.6,1l2.9-0.4l0.1-0.6L8.1,12.2z"/> <path d="M12.5,17.7l0.1-1.9l1.8,0.3l-2.5-1.5L11.4,15L12.5,17.7z"/> <path d="M10,17.7L10,15.9l-1.8,0.3l2.5-1.5l0.5,0.4L10,17.7z"/> </g> <path id="svgstore34afc15da208f19f6ae143ae93d6f263tyre-rear" d="M11.3,10.1c-2.2,0-4.1,1.8-4.1,4.1s1.8,4.1,4.1,4.1s4.1-1.8,4.1-4.1S13.5,10.1,11.3,10.1z M11.3,17
		c-1.6,0-2.8-1.3-2.8-2.8c0-1.6,1.3-2.8,2.8-2.8s2.8,1.3,2.8,2.8C14.1,15.8,12.9,17,11.3,17z"/> <path id="svgstore34afc15da208f19f6ae143ae93d6f263body" d="M53.4,7.1c0,0-2.2-0.6-4.8-1c-2.4-0.4-5.1-0.6-5.1-0.6l-2.9-0.4c-5.8-3.5-9.3-4.4-9.3-4.4s-1.3-0.4-3-0.5
		C26.3,0,23.8,0,23.8,0c-4.1,0.1-8.5,1.3-8.5,1.3L6.6,4L5.9,4.1c-0.8,0-4.2-0.3-4.2-0.3s0.4,0.5,0.6,0.9c0.1,0.2,0,0.3,0,0.3
		S1.9,5.7,1.6,6.6C1.4,7.4,1.3,8.3,1.3,8.3S1,8.8,0.4,9.1C0.1,9.2,0,9.6,0,9.6s0,0.6,0,1.2c0.1,0.5,0.2,1,0.2,1
		c-0.5,0.4,0.4,1.3,0.4,1.3l-0.2,0.1L1,14.2l0.5,0l4.2,1l0.8,0c0,0,0,0,0,0c-0.1-0.5,0-1.1,0-1.1s0.1-2.1,1.2-3.2
		c1.2-1.2,2.4-1.5,3.4-1.5s2.3,0.2,3.6,1.4c1.4,1.3,1.3,3.4,1.3,3.4s-0.1,0.6-0.1,1.1c0,0.3-0.1,0.7-0.1,0.7l27.6,0
		c0,0-0.2-0.7-0.2-1.9c0-2.2,1.6-4.7,4.9-4.7c3.1,0,4.7,2.5,4.7,4.7c0,1.2-0.3,1.9-0.3,1.9c5.4,0,6.4-0.8,6.4-0.8s0.3-0.2,0.2-0.5
		c0-0.2-0.4-0.3-0.4-0.3l0.4-1.7l0.3-0.1l0.1-1.7C56.4,7.5,53.4,7.1,53.4,7.1z M5.6,6.5C4.9,6.8,2.8,7.6,2.8,7.6
		C2.3,6.8,2.7,5.8,2.7,5.8c0.4-0.6,1.1-0.5,1.1-0.5c1.6-0.1,1.8,0.3,1.8,0.3C6.5,6.1,5.6,6.5,5.6,6.5z M22.8,1.1
		c0,0,1.6-0.2,3.3-0.2c1.6,0,3.2,0.1,3.2,0.1c1.1,0.2,2,0.5,2.9,0.8c1.5,0.6,2.8,1.4,2.8,1.4s-0.4,0.1-0.6,0.2
		c-0.2,0.1-0.2,0.2-0.2,0.2L34,5.1L22.8,4.6L22.8,1.1z M25.8,7c-0.8-0.3-2-0.1-2-0.1s-0.3,0-0.5-0.1c-0.2,0-0.2-0.1-0.2-0.1
		c0-0.5,0.3-0.4,0.3-0.4c0.7,0.1,2.1,0.2,2.1,0.2c0.5,0,0.5,0.3,0.5,0.3C26.4,7,25.8,7,25.8,7z M16.9,2.5c0,0,1-0.4,2.2-0.6
		c1.5-0.4,3.4-0.7,3.4-0.7l0,3.3c0,0-4.9-0.3-5.8-1.4C16.6,3.2,16.1,2.7,16.9,2.5z M40.1,15l-17.6-0.7l0-0.1h0c0,0-0.3-1.2-0.5-2.1
		c0,0-0.5-2.7-0.6-5.6c0-0.5,0.7-1.3,0.7-1.3l0.1-0.1l0,0.1c0,0-0.7,0.7-0.6,1.2c0.1,3.6,0.7,5.6,0.7,5.6s0.2,1.3,0.5,2.1h0
		l17.5,0.7L40.1,15z M40.9,10.3c-0.3,2.3-0.8,4.5-0.8,4.5l-0.2,0c0,0,0.5-2.3,0.9-4.6C41.1,8.1,41.1,6,41.1,6l0.1,0
		C41.3,5.9,41.2,8.1,40.9,10.3z M53.1,7.9c1.3,0.1,2.3,0.5,2.3,0.5c1.4,0.8,1,2.2,1,2.2c-2.2-0.9-3.5-2-3.5-2
		C52,7.9,53.1,7.9,53.1,7.9z M57,14c-0.3,0.4-0.4,0.2-0.4,0.2c-0.7-1,0.3-1.4,0.3-1.4C57.4,12.6,57,14,57,14z"/> </g>  </symbol><symbol title="icon" viewBox="0 0 60.3 19.5" id="icon-estate"><title>estate</title> <g id="svgstore634c9070c2b4de512b87b53c795609b2estate"> <path id="svgstore634c9070c2b4de512b87b53c795609b2ground" d="M2.1,19.5l8.1-0.7h43.5l6.6,0.7H2.1z"/> <g id="svgstore634c9070c2b4de512b87b53c795609b2alloy-front"> <path d="M51.1,13.7c0.5,0,1,0.4,1,1c0,0.5-0.4,1-1,1c-0.5,0-1-0.4-1-1C50.1,14.1,50.6,13.7,51.1,13.7z"/> <path d="M49.9,11.2l1.2,1.4l1.2-1.4L51.4,14h-0.6L49.9,11.2z"/> <path d="M54.3,12.7l-1.1,1.5l1.6,1l-2.9-0.4l-0.1-0.6L54.3,12.7z"/> <path d="M47.9,12.7l1.1,1.5l-1.6,1l2.9-0.4l0.1-0.6L47.9,12.7z"/> <path d="M52.3,18.2l0.1-1.8l1.8,0.3l-2.5-1.5l-0.5,0.4L52.3,18.2z"/> <path d="M49.8,18.2l-0.1-1.8l-1.8,0.3l2.5-1.5l0.5,0.4L49.8,18.2z"/> </g> <path id="svgstore634c9070c2b4de512b87b53c795609b2tyre-front" d="M51.1,10.6c-2.2,0-4.1,1.8-4.1,4.1s1.8,4.1,4.1,4.1s4.1-1.8,4.1-4.1S53.3,10.6,51.1,10.6z M51.1,17.5
		c-1.6,0-2.8-1.3-2.8-2.8s1.3-2.8,2.8-2.8s2.8,1.3,2.8,2.8S52.7,17.5,51.1,17.5z"/> <g id="svgstore634c9070c2b4de512b87b53c795609b2alloy-rear"> <path d="M12.8,13.7c0.5,0,1,0.4,1,1c0,0.5-0.4,1-1,1s-1-0.4-1-1C11.8,14.1,12.3,13.7,12.8,13.7z"/> <path d="M11.6,11.2l1.2,1.4l1.2-1.4L13.1,14h-0.6L11.6,11.2z"/> <path d="M16,12.7l-1.1,1.5l1.6,1l-2.9-0.4l-0.1-0.6L16,12.7z"/> <path d="M9.6,12.7l1.1,1.5l-1.6,1l2.9-0.4l0.1-0.6L9.6,12.7z"/> <path d="M14,18.2l0.1-1.8l1.8,0.3l-2.5-1.5l-0.5,0.4L14,18.2z"/> <path d="M11.5,18.2l-0.1-1.8l-1.8,0.3l2.5-1.5l0.5,0.4L11.5,18.2z"/> </g> <path id="svgstore634c9070c2b4de512b87b53c795609b2tyre-rear" d="M12.8,10.6c-2.2,0-4.1,1.8-4.1,4.1s1.8,4.1,4.1,4.1s4.1-1.8,4.1-4.1S15,10.6,12.8,10.6z M12.8,17.5
		c-1.6,0-2.8-1.3-2.8-2.8s1.3-2.8,2.8-2.8s2.8,1.3,2.8,2.8S14.4,17.5,12.8,17.5z"/> <path id="svgstore634c9070c2b4de512b87b53c795609b2body" d="M59.9,15.6c-0.1-3.1-0.7-3.6-0.7-3.6c-0.1-2.6-0.5-2.7-0.5-2.7c-2.8-2.8-17-3.5-17-3.5s-1-0.5-2.2-1.1
		c-1.1-0.6-2.3-1.3-3.4-1.9c-1.5-0.8-2.8-1.4-2.8-1.4c-2.6-1.5-5.9-1.3-5.9-1.3s-5.2-0.2-10.1,0.1C11.7,0.5,6.2,1.4,6.2,1.4
		S5.9,1.5,5.9,1.6c0,0.1,0.4,0.2,0.4,0.2L1.8,6.2L1.6,6.5C0.5,7.7,0.9,8.9,0.9,8.9s0.2,1.1,0,1.9c-0.1,0.5-0.6,0.7-0.6,0.7L0,12.9
		c0,0,0,0.6,0.3,1.1C0.6,14.5,1,15,1,15s0.1,0.2,0.4,0.3c0.1,0,1.6,0,1.6,0l5.3,1.2c0,0-0.7-2.9,0.5-4.4c2.1-3,6-2.9,8.1,0
		c1.2,1.6,0.5,4.4,0.5,4.4h29c0,0-0.5-2.8,0.7-4.4c2-2.8,6.2-3.1,8.1,0c1.4,2.3,0.4,4.4,0.4,4.4c3.8,0.1,4.5-0.6,4.5-0.6
		C60.3,15.8,59.9,15.7,59.9,15.6z M31.7,1.6C34.5,2.4,37,4.1,37,4.1c-2.2-0.1-0.8,1.7-0.8,1.7l-8.5-0.6l-1.2-4.2
		C26.5,1.1,29.3,0.9,31.7,1.6z M30.7,6.9c-0.8-0.3-2-0.1-2-0.1s-0.3,0-0.5-0.1c-0.2,0-0.2-0.1-0.2-0.1c0-0.5,0.3-0.4,0.3-0.4
		c0.7,0.1,2.1,0.2,2.1,0.2c0.5,0,0.5,0.3,0.5,0.3C31.3,6.9,30.7,6.9,30.7,6.9z M26.8,7.4c-0.1-1-0.2-1.6-0.2-1.8l0,0.1
		c0,0,0-0.6,0-0.1l0,0l0.1,0.1c0,0-0.1-1.3,0.2,1.8c0.3,2.8,0.3,5.6,0.3,5.6c0,0.9-0.2,2.2-0.2,2.2h-0.1C27,14.4,27,13,27,13
		S27.2,11,26.8,7.4z M21.6,1c1.8,0,3.5,0,3.5,0l0,4.3l-6.7-0.1L18,1.1C18,1.1,19.8,1,21.6,1z M17.8,6.9c-0.8-0.3-2-0.1-2-0.1
		s-0.3,0-0.5-0.1c-0.2,0-0.2-0.1-0.2-0.1c0-0.5,0.3-0.4,0.3-0.4c0.7,0.1,2.1,0.2,2.1,0.2c0.5,0,0.5,0.3,0.5,0.3
		C18.3,6.9,17.8,6.9,17.8,6.9z M14.4,4.2c0.4-1.1,2.5-2.9,2.3-2.9l0.9-0.1l0.2,4l-3.1,0C14.7,5.1,14.2,4.6,14.4,4.2z M4.7,7.8
		C4,8.2,1.9,9,1.9,9C1.5,8.2,1.9,7.2,1.9,7.2c0.4-0.6,1.1-0.5,1.1-0.5C4.5,6.6,4.8,7,4.8,7C5.9,7.3,4.7,7.8,4.7,7.8z M11.6,5.1
		c0,0-3.4,0.2-6,0.2c0,0,2.4-2,4.6-2.9c2.6-1,4-0.9,4-0.9s-1,1-1.7,1.9C12,4.3,11.6,5.1,11.6,5.1z M41.4,15.4l-23.1,0l0-0.1l0-0.9
		c0-3.4-3.9-6.1-3.9-6.1c-0.8-0.6-1.9-2.5-1.9-2.5c0-0.2,0-0.6,0-0.6c0,0,0.1,0,0.1,0s0,0.2,0,0.4c0,0.1,0,0.2,0,0.2
		c1,1.8,1.9,2.4,1.9,2.4c4.2,3.1,3.9,6.1,3.9,6.1l0,0.8l0,0l23,0V15.4z M41.4,15.2h-0.2c0,0,0.9-1.6,0.7-5.9c0,0,0-1.8-0.7-3
		c0,0-0.1-0.2,0.1,0c0,0,0.4,0.5,0.5,1.2c0.2,0.8,0.2,1.8,0.2,1.8S42.4,13.1,41.4,15.2z M54.7,9.3c-0.9-0.7,0.2-0.7,0.2-0.7
		C56.1,8.7,57.2,9,57.2,9c1.4,0.8,1,2.2,1,2.2C55.9,10.3,54.7,9.3,54.7,9.3z M58.4,14.5c-0.3,0.4-0.4,0.2-0.4,0.2
		c-0.7-1,0.3-1.4,0.3-1.4C58.8,13.1,58.4,14.5,58.4,14.5z"/> </g>  </symbol><symbol title="icon" viewBox="93.996 31.5 42 42" id="icon-fuel-consumption"><title>fuel-consumption</title> <g id="svgstoree5f8369f03bf9dce43abf3c44129b6dbfuel-pump"> <path id="svgstoree5f8369f03bf9dce43abf3c44129b6dbpump-window" d="M116.746,40.445h-6.505c-0.705,0-1.275,0.587-1.275,1.302V49.7c0,0.715,0.57,1.301,1.275,1.301h6.505
		c0.697,0,1.265-0.586,1.265-1.301v-7.953C118.013,41.032,117.443,40.445,116.746,40.445z"/> <path id="svgstoree5f8369f03bf9dce43abf3c44129b6dbpump-icon" d="M114.996,31.5c-11.598,0-21,9.402-21,21s9.402,21,21,21c11.6,0,21-9.402,21-21S126.593,31.5,114.996,31.5z
		 M126.981,48.881v9.768v0.009c0,0.764-0.297,1.497-0.838,2.038c-1.039,1.037-1.882,0.962-2.611,0.283
		c-0.586-0.539-1.058-1.513-1.058-2.855V51.87c0-1.054-2.315-0.981-3.005-0.896v10.446h0.734c0.479,0,0.846,0.399,0.846,0.896v1.281
		c0,0.489-0.391,0.896-0.871,0.896h-13.33c-0.479,0-0.869-0.403-0.869-0.896v-1.281c0-0.493,0.39-0.896,0.869-0.896h0.62V40.457
		c0-0.807,0.557-1.465,1.233-1.465h9.533c0.678,0,1.232,0.658,1.232,1.465v8.911c1.205-0.078,4.534,0.036,4.534,1.752v7.001
		c0,2.453,1.5,1.286,1.5,0.533v-0.008V48.88l0.229-2.369l-0.824-2.167c-0.697-1.169-1.41-1.708-1.41-1.713l0.455-0.622
		c0.01,0.003,0.803,0.609,1.582,1.906l1.121,0.964l0.637,2.605L126.981,48.881z"/> </g> </symbol><symbol title="icon" viewBox="0 0 48.8 18.2" id="icon-hatchback"><title>hatchback</title> <g id="svgstorec182ca007c4238d8becdab611d259fb4hatchback"> <path id="svgstorec182ca007c4238d8becdab611d259fb4ground" d="M6,17.5l-5.2,0.7h47.1l-7.4-0.7H6z"/> <g id="svgstorec182ca007c4238d8becdab611d259fb4alloy-front"> <path d="M39.5,12.5c0.5,0,1,0.4,1,1c0,0.5-0.4,1-1,1c-0.5,0-1-0.4-1-1C38.5,12.9,38.9,12.5,39.5,12.5z"/> <path d="M38.2,10l1.2,1.4l1.2-1.4l-0.9,2.7h-0.6L38.2,10z"/> <path d="M42.7,11.5l-1.1,1.5l1.6,1l-2.9-0.4l-0.1-0.6L42.7,11.5z"/> <path d="M36.3,11.5l1.1,1.5l-1.6,1l2.9-0.4l0.1-0.6L36.3,11.5z"/> <path d="M40.6,17l0.1-1.8l1.8,0.3L40,13.9l-0.5,0.4L40.6,17z"/> <path d="M38.2,17l-0.1-1.8l-1.8,0.3l2.5-1.5l0.5,0.4L38.2,17z"/> </g> <path id="svgstorec182ca007c4238d8becdab611d259fb4tyre-front" d="M39.5,9.4c-2.2,0-4,1.8-4,4c0,2.2,1.8,4,4,4c2.2,0,4-1.8,4-4C43.5,11.2,41.7,9.4,39.5,9.4z M39.5,16.3
		c-1.6,0-2.8-1.3-2.8-2.8c0-1.6,1.3-2.8,2.8-2.8c1.6,0,2.8,1.3,2.8,2.8C42.3,15,41,16.3,39.5,16.3z"/> <g id="svgstorec182ca007c4238d8becdab611d259fb4alloy-rear"> <path d="M7.1,12.5c0.5,0,1,0.4,1,1c0,0.5-0.4,1-1,1s-1-0.4-1-1C6.1,12.9,6.6,12.5,7.1,12.5z"/> <path d="M5.9,10l1.2,1.4L8.4,10l-0.9,2.7H6.8L5.9,10z"/> <path d="M10.3,11.5l-1.1,1.5l1.6,1l-2.9-0.4l-0.1-0.6L10.3,11.5z"/> <path d="M4,11.5l1.1,1.5l-1.6,1l2.9-0.4l0.1-0.6L4,11.5z"/> <path d="M8.3,17l0.1-1.8l1.8,0.3l-2.5-1.5l-0.5,0.4L8.3,17z"/> <path d="M5.8,17l-0.1-1.8l-1.8,0.3l2.5-1.5l0.5,0.4L5.8,17z"/> </g> <path id="svgstorec182ca007c4238d8becdab611d259fb4tyre-rear" d="M7.1,9.4c-2.2,0-4,1.8-4,4c0,2.2,1.8,4,4,4c2.2,0,4-1.8,4-4C11.1,11.2,9.3,9.4,7.1,9.4z M7.1,16.3
		c-1.6,0-2.8-1.3-2.8-2.8c0-1.6,1.3-2.8,2.8-2.8s2.8,1.3,2.8,2.8C9.9,15,8.7,16.3,7.1,16.3z"/> <path id="svgstorec182ca007c4238d8becdab611d259fb4body" d="M48.6,13.7c-0.1-0.1-0.1-0.2-0.1-0.2l0.1-1.7l0-1.6c0,0-0.5-2.2-4.5-3.2c-0.6-0.1-1.6-0.4-2.2-0.6
		c-2.5-0.6-5-0.8-5-0.8s-2-1.1-4.1-2.2c-1.9-0.9-3.9-1.8-3.9-1.8c-3-1.5-8.5-1.7-8.5-1.7s-4.8,0-9.3,0.3c-3.7,0.3-5,0.1-5,0.1
		C5.8,0.5,5.9,0.7,6.1,0.8C6.2,1,6.3,1.1,6.3,1.1C3.6,3.2,2.2,5.4,2.2,5.4L1.3,8.5L0.5,9.6c-0.2,0.1-0.2,1.2-0.2,1.2
		C0.1,10.8,0,11,0,11l0,1.3l0.6,0.8c0.6,0.6,0.7,0.5,0.7,0.5l1,0.5c0,0,0,0,0,0c-0.1-0.9,0-2.1,0.7-3.2c2-2.9,6-3,8.1,0
		c1,1.4,0.7,3.3,0.5,4.1c0,0,0,0,0,0L35,15.3c0,0-1-2.5,0.3-4.5c2.1-3,6.3-2.8,8.2,0c1.2,1.8,0.5,4.4,0.5,4.4c2.7-0.3,4.6-1,4.6-1
		s0.2-0.1,0.2-0.3C48.8,13.9,48.6,13.8,48.6,13.7z M4.9,5c-0.9,0.9-1,2.8-1,2.8C3.3,7.6,2.8,7.3,2.8,7.3c-0.3-0.9,0.4-2,0.4-2
		C4,4.2,4.9,3.9,4.9,3.9C5.3,4.7,4.9,5,4.9,5z M31.2,4c-0.3,0.2-0.4,0.6-0.4,0.6v0.7L30.4,6l-8.9-0.7L21,0.9C26.6,1.1,31.2,4,31.2,4
		z M24.5,7.5c-0.8-0.3-2-0.1-2-0.1s-0.3,0-0.5-0.1c-0.2,0-0.2-0.1-0.2-0.1c0-0.5,0.3-0.4,0.3-0.4C22.8,6.9,24.3,7,24.3,7
		c0.5,0,0.5,0.3,0.5,0.3C25.1,7.5,24.5,7.5,24.5,7.5z M10.2,2.8c0.4-1,2.5-1.8,2.5-1.8s1.5-0.2,3-0.2c1.7,0,3.4,0.1,3.4,0.1l0,4.2
		c-6.4-0.1-9.4-1-9.4-1S9.9,3.6,10.2,2.8z M10.5,9.9C8.9,8.1,8.8,7.1,8.8,7.1C8.6,6.2,8.6,5.3,8.6,5.3c0-0.1,0.5-0.9,0.5-0.9
		c0,0.1-0.3,0.9-0.3,0.9c0,0.5,0.2,1.7,0.2,1.7c0.1,0.8,1.6,2.6,1.6,2.6l0.2,0.3L10.5,9.9z M12.8,6.7c-0.8-0.3-2-0.1-2-0.1
		s-0.3,0-0.5-0.1c-0.2,0-0.2-0.1-0.2-0.1C10,6,10.4,6,10.4,6c0.7,0.1,2.1,0.2,2.1,0.2c0.5,0,0.5,0.3,0.5,0.3
		C13.3,6.7,12.8,6.7,12.8,6.7z M33.3,14.5L33.3,14.5L33.3,14.5L12.9,14l0.2-0.1l7.3,0.2C20.7,9.3,20.6,7,20.6,7l-0.2-1.6l0.1,0
		L20.7,7c0.2,3.4-0.1,7.1-0.1,7.1L33.3,14.5c-0.1,0,0.5-4.1,0.5-6.9l-0.5-1.4l0.1,0L34,7.5C34,7.5,34,10,33.3,14.5z M46.7,12.7
		c-0.2,0.6-0.5,0.3-0.5,0.3c-0.4-0.7,0.2-0.9,0.2-0.9C47,11.9,46.7,12.7,46.7,12.7z M47.2,9.8C46.6,9.6,44.6,9,44.6,9
		c-0.2-0.2-2.2-1.2-2.2-1.2c-0.4-0.6,1.4-0.4,3,0.1c1.1,0.3,1.5,0.8,1.5,0.8C47.3,8.9,47.8,9.9,47.2,9.8z"/> </g>  </symbol><symbol title="icon" viewBox="0 0 14 14" id="icon-ic-lg-cross"><title>+ copy 3</title><desc>Created with Sketch.</desc>   <g id="svgstore4e956bb8faa3234c1867b24a757f2471Artboards" sketch:type="MSPage"> <g id="svgstore4e956bb8faa3234c1867b24a757f2471Desktop-1280" transform="translate(-589.000000, -813.000000)" sketch:type="MSArtboardGroup"> <g id="svgstore4e956bb8faa3234c1867b24a757f2471two" transform="translate(302.000000, 447.000000)" sketch:type="MSLayerGroup"> <g id="svgstore4e956bb8faa3234c1867b24a757f2471Group-Copy-16" transform="translate(226.000000, 13.000000)" sketch:type="MSShapeGroup"> <g id="svgstore4e956bb8faa3234c1867b24a757f2471Compare-_x2B_-Oval-9-_x2B_-_x2B_-copy-3" transform="translate(56.000000, 348.000000)"> <g id="svgstore4e956bb8faa3234c1867b24a757f2471Oval-9-_x2B_-_x2B_-copy-20" transform="translate(12.000000, 12.000000) rotate(-45.000000) translate(-12.000000, -12.000000) translate(4.000000, 4.000000)"> <path id="svgstore4e956bb8faa3234c1867b24a757f2471_x2B_-copy-3" d="M9,7V0H7v7H0v2h7v7h2V9h7V7H9z"/> </g> </g> </g> </g> </g> </g> </symbol><symbol title="icon" viewBox="0 0 16 16" id="icon-ic-lg-plus"><title>+ copy 3</title><desc>Created with Sketch.</desc>   <g id="svgstorea8c823b8969288d62f45515d18fb3293Artboards" sketch:type="MSPage"> <g id="svgstorea8c823b8969288d62f45515d18fb3293Desktop-1280" transform="translate(-1028.000000, -812.000000)" sketch:type="MSArtboardGroup"> <g id="svgstorea8c823b8969288d62f45515d18fb3293two" transform="translate(302.000000, 447.000000)" sketch:type="MSLayerGroup"> <g id="svgstorea8c823b8969288d62f45515d18fb3293Group-Copy" transform="translate(662.000000, 13.000000)" sketch:type="MSShapeGroup"> <g id="svgstorea8c823b8969288d62f45515d18fb3293Compare-_x2B_-Oval-9-_x2B_-_x2B_-copy-3" transform="translate(64.000000, 348.000000)"> <g id="svgstorea8c823b8969288d62f45515d18fb3293Oval-9-_x2B_-_x2B_-copy-3" transform="translate(0.000000, 4.000000)"> <g id="svgstorea8c823b8969288d62f45515d18fb3293Oval-9-_x2B_-_x2B_-copy-24"> <path id="svgstorea8c823b8969288d62f45515d18fb3293_x2B_-copy-3" d="M9,7V0H7v7H0v2h7v7h2V9h7V7H9z"/> </g> </g> </g> </g> </g> </g> </g> </symbol><symbol title="icon" viewBox="0 0 16 16" id="icon-ic-lg-remove"><title>Shape Copy</title><desc>Created with Sketch.</desc>   <g id="svgstorea60ca3189f336850fef8626b469a84f8Artboards" sketch:type="MSPage"> <g id="svgstorea60ca3189f336850fef8626b469a84f8Desktop-1280" transform="translate(-526.000000, -153.000000)" sketch:type="MSArtboardGroup"> <g id="svgstorea60ca3189f336850fef8626b469a84f8two" transform="translate(411.000000, 153.000000)" sketch:type="MSLayerGroup"> <path id="svgstorea60ca3189f336850fef8626b469a84f8Shape-Copy" sketch:type="MSShapeGroup" d="M128.6,2.4c-3.1-3.1-8.2-3.1-11.3,0c-3.1,3.1-3.1,8.2,0,11.3
				c3.1,3.1,8.2,3.1,11.3,0C131.7,10.5,131.7,5.5,128.6,2.4L128.6,2.4z M127.2,10.9l-1.4,1.4L123,9.4l-2.8,2.8l-1.4-1.4l2.8-2.8
				l-2.8-2.8l1.4-1.4l2.8,2.8l2.8-2.8l1.4,1.4L124.4,8L127.2,10.9L127.2,10.9z"/> </g> </g> </g> </symbol><symbol title="icon" viewBox="93.996 31.5 42 42" id="icon-insuranceGroup"><title>insuranceGroup</title> <path id="svgstore925e268ac4c1fe53d82bdabd14f54112shield" d="M103.684,45.949c1.045,6.793,3.843,16.637,11.313,19.508c7.462-2.867,10.26-12.689,11.308-19.479
	c-4.533-0.953-9.106-2.468-11.343-4.41C112.664,43.475,107.989,44.953,103.684,45.949z M114.996,62.971
	c-5.837-2.551-8.121-10.804-8.994-16.041c3.385-1.035,6.845-1.721,8.951-3.451c2.062,1.764,5.487,2.484,9.031,3.494
	C123.109,52.202,120.825,60.426,114.996,62.971z"/> <path id="svgstore925e268ac4c1fe53d82bdabd14f54112insurance-icon" d="M114.996,31.5c-11.598,0-21,9.402-21,21s9.402,21,21,21c11.6,0,21-9.402,21-21
	S126.593,31.5,114.996,31.5z M114.996,67.49c-9.631-3.107-12.59-15.617-13.501-23.184c5.458,0,13.501-5.316,13.501-5.316
	s7.554,5.316,13.503,5.316C127.589,51.872,124.63,64.381,114.996,67.49z"/> </symbol><symbol title="icon" viewBox="0 0 58.4 23.1" id="icon-mpv"><title>mpv</title> <g id="svgstore4f5447a0d1958af2a78ef26d63031d67mpv"> <path id="svgstore4f5447a0d1958af2a78ef26d63031d67ground" d="M0.5,23.1l8.1-0.7H50l6.6,0.7H0.5z"/> <g id="svgstore4f5447a0d1958af2a78ef26d63031d67alloy-front"> <path d="M47.9,17.3c0.5,0,1,0.4,1,1c0,0.5-0.4,1-1,1s-1-0.4-1-1C46.9,17.8,47.4,17.3,47.9,17.3z"/> <path d="M46.7,14.8l1.2,1.4l1.2-1.4l-0.9,2.7h-0.6L46.7,14.8z"/> <path d="M51.1,16.3l-1.1,1.4l1.6,1l-2.9-0.4l-0.1-0.6L51.1,16.3z"/> <path d="M44.7,16.3l1.1,1.4l-1.6,1l2.9-0.4l0.1-0.6L44.7,16.3z"/> <path d="M49.1,21.8l0.1-1.8l1.8,0.3l-2.5-1.5L48,19.1L49.1,21.8z"/> <path d="M46.6,21.8L46.6,20l-1.8,0.3l2.5-1.5l0.5,0.4L46.6,21.8z"/> </g> <path id="svgstore4f5447a0d1958af2a78ef26d63031d67tyre-front" d="M47.9,14.2c-2.2,0-4,1.8-4,4c0,2.2,1.8,4,4,4s4-1.8,4-4C51.9,16.1,50.1,14.2,47.9,14.2z M47.9,21.1
		c-1.6,0-2.8-1.3-2.8-2.8s1.3-2.8,2.8-2.8c1.6,0,2.8,1.3,2.8,2.8S49.4,21.1,47.9,21.1z"/> <g id="svgstore4f5447a0d1958af2a78ef26d63031d67alloy-rear"> <path d="M10.4,17.3c0.5,0,1,0.4,1,1c0,0.5-0.4,1-1,1c-0.5,0-1-0.4-1-1C9.4,17.8,9.8,17.3,10.4,17.3z"/> <path d="M9.2,14.8l1.2,1.4l1.2-1.4l-0.9,2.7h-0.6L9.2,14.8z"/> <path d="M13.5,16.3l-1.1,1.4l1.6,1l-2.9-0.4L11,17.7L13.5,16.3z"/> <path d="M7.2,16.3l1.1,1.4l-1.6,1l2.9-0.4l0.1-0.6L7.2,16.3z"/> <path d="M11.5,21.8l0.1-1.8l1.8,0.3l-2.5-1.5l-0.5,0.4L11.5,21.8z"/> <path d="M9.1,21.8L9,20l-1.8,0.3l2.5-1.5l0.5,0.4L9.1,21.8z"/> </g> <path id="svgstore4f5447a0d1958af2a78ef26d63031d67tyre-rear" d="M10.3,14.2c-2.2,0-4,1.8-4,4c0,2.2,1.8,4,4,4s4-1.8,4-4C14.4,16.1,12.6,14.2,10.3,14.2z M10.4,21.1
		c-1.6,0-2.8-1.3-2.8-2.8s1.3-2.8,2.8-2.8s2.8,1.3,2.8,2.8S11.9,21.1,10.4,21.1z"/> <path id="svgstore4f5447a0d1958af2a78ef26d63031d67body" d="M58.3,17.1c0,0,0.2-1.8-0.2-3.1c0,0-0.8-1.3-1.7-2.3c-1-1.1-2.1-1.6-2.1-1.6s-1.6-1-3.5-1.5
		C48.7,8,46,6.8,46,6.8s-9.2-5.6-14.2-6.2c0,0-5.2-0.8-12.8-0.6C12.9,0.2,7.1,0.8,7.1,0.8S4.4,1,4.1,1.2C3.8,1.4,5.5,1.9,5.2,2.1
		c-1,0.9-2,2-2.9,3.7c-0.2,0.4-1,0.3-1.2,0.8c0,0,0.5,0.5,0.1,0.8C0.9,7.6,0.6,8,0.6,8.6v4.3c0,0-0.6,0.4-0.6,0.9
		c0,0.9,0,2.2,0.2,2.9c0.1,0.3,0.4,0.7,0.4,0.7s0,1.3,2.2,1.9l3,0.6c0,0-0.5-2.5,0.6-4.1c2.1-3,5.9-2.9,8,0c1.1,1.6,0.6,4.5,0.6,4.5
		h28.5c0,0-0.6-2.8,0.6-4.5c2.1-3,5.8-3,8,0c1.2,1.7,0.5,4.5,0.5,4.5h4C56.5,20.2,59.1,19.1,58.3,17.1z M4.3,9
		c-0.6,0.3-2.7,1.1-2.7,1.1C1.1,9.3,1.5,8.3,1.5,8.3c0.4-0.6,1.1-0.5,1.1-0.5c1.6-0.1,1.8,0.3,1.8,0.3C5.2,8.7,4.3,9,4.3,9z
		 M39.3,4.8C39.5,5,39.8,5.6,39.9,6c0,0.2-0.2,0.2-0.2,0.5c0,0.5,0.1,0.9,0.1,0.8l-0.8,1.4L29.4,8l-1-6.6
		C28.5,1.4,33.7,1.1,39.3,4.8z M32.8,10.5c-0.8-0.3-2-0.1-2-0.1s-0.3,0-0.5-0.1c-0.2,0-0.2-0.1-0.2-0.1c0-0.5,0.3-0.4,0.3-0.4
		c0.7,0.1,2.1,0.2,2.1,0.2c0.5,0,0.5,0.3,0.5,0.3C33.3,10.5,32.8,10.5,32.8,10.5z M22.7,1.2c2.6,0,5.2,0.2,5.2,0.2l-0.2,6.4
		L15.9,7.2l1.7-5.8C17.6,1.4,20.2,1.2,22.7,1.2z M18.1,9.8c-0.8-0.3-2-0.1-2-0.1s-0.3,0-0.5-0.1c-0.2,0-0.2-0.1-0.2-0.1
		c0-0.5,0.3-0.4,0.3-0.4c0.7,0.1,2.1,0.2,2.1,0.2c0.5,0,0.5,0.3,0.5,0.3C18.7,9.9,18.1,9.8,18.1,9.8z M11.7,7.2c0,0-0.5-0.1-0.8-0.5
		c-0.6-0.7-1.9-2.3-2-3c0,0-1.1-1.4,1.2-1.7l7-0.6c0,0-1.4,3.7-1.9,5.8H11.7z M42,19l-24.6,0l0-0.1l0-0.9c0-0.2-0.1-0.7-0.1-0.8
		c-0.9-2.9-2.2-5.3-2.2-5.3C14.3,10.9,14.7,9,14.7,9c0-0.2,0.1-0.6,0.1-0.6c0,0,0.1,0,0.1,0L14.9,9c-0.4,2.3,0.3,2.9,0.3,2.9
		c1.4,2.8,2,4.4,2.2,5.2c0.1,0.4,0.1,0.9,0.1,0.9l0,0.8l0,0l11.4,0c0.1-0.8,0.2-2.2,0.2-2.2s0.2-2-0.2-5.6c-0.1-1-0.2-1.5-0.2-1.8
		l0,0.1c0,0,0-0.6,0-0.1l0,0l0.1,0.1c0,0-0.1-1.3,0.2,1.8c0.3,2.8,0.3,5.6,0.3,5.6c0,0.9-0.2,2.2-0.2,2.2l-0.1,0l13,0L42,19L42,19z
		 M41.9,18.8h-0.2c0,0,0.9-1.6,0.7-5.9c0,0,0-1.7-0.7-2.9c0,0-0.1-0.2,0.1,0c0,0,0.4,0.5,0.5,1.2c0.2,0.8,0.2,1.8,0.2,1.8
		S42.9,16.7,41.9,18.8z M55.8,18.1c-0.3,0.4-0.4,0.2-0.4,0.2c-0.7-1,0.3-1.4,0.3-1.4C56.2,16.7,55.8,18.1,55.8,18.1z M55.9,13.7
		c-2.2-0.9-3.5-2-3.5-2C51.6,11,52.7,11,52.7,11c1.3,0.1,2.3,0.5,2.3,0.5C56.3,12.3,55.9,13.7,55.9,13.7z"/> </g>  </symbol><symbol title="icon" viewBox="93.996 31.5 42 42" id="icon-number-of-doors"><title>number-of-doors</title> <path id="svgstoreba7072fa3189930598e77861ddbab0c4door" d="M114.996,31.5c-11.598,0-21,9.402-21,21s9.402,21,21,21c11.6,0,21-9.402,21-21S126.593,31.5,114.996,31.5z
	 M128.495,54.77c0,0-2.815,0.869-4.37,2.824c-1.622,2.043-1.982,3.676-1.982,3.676c0,0.953-0.713,1.729-1.591,1.729h-14.046
	c-0.877,0-1.588-0.771-1.588-1.729c0,0-1.928-4.178-1.928-9.336c0-4.291,0-8.224,0-8.224c0-0.953,0.711-1.726,1.588-1.726h15.974
	c0.878,0,1.703,0.515,2.386,1.726l5.562,7.776L128.495,54.77L128.495,54.77z"/> <path id="svgstoreba7072fa3189930598e77861ddbab0c4window" d="M104.51,50.982v-7.03c0,0-0.08-0.431,0.396-0.431h15.105c0,0,0.866-0.06,1.332,0.858l4.787,6.603H104.51
	L104.51,50.982z"/> <path id="svgstoreba7072fa3189930598e77861ddbab0c4handle" d="M105.723,53.993h5.164c0,0-0.281,1.294-2.385,1.294C108.502,55.287,106.178,55.344,105.723,53.993z"/> </symbol><symbol title="icon" viewBox="0 0 57.2 24.7" id="icon-other"><title>other</title> <g id="svgstore8f56a6a022c002b61598b4b215630401van"> <path id="svgstore8f56a6a022c002b61598b4b215630401ground" d="M0,24.7L8.3,24h40.7l6.8,0.8H0z"/> <path id="svgstore8f56a6a022c002b61598b4b215630401tyre-front" d="M46.8,15.7c-2.3,0-4.1,1.9-4.1,4.1c0,2.3,1.9,4.1,4.1,4.1c2.3,0,4.1-1.9,4.1-4.1
		C50.9,17.5,49.1,15.7,46.8,15.7z M46.8,22.7c-1.6,0-2.9-1.3-2.9-2.9c0-1.6,1.3-2.9,2.9-2.9c1.6,0,2.9,1.3,2.9,2.9
		C49.7,21.4,48.4,22.7,46.8,22.7z"/> <path id="svgstore8f56a6a022c002b61598b4b215630401tyre-rear" d="M10,15.7c-2.3,0-4.1,1.9-4.1,4.1c0,2.3,1.9,4.1,4.1,4.1s4.1-1.9,4.1-4.1C14.2,17.5,12.3,15.7,10,15.7z
		 M10.1,22.7c-1.6,0-2.9-1.3-2.9-2.9c0-1.6,1.3-2.9,2.9-2.9s2.9,1.3,2.9,2.9C12.9,21.4,11.7,22.7,10.1,22.7z"/> <path id="svgstore8f56a6a022c002b61598b4b215630401body" d="M57.2,16.6c-0.5-0.5-1.3-0.9-1.3-0.9c-0.2-0.5-0.8-1.6-0.8-1.6c-0.4-1.1-1.5-1.4-1.5-1.4
		c-4.6-1.6-8.4-1.8-8.4-1.8l-0.5-0.5l-0.1,0.2l-0.2-0.1l-0.2-0.2l-0.3,0.1c-0.7-0.4-1.3-1.1-1.3-1.1c-4.7-4.4-9.5-6.9-9.5-6.9
		C31,1,28.7,1,28.7,1C11-0.3,5.6,0.1,5.6,0.1C4.4,0.1,4,1.1,4,1.1C2.9,3.8,2.4,7.8,2.4,7.8c-0.3,0-0.4,0-0.4,0
		c0,0.4,0.3,0.5,0.3,0.5C2.1,10.3,2,15.1,2,15.1c-0.4,0.1-0.2,0.7-0.2,0.7l0.3,0l0,1.2c0,0-0.7,0-0.9,0.2C1,17.5,1.3,18,1.3,18
		l0.1,1c0,0,0,0.3,0.3,0.5c0.2,0.1,0.7,0.1,0.7,0.1l0,0.6c0,0,0.6,0,1.4-0.2l1.3,0c0,0,0,0,0,0c0-0.9,0.1-2,0.7-2.8
		c2.2-3.1,6-3,8.1,0c1.2,1.7,0.6,4.6,0.6,4.6h27.5c0,0-0.6-2.9,0.6-4.6c2.2-3,6-3.1,8.1,0c0.8,1.1,0.8,2.8,0.7,3.8c0,0,0,0,0,0
		l0.3,0l0,0.4l2.8-0.1l0-0.5l0.2-0.1c0,0,1.6-0.4,1.9-1.1C56.8,19.7,57.2,19,57.2,16.6L57.2,16.6z M39.4,8l0.1,0.8
		c-0.5,0.5-2.2,3.1-2.2,3.1c-0.3,0-0.5-0.2-0.5-0.2L35.9,11l-0.5-5.6C37.2,6.7,39.4,8,39.4,8z M28.2,4.2l3.8,0.2
		c1.2,0.1,3,0.7,3,0.7l0.6,5.9l-7-0.3l-0.8-6.2C27.7,4.2,28.2,4.2,28.2,4.2z M27.5,12c0.7,0.1,2.2,0.2,2.2,0.2
		c0.5,0,0.6,0.3,0.6,0.3c0.2,0.3-0.4,0.2-0.4,0.2c-0.9-0.3-2-0.1-2-0.1s-0.3,0-0.5-0.1c-0.2,0-0.2-0.1-0.2-0.1
		C27.1,11.9,27.5,12,27.5,12z M3.8,11.7l0,3c0,0.4-0.3,0.4-0.3,0.4C3,15.1,2.8,15,2.8,15c-0.1-2.4,0-4,0-4l0.7,0c0,0,0.2,0,0.3,0.2
		C3.9,11.4,3.8,11.7,3.8,11.7z M40.5,20v0.2l-23.9-0.6l0-0.1h0l0-0.8c0-0.3-0.1-0.7-0.1-0.9c-0.2-1.6-1.8-3.1-1.8-3.1s0-2.7,0-4
		c0,0,0,0,0,0c0,0-10.6-0.2-10.6-0.2s-0.2,0-0.4-0.1C3.6,10.3,3.6,10,3.6,10l11.1,0.2c0,0,0,0,0,0c0-0.2,0-0.3,0-0.3l0.4-8
		c0,0,0-0.2,0.2-0.4c0.2-0.1,0.4-0.1,0.4-0.1l10.5,0.1c0,0,0.2,0,0.4,0.2c0.1,0.1,0.1,0.4,0.1,0.4l-0.1,17.5L40.5,20l-0.2,0
		c0.3-2.8,1.1-3.4,1.1-3.4l0-4.1h0.2l0,4.1C40.6,17.7,40.5,20,40.5,20L40.5,20z M55,15.5c-2.3-0.9-3.6-2-3.6-2
		c-0.9-0.7,0.2-0.7,0.2-0.7c1.3,0.1,2.3,0.5,2.3,0.5C55.4,14.1,55,15.5,55,15.5z M56.5,19.2c-0.3,0.4-0.4,0.2-0.4,0.2
		c-0.7-1,0.3-1.4,0.3-1.4C56.9,17.8,56.5,19.2,56.5,19.2z"/> <path id="svgstore8f56a6a022c002b61598b4b215630401door-rear" d="M26.4,1.8c-0.1-0.1-0.3-0.2-0.3-0.2L15.6,1.6c0,0-0.2,0-0.3,0.1c-0.1,0.1-0.1,0.3-0.1,0.3l-0.4,8.3l0,4.5
		c1.6,1.5,1.7,2.9,1.7,3c0.1,0.5,0.1,0.9,0.1,0.9l0,0.8l9.7,0.2l0.1-17.5C26.5,2.2,26.4,2,26.4,1.8z M16.5,11
		c-0.9,0-0.8-1.1-0.8-1.1L15.9,5c0-1,1-0.9,1-0.9h7.7c1.1-0.1,1.1,0.7,1.1,0.7l0,5.3c0.1,1-0.7,0.9-0.7,0.9L16.5,11z M25.3,12.6
		c-0.9-0.3-2-0.1-2-0.1s-0.3,0-0.5-0.1c-0.2,0-0.2-0.1-0.2-0.1c0-0.5,0.3-0.4,0.3-0.4c0.7,0.1,2.2,0.2,2.2,0.2
		c0.5,0,0.6,0.3,0.6,0.3C25.9,12.6,25.3,12.6,25.3,12.6z"/> <path id="svgstore8f56a6a022c002b61598b4b215630401window-panel" d="M16,5.1l-0.2,4.8c0,0-0.1,1,0.8,1l8.2,0c0,0,0.8,0.1,0.7-0.9l0-5.1c0,0,0-0.8-1-0.7l-7.5,0
		C16.9,4.3,16,4.1,16,5.1z"/> <g id="svgstore8f56a6a022c002b61598b4b215630401alloy-front"> <path d="M46.8,18.8c0.5,0,1,0.4,1,1c0,0.5-0.4,1-1,1c-0.5,0-1-0.4-1-1C45.8,19.3,46.3,18.8,46.8,18.8z"/> <path d="M45.6,16.3l1.3,1.4l1.3-1.4l-1,2.8h-0.6L45.6,16.3z"/> <path d="M50.1,17.8l-1.2,1.5l1.6,1l-2.9-0.5l-0.1-0.6L50.1,17.8z"/> <path d="M43.6,17.8l1.2,1.5l-1.6,1l2.9-0.5l0.1-0.6L43.6,17.8z"/> <path d="M48,23.4l0.1-1.9l1.9,0.3l-2.5-1.5l-0.5,0.4L48,23.4z"/> <path d="M45.5,23.4l-0.1-1.9l-1.9,0.3l2.5-1.5l0.5,0.4L45.5,23.4z"/> </g> <g id="svgstore8f56a6a022c002b61598b4b215630401alloy-rear"> <path d="M10.1,18.8c0.5,0,1,0.4,1,1c0,0.5-0.4,1-1,1s-1-0.4-1-1C9.1,19.3,9.5,18.8,10.1,18.8z"/> <path d="M8.8,16.3l1.3,1.4l1.3-1.4l-1,2.8H9.8L8.8,16.3z"/> <path d="M13.3,17.8l-1.2,1.5l1.6,1l-2.9-0.5l-0.1-0.6L13.3,17.8z"/> <path d="M6.8,17.8L8,19.3l-1.6,1l2.9-0.5l0.1-0.6L6.8,17.8z"/> <path d="M11.3,23.4l0.1-1.9l1.9,0.3l-2.5-1.5l-0.5,0.4L11.3,23.4z"/> <path d="M8.8,23.4l-0.1-1.9l-1.9,0.3l2.5-1.5l0.5,0.4L8.8,23.4z"/> </g> </g>  </symbol><symbol title="icon" viewBox="0 0 48.8 18.2" id="icon-pickup"><title>pickup</title> <g id="svgstore51bc02d2fceed0a87b32b72596aaeb20Vans_x2F_Trucks"> <g id="svgstore51bc02d2fceed0a87b32b72596aaeb20ic_pickup" transform="translate(-1.000000, 0.000000)"> <g id="svgstore51bc02d2fceed0a87b32b72596aaeb20coupe" transform="translate(4.806391, 14.089963)"> <polygon id="svgstore51bc02d2fceed0a87b32b72596aaeb20ground" points="-0.4,4.1 6.2,3.2 39.1,3.2 44.4,4.1 			"/> <g id="svgstore51bc02d2fceed0a87b32b72596aaeb20alloy-front" transform="translate(46.869564, 0.690337)"> <path id="svgstore51bc02d2fceed0a87b32b72596aaeb20Shape" d="M-9.6-1.7c0.4,0,0.8,0.4,0.8,0.8s-0.4,0.8-0.8,0.8s-0.8-0.4-0.8-0.8S-10-1.7-9.6-1.7L-9.6-1.7z"/> <polygon id="svgstore51bc02d2fceed0a87b32b72596aaeb20Shape_1_" points="-10.6,-3.8 -9.6,-2.7 -8.6,-3.8 -9.4,-1.5 -9.8,-1.5 				"/> <polygon id="svgstore51bc02d2fceed0a87b32b72596aaeb20Shape_2_" points="-7,-2.6 -8,-1.3 -6.7,-0.5 -9,-0.9 -9.1,-1.4 				"/> <polygon id="svgstore51bc02d2fceed0a87b32b72596aaeb20Shape_3_" points="-12.2,-2.6 -11.2,-1.3 -12.5,-0.5 -10.2,-0.9 -10.1,-1.4 				"/> <polygon id="svgstore51bc02d2fceed0a87b32b72596aaeb20Shape_4_" points="-8.7,2.1 -8.6,0.5 -7.1,0.7 -9.1,-0.5 -9.5,-0.2 				"/> <polygon id="svgstore51bc02d2fceed0a87b32b72596aaeb20Shape_5_" points="-10.6,2.1 -10.7,0.5 -12.2,0.7 -10.2,-0.5 -9.8,-0.2 				"/> </g> <path id="svgstore51bc02d2fceed0a87b32b72596aaeb20tyre-front" d="M37.3-3.7c-1.8,0-3.3,1.5-3.3,3.4s1.5,3.4,3.3,3.4c1.8,0,3.3-1.5,3.3-3.4S39.1-3.7,37.3-3.7L37.3-3.7z
				 M37.3,2.2C36,2.2,35,1.1,35-0.2s1-2.4,2.3-2.4c1.3,0,2.3,1.1,2.3,2.4C39.5,1.1,38.5,2.2,37.3,2.2L37.3,2.2z"/> <g id="svgstore51bc02d2fceed0a87b32b72596aaeb20alloy-rear" transform="translate(6.957798, 0.690337)"> <path id="svgstore51bc02d2fceed0a87b32b72596aaeb20Shape_6_" d="M0.7-1.7c0.4,0,0.8,0.4,0.8,0.8S1.1-0.1,0.7-0.1s-0.8-0.4-0.8-0.8S0.3-1.7,0.7-1.7L0.7-1.7z"/> <polygon id="svgstore51bc02d2fceed0a87b32b72596aaeb20Shape_7_" points="-0.3,-3.8 0.7,-2.7 1.7,-3.8 0.9,-1.5 0.5,-1.5 				"/> <polygon id="svgstore51bc02d2fceed0a87b32b72596aaeb20Shape_8_" points="3.3,-2.6 2.4,-1.3 3.6,-0.5 1.3,-0.9 1.2,-1.4 				"/> <polygon id="svgstore51bc02d2fceed0a87b32b72596aaeb20Shape_9_" points="-1.9,-2.6 -0.9,-1.3 -2.2,-0.5 0.1,-0.9 0.2,-1.4 				"/> <polygon id="svgstore51bc02d2fceed0a87b32b72596aaeb20Shape_10_" points="1.6,2.1 1.7,0.5 3.2,0.7 1.2,-0.5 0.8,-0.2 				"/> <polygon id="svgstore51bc02d2fceed0a87b32b72596aaeb20Shape_11_" points="-0.3,2.1 -0.4,0.5 -1.9,0.7 0.1,-0.5 0.5,-0.2 				"/> </g> <path id="svgstore51bc02d2fceed0a87b32b72596aaeb20tyre-rear" d="M7.6-3.7c-1.8,0-3.3,1.5-3.3,3.4s1.5,3.4,3.3,3.4s3.3-1.5,3.3-3.4S9.4-3.7,7.6-3.7L7.6-3.7z M7.7,2.2
				c-1.3,0-2.3-1.1-2.3-2.4s1-2.4,2.3-2.4c1.3,0,2.3,1.1,2.3,2.4C9.9,1.1,8.9,2.2,7.7,2.2L7.7,2.2z"/> </g> <path id="svgstore51bc02d2fceed0a87b32b72596aaeb20Combined-Shape" d="M18.5,13.2l19.9,0.1c0,0,0.2-3.4,4-3.3c2.3,0.1,3.2,2.4,3.2,2.8v0.4v0.5h1.7l0.2-0.7l1.4-0.8
			c0,0,0.4-1.8,0.3-2.6l-0.3-0.4c0,0,0.1-0.9-0.1-1.7c-0.2-0.8-0.6-1.2-0.8-1.4c-0.2-0.1-2.9-0.9-5.2-1.1s-5.2-0.5-5.2-0.5
			s-1.7-1-3.3-1.9c-1.3-0.7-2.7-1.4-2.9-1.5C31,1,30.7,0.5,29.8,0.4C28.4,0.2,26.8,0,24.5,0s-4.2,0.2-4.9,0.2s-1.4,0.6-1.4,0.6
			S18,0.8,17.6,1c-0.4,0.2-0.7,2.8-0.7,3.4S17,4.9,17,5.3c0,0.4,0.1,2.6,0.3,4.1s0.5,3.3,0.8,3.6C18.4,13.2,18.5,13.2,18.5,13.2z
			 M34.2,3.7c0,0-2.5-1.7-3.8-1.9c-1.3-0.3-3.4-0.4-3.4-0.4l0.3,3.7l6.3,0.2c0,0-0.1,0-0.1-0.2s0.1-1.1,0.1-1.2
			c0-0.1,0.2-0.2,0.2-0.2L34.2,3.7z M25.3,5l0-3.7l-6,0.2l0,3.1c0,0,0.7,0.3,1.7,0.3C22.1,4.9,25.3,5,25.3,5z M27.6,7.3
			c0,0-0.2,0-0.4-0.1C27.1,7.1,27,7,27,7c0-0.6,0.3-0.5,0.3-0.5C27.8,6.7,29,6.7,29,6.7c0.4,0,0.4,0.4,0.4,0.4
			c0,0.4-0.3,0.3-0.3,0.3C28.5,7,27.6,7.3,27.6,7.3z M19.2,6.9c0,0-0.2,0-0.4-0.1c-0.1-0.1-0.2-0.2-0.2-0.2c0-0.6,0.3-0.5,0.3-0.5
			c0.5,0.2,1.7,0.2,1.7,0.2c0.4,0,0.4,0.4,0.4,0.4c0,0.4-0.3,0.3-0.3,0.3C20,6.7,19.2,6.9,19.2,6.9z M48.6,8.3c0,0,0.1-0.6,0-1
			c-0.1-0.4-0.2-0.5-0.2-0.5l-1.9,0L46.2,7v0.1c0,0,0.8,0.9,1.1,1C47.6,8.3,48.6,8.3,48.6,8.3z M48,11.7l-0.1-0.8l0.9-0.1
			c0,0,0,0.4,0,0.5c0,0.2-0.1,0.4-0.1,0.4L48,11.7z M26.4,5.3v3.9c0,0.5-0.2,3.4-0.2,3.4s8.6,0.1,9,0c0.4-0.1,0.7-0.4,0.8-0.9
			s0.4-2.1,0.5-3.6c0.1-1.5-0.2-2.4-0.2-2.4l0.1,0c0,0,0.3,0.7,0.2,2.4c-0.1,1.7-0.5,3.7-0.5,3.7s-0.1,0.9-0.9,1c-0.9,0.1-9,0-9,0
			l-6.7,0c0,0-0.5,0-0.7-0.2c-0.2-0.2-0.3-0.4-0.4-1.1S17.8,8,17.8,6.6s0.1-2.2,0.1-2.2l0.1,0c0,0-0.1,1.2-0.1,2.2s0.6,4.7,0.6,4.7
			s0.2,0.9,0.4,1c0.2,0.1,0.3,0.1,0.7,0.2c0.4,0,6.5,0,6.5,0s0.2-2,0.2-3.4c0-1.4,0-3.9,0-3.9L26.4,5.3z M18,13.1c0,0-0.7-1.5-1-4.3
			S16.8,5,16.8,5L2.2,4.9c0,0-0.1,0.1-0.2,0.4S1.9,5.9,1.9,5.9S1.8,7,2,8.5s0.3,1.8,0.3,1.8l-0.7,0.3c0,0-0.1,0.8,0.4,1.2
			c0.5,0.4,1.4,0.6,1.4,0.6l0-0.2l0.4-0.1H4l-0.2,0.2H3.5l-0.1,0.1l0,0.7l0.1,0.1l0.7,0c0,0,0-0.2,0.3-0.3c0.3-0.1,1.2-0.5,1.2-0.5
			l0.6,0L8.8,13c0,0,0.4-1,0.4-1c0.4-0.7,1.6-1.9,3.3-1.9s2.6,1.3,2.8,1.5c0.7,1.1,0.7,1.6,0.7,1.6h1L18,13.1z M2.3,9.8
			c0,0-0.2-1.3-0.3-2.2C2,6.8,2,5.9,2,5.9l0.9,0c0,0,0.2,0,0.3,0.1c0.1,0.2,0.1,0.4,0.1,0.4s0.1,1.8,0.1,2.1c0,0.2-0.4,0.9-0.5,1
			C2.8,9.6,2.6,9.9,2.6,9.9L2.3,9.8z M2.6,4.8l0.5-0.3l5.7,0c0,0,4.2,0,4.4,0S14,3.4,14,3.4s0.8-1.9,1.2-2.2s2.1-0.6,2.1-0.6
			l0.2,0.1c0,0-0.2,0.1-0.4,0.5c-0.2,0.5-0.5,2.7-0.5,3.1c0,0.4,0.1,0.5,0.1,0.5L2.6,4.8z M18.3,13.4c0,0-0.1,0.2,0,0.5
			c0.2,0.3,0.9,0.4,0.9,0.4l17,0.1c0,0,0.6-0.1,0.7-0.4c0.1-0.3,0.1-0.5,0.1-0.5L18.3,13.4z"/> </g> </g> <path fill="#FFFFFF" d="M33.2,3.7c0,0-2.5-1.7-3.8-1.9c-1.3-0.3-3.4-0.4-3.4-0.4l0.3,3.7l6.3,0.2c0,0-0.1,0-0.1-0.2s0.1-1.1,0.1-1.2
	c0-0.1,0.2-0.2,0.2-0.2L33.2,3.7z"/> <path fill="#FFFFFF" d="M24.3,5l0-3.7l-6,0.2l0,3.1c0,0,0.7,0.3,1.7,0.3C21.1,4.9,24.3,5,24.3,5z"/> <path fill="#FFFFFF" d="M47.6,8.3c0,0,0.1-0.6,0-1c-0.1-0.4-0.2-0.5-0.2-0.5l-1.9,0L45.2,7v0.1c0,0,0.8,0.9,1.1,1
	C46.6,8.3,47.6,8.3,47.6,8.3z"/> </symbol><symbol title="icon" viewBox="0 0 16 16" id="icon-plus-icon"><title>plus-icon</title> <g id="svgstore2dad31c76b9cfc23d161110cfab5730aadd"> <path id="svgstore2dad31c76b9cfc23d161110cfab5730aX" style="fill-rule:evenodd;clip-rule:evenodd;fill:#267EC8;" d="M8,0C3.582,0,0,3.582,0,8s3.582,8,8,8
		s8-3.582,8-8S12.418,0,8,0z M13,9H9v4H7V9H3V7h4V3h2v4h4V9z"/> </g> </symbol><symbol title="icon" viewBox="94 31.5 42 42" id="icon-price"><title>price</title> <path id="svgstorea1b7d7f8c5b71aa356cb59e26bd24a64price-icon" d="M115,31.5c-11.598,0-21,9.402-21,21s9.402,21,21,21s21-9.402,21-21S126.598,31.5,115,31.5z M121.062,62.479
	c-0.705,0.353-1.453,0.524-2.244,0.524c-0.578,0-1.551-0.229-2.916-0.688c-1.366-0.459-2.445-0.688-3.236-0.688
	c-0.734,0-1.43,0.13-2.085,0.393c-0.386,0.157-0.884,0.43-1.491,0.809l-1.433-2.127c1.091-0.789,1.969-1.66,2.635-2.614
	s0.999-1.989,0.999-3.108c0-0.318-0.062-0.691-0.188-1.123c-0.078-0.271-0.209-0.64-0.393-1.106h-3.199v-1.56h2.272
	c0,0.052-0.162-0.262-0.485-0.937c-0.322-0.674-0.537-1.166-0.646-1.476c-0.096-0.291-0.178-0.627-0.244-1.012
	c-0.068-0.386-0.104-0.797-0.104-1.236c0-1.557,0.613-2.952,1.84-4.188c1.227-1.232,2.981-1.85,5.271-1.85
	c2.15,0,3.781,0.607,4.886,1.826c1.105,1.22,1.673,2.941,1.701,5.168h-2.678c0-1.508-0.341-2.652-1.021-3.438
	c-0.681-0.783-1.717-1.176-3.104-1.176c-1.353,0-2.375,0.367-3.069,1.102c-0.693,0.733-1.042,1.625-1.042,2.674
	c0,0.521,0.108,1.055,0.326,1.604c0.217,0.549,0.678,1.527,1.383,2.938h4.749v1.558h-4.098c0.096,0.459,0.167,0.817,0.21,1.078
	s0.063,0.528,0.063,0.81c0,0.999-0.289,1.985-0.869,2.958c-0.578,0.976-1.484,1.938-2.722,2.897c0.666-0.35,1.323-0.625,1.97-0.831
	c0.646-0.204,1.278-0.308,1.896-0.308c0.695,0,1.613,0.178,2.758,0.531s1.896,0.532,2.251,0.532c0.454,0,0.869-0.09,1.246-0.271
	c0.229-0.109,0.583-0.34,1.058-0.688l1.203,2.021C121.971,61.925,121.488,62.26,121.062,62.479z"/> </symbol><symbol title="icon" viewBox="0 0 59.7 19.9" id="icon-saloon"><title>saloon</title> <g id="svgstored3172c1d08800e7cb54e960d7aa6ca8bsaloon"> <path id="svgstored3172c1d08800e7cb54e960d7aa6ca8bground" d="M2.1,19.9l8.2-0.7h40.9l6.7,0.7H2.1z"/> <g id="svgstored3172c1d08800e7cb54e960d7aa6ca8balloy-front"> <path d="M48.9,14.1c0.5,0,1,0.4,1,1c0,0.5-0.4,1-1,1c-0.5,0-1-0.4-1-1C47.9,14.5,48.4,14.1,48.9,14.1z"/> <path d="M47.7,11.6l1.2,1.4l1.2-1.4l-0.9,2.8h-0.6L47.7,11.6z"/> <path d="M52.1,13.1L51,14.6l1.6,1l-2.9-0.4l-0.1-0.6L52.1,13.1z"/> <path d="M45.7,13.1l1.1,1.5l-1.6,1l2.9-0.4l0.1-0.6L45.7,13.1z"/> <path d="M50.1,18.6l0.1-1.9L52,17l-2.5-1.5L49,15.9L50.1,18.6z"/> <path d="M47.6,18.6l-0.1-1.9L45.7,17l2.5-1.5l0.5,0.4L47.6,18.6z"/> </g> <path id="svgstored3172c1d08800e7cb54e960d7aa6ca8btyre-front" d="M48.9,11c-2.3,0-4.1,1.8-4.1,4.1c0,2.3,1.8,4.1,4.1,4.1c2.3,0,4.1-1.8,4.1-4.1C53,12.8,51.2,11,48.9,11z
		 M48.9,17.9c-1.6,0-2.8-1.3-2.8-2.8c0-1.6,1.3-2.8,2.8-2.8s2.8,1.3,2.8,2.8C51.7,16.6,50.5,17.9,48.9,17.9z"/> <g id="svgstored3172c1d08800e7cb54e960d7aa6ca8balloy-rear"> <path d="M12.1,14.1c0.5,0,1,0.4,1,1c0,0.5-0.4,1-1,1s-1-0.4-1-1C11.1,14.5,11.5,14.1,12.1,14.1z"/> <path d="M10.9,11.6l1.2,1.4l1.2-1.4l-0.9,2.8h-0.6L10.9,11.6z"/> <path d="M15.3,13.1l-1.1,1.5l1.6,1l-2.9-0.4l-0.1-0.6L15.3,13.1z"/> <path d="M8.9,13.1l1.1,1.5l-1.6,1l2.9-0.4l0.1-0.6L8.9,13.1z"/> <path d="M13.3,18.6l0.1-1.9l1.8,0.3l-2.5-1.5l-0.5,0.4L13.3,18.6z"/> <path d="M10.8,18.6l-0.1-1.9L8.9,17l2.5-1.5l0.5,0.4L10.8,18.6z"/> </g> <path id="svgstored3172c1d08800e7cb54e960d7aa6ca8btyre-rear" d="M12,11C9.8,11,8,12.8,8,15.1c0,2.3,1.8,4.1,4.1,4.1s4.1-1.8,4.1-4.1C16.1,12.8,14.3,11,12,11z M12.1,17.9
		c-1.6,0-2.8-1.3-2.8-2.8c0-1.6,1.3-2.8,2.8-2.8s2.8,1.3,2.8,2.8C14.9,16.6,13.7,17.9,12.1,17.9z"/> <path id="svgstored3172c1d08800e7cb54e960d7aa6ca8bbody" d="M59.4,13.3c0-0.4,0.3-0.5,0.3-0.5c-0.3-2.5-2.1-4-2.1-4c-0.7-0.5-3.1-1.2-5.4-1.8c-3.2-0.8-6.4-1.3-6.4-1.3
		S44.3,5.1,42,4.1c-2.2-1-5.3-2.3-8-3.1c-3.4-1-7-0.9-7-0.9s-2.5,0-4.7,0.1c-2,0.1-3.7,0.4-3.7,0.4s-0.1-0.1-0.2-0.1
		c-0.4,0-1.2,0-1.2,0s0,0.4,0,0.4c0,0-3.1,0.8-5.7,1.6C8.8,3.1,6.8,3.9,6.8,3.9S5.6,4.4,4.2,4.6C2.9,4.8,1.7,4.7,1.7,4.7
		S1.4,4.6,1.5,5.2c0.1,0.2,0.4,0.6,0.4,0.6S1.5,6,1.3,6.9c-0.2,0.8-0.2,2-0.2,2c-0.6,0.9-1,1.2-1,1.2c-0.2,0.4-0.1,1.1,0,1.6
		c0,0.3,0.2,0.4,0.2,0.4s0,0.4,0,0.6c0,0.2-0.2,0.3-0.2,0.3s0.1,0.6,0.4,0.9c0.1,0.1-0.1,0.3-0.1,0.3L0.8,15l1.1,0.1
		c2.4,0.4,4.3,0.6,4.3,0.6l1.3,1.2c0,0-0.7-2.9,0.6-4.6c2.1-2.9,6.2-3,8.3,0c0.9,1.2,0.7,3.2,0.6,4.1c0,0,0,0.1,0,0.1l27.4,0.4
		c0,0-0.7-2.8,0.5-4.6c1.1-1.5,2.7-2.2,4.4-2.2c1.6,0,3.1,0.8,4.1,2.2c1.1,1.6,0.4,4.5,0.4,4.5c2.3,0.1,6-1,6-1
		c0-0.2-0.2-0.6-0.2-0.6S59.4,14,59.4,13.3z M5.2,7.3C4.6,7.6,2.5,8.4,2.5,8.4C2,7.7,2.4,6.6,2.4,6.6c0.4-0.6,1.1-0.5,1.1-0.5
		C5.1,6,5.3,6.5,5.3,6.5C6.1,7,5.2,7.3,5.2,7.3z M29.3,1.1c1.2,0.1,2.4,0.3,2.4,0.3s4.9,1,7.8,2.8c0,0-1.1,0.2-0.2,2.2L29,5.6
		L27.4,1C27.4,1,28.3,1,29.3,1.1z M31.2,7.9c-0.8-0.3-2-0.1-2-0.1s-0.3,0-0.5-0.1c-0.2,0-0.2-0.1-0.2-0.1c0-0.5,0.3-0.4,0.3-0.4
		C29.5,7.4,31,7.4,31,7.4c0.5,0,0.6,0.3,0.6,0.3C31.8,7.9,31.2,7.9,31.2,7.9z M17.7,1.7c0,0,1.5-0.3,3.2-0.4c2.3-0.2,5-0.3,5-0.3
		l0.3,4.3c0,0-6.3-0.2-10-0.5l-0.2-1.2L17.7,1.7z M17,6.8c-0.8-0.3-2-0.1-2-0.1s-0.3,0-0.5-0.1c-0.2,0-0.2-0.1-0.2-0.1
		c0-0.5,0.3-0.4,0.3-0.4c0.7,0.1,2.2,0.2,2.2,0.2c0.5,0,0.6,0.3,0.6,0.3C17.6,6.8,17,6.8,17,6.8z M11.8,4.4c-0.4-0.1-0.8-0.4-1-0.6
		c-0.1-0.1,0.1-0.1,0.1-0.1s2.4-1,5.9-1.8l-2.8,3C14,4.8,12.6,4.7,11.8,4.4z M42.6,16.1l-21.3-1v0c0,0-0.7,0-1.8-0.8
		c0,0-1.6-1.8-3.5-3.6c-0.6-0.6-1.3-1.2-2-1.8c-0.6-0.5-1.1-1-1.3-1.4c-0.1-0.3-0.1-0.5-0.2-0.8c0-0.5,0.7-1.3,0.7-1.3l0.1-0.1
		l0,0.1c0,0-0.5,0.5-0.7,1.1c-0.1,0.4,0.1,0.9,0.1,0.9S13,7.7,13.4,8c0.2,0.2,0.5,0.5,0.8,0.7c0.6,0.5,1.5,1.3,1.9,1.7
		c2,2,3.7,3.8,3.7,3.8s1,0.6,1.6,0.6v0l6.5,0.3l-0.1,0c0,0,0.2-4.3-0.1-7.6c0,0,0-0.7-0.2-1.5h0.1c0,0,0.2,0.8,0.2,1.4
		c0,0,0.3,3.4,0.1,7.7l14.7,0.7L42.6,16.1z M43.5,11.3c-0.3,2.3-0.8,4.6-0.8,4.6l-0.2,0c0,0,0.5-2.3,0.9-4.6
		c0.3-2.2-0.7-4.2-0.7-4.2l0.1,0C42.8,7.1,43.8,9.1,43.5,11.3z M54.1,8.8c1.3,0.1,2.3,0.5,2.3,0.5c1.4,0.8,1,2.2,1,2.2
		c-2.2-0.9-3.5-2-3.5-2C53,8.8,54.1,8.8,54.1,8.8z M58,14.9c-0.3,0.4-0.4,0.2-0.4,0.2c-0.7-1,0.3-1.4,0.3-1.4
		C58.4,13.5,58,14.9,58,14.9z"/> </g>  </symbol><symbol title="icon" viewBox="93.996 31.5 42 42" id="icon-seats"><title>seats</title> <path id="svgstore6cdbe250417788beccc04e9f05d212e8seats-icon" d="M114.996,31.5c-11.598,0-21,9.402-21,21s9.402,21,21,21c11.6,0,21-9.402,21-21S126.593,31.5,114.996,31.5z
	 M125.854,59.568c-0.457,0.523-1.271,0.595-1.815,0.156l-2.436-1.953l-0.302,0.109c0.002,0,0.007,0,0.007,0.002
	c0.012,0.035,0.637,1.936-0.5,4.027l-1.843,3.391c-0.332,0.608-1.11,0.846-1.742,0.525c-0.632-0.316-0.877-1.066-0.548-1.676
	l1.475-2.709c0.937-1.721,0.252-2.493,0.252-2.493s-1.23-0.401-3.503-0.401c-2.274,0-3.505,0.401-3.505,0.401
	s-0.683,0.772,0.252,2.493l1.475,2.709c0.33,0.607,0.086,1.355-0.545,1.676c-0.633,0.32-1.413,0.083-1.743-0.525l-1.845-3.391
	c-1.137-2.096-0.512-3.992-0.5-4.027c0.003-0.002,0.005-0.002,0.009-0.002l-0.302-0.109l-2.435,1.953
	c-0.546,0.438-1.359,0.371-1.816-0.156c-0.457-0.526-0.383-1.311,0.164-1.748l1.468-1.18c1.757-1.508,2.188-3.894,2.188-3.894
	s0.617-2.376,1.271-4.733c0.653-2.357,2.307-2.916,3.016-3.283c0.708-0.366,1.444-0.828,1.444-1.222
	c0-0.393-0.416-0.702-0.416-0.702l0.004-0.002c-0.759-0.537-1.251-1.397-1.251-2.371c0-1.629,1.374-2.949,3.066-2.949
	s3.066,1.32,3.066,2.949c0,0.974-0.492,1.834-1.251,2.371l0.004,0.002c0,0-0.416,0.311-0.416,0.702s0.734,0.854,1.444,1.222
	c0.125,0.063,0.279,0.137,0.455,0.222c0.031-0.052,0.064-0.103,0.113-0.146l3.467-3.375c0.297-0.289,0.779-0.293,1.081-0.009
	c0.299,0.285,0.303,0.75,0.006,1.038l-3.413,3.322c0.521,0.478,1.014,1.172,1.308,2.229c0.651,2.358,1.271,4.734,1.271,4.734
	s0.432,2.386,2.189,3.893l1.467,1.18C126.236,58.26,126.311,59.042,125.854,59.568z"/> <path id="svgstore6cdbe250417788beccc04e9f05d212e8seatbelt" d="M120.842,56.969c-0.248,0.326-0.725,0.397-1.063,0.16l0,0c-0.021-0.011-0.062-0.033-0.131-0.064
	c-0.14-0.062-0.379-0.154-0.75-0.254c-0.739-0.193-2.005-0.406-3.999-0.403c-3.492,0-4.738,0.646-4.88,0.726l0,0
	c-0.133,0.092-0.291,0.143-0.451,0.143c-0.077,0-0.155-0.014-0.231-0.037c-0.232-0.072-0.416-0.247-0.49-0.471l-0.613-1.812
	c-0.09-0.264-0.018-0.553,0.188-0.747l8.657-8.284c0.297-0.285,0.78-0.283,1.079,0.003c0.299,0.287,0.295,0.751-0.002,1.038
	l-8.326,7.967l0.207,0.606c0.846-0.281,2.358-0.597,4.866-0.597c4.208,0,5.612,0.89,5.778,1.008
	C121.017,56.182,121.092,56.641,120.842,56.969z"/> </symbol><symbol title="icon" viewBox="0 0 58.5 24" id="icon-suv"><title>suv</title> <g id="svgstore084fe8244c54e9687f1d1ace2f613a36suv"> <path id="svgstore084fe8244c54e9687f1d1ace2f613a36ground" d="M0,24l8-0.7h43.2l6.6,0.7H0z"/> <path id="svgstore084fe8244c54e9687f1d1ace2f613a36tyre-front" d="M48,13.1c-2.8,0-5.1,2.3-5.1,5.1s2.3,5.1,5.1,5.1s5.1-2.3,5.1-5.1C53.1,15.4,50.8,13.1,48,13.1z M48,21.7
		c-1.9,0-3.5-1.6-3.5-3.5c0-2,1.6-3.5,3.5-3.5c2,0,3.5,1.6,3.5,3.5C51.5,20.1,49.9,21.7,48,21.7z"/> <path id="svgstore084fe8244c54e9687f1d1ace2f613a36tyre-rear" d="M10.5,13.1c-2.8,0-5.1,2.3-5.1,5.1s2.3,5.1,5.1,5.1s5.1-2.3,5.1-5.1C15.5,15.4,13.3,13.1,10.5,13.1z
		 M10.4,21.7c-1.9,0-3.5-1.6-3.5-3.5c0-2,1.6-3.5,3.5-3.5s3.5,1.6,3.5,3.5C14,20.1,12.4,21.7,10.4,21.7z"/> <path id="svgstore084fe8244c54e9687f1d1ace2f613a36body" d="M58.5,14.1c0-0.6-0.8-1.6-0.8-1.6s-0.2-1-0.5-1.8c-0.5-1.2-1-1.4-1-1.4s-3.1-1-6.3-1.7C46.4,7,43,6.9,43,6.9
		C33.2,0,32.1,0.4,32.1,0.4S25.9-0.1,19.5,0C13,0.2,6.3,1,6.3,1s0.2,0.2,0.4,0.4c0.1,0.1,0.6,0,0.3,0.3C5.5,3,3.7,5.1,2.8,6.1
		C2.7,6.2,2.4,6.3,2.2,6.4C2.1,6.6,2,6.7,2,6.7S1.6,7.3,1.5,8c-0.1,0.6,0,1.2,0,1.2s0,1.6-0.3,2.3C1,12,0.7,12.2,0.5,12.5
		c-0.2,0.5-0.1,0.9-0.1,0.9l-0.2,0.3L0.4,15c0.5,2.3,0.7,2.5,1.8,2.9c0.7,0.3,2.4,0.2,2.4,0.2s-0.3-2.4,1.9-4.3
		c2.1-1.9,6.2-2.1,8.4,0.6c1.8,2.2,1.2,5,1.2,5l26.2,1c0,0-1-3.2,0.6-5.5c2.3-3.4,7.4-3.4,9.6-0.4c2.1,2.7,1,5.4,1,5.4l-0.1,0.5
		c0,0,2.1,0,3.2-0.2c1.2-0.2,0.4-0.4,0.4-0.4c1.2-0.1,1.4-2.4,1.4-2.4S58.6,15.4,58.5,14.1z M5.3,7.8C4.7,8.2,2.6,8.9,2.6,8.9
		C2.1,8.2,2.5,7.2,2.5,7.2c0.4-0.6,1.1-0.5,1.1-0.5C5.1,6.6,5.4,7,5.4,7C6.2,7.5,5.3,7.8,5.3,7.8z M28.7,1.2c1,0.1,2.1,0.3,2.1,0.3
		c4.3,0.8,8.6,4.6,8.6,4.6c-1.3-0.1-0.7,1.3-0.7,1.3L26.9,6.5L26.5,1C26.5,1,27.6,1.1,28.7,1.2z M29.3,8.8c-0.8-0.3-1.9-0.1-1.9-0.1
		s-0.3,0-0.5-0.1c-0.2,0-0.2-0.1-0.2-0.1c0-0.5,0.3-0.4,0.3-0.4c0.7,0.1,2.1,0.2,2.1,0.2c0.5,0,0.5,0.3,0.5,0.3
		C29.9,8.9,29.3,8.8,29.3,8.8z M19.7,0.9c2.6-0.1,5.4,0,5.4,0l0,5.5c0,0-8.1-0.4-12.1-0.5c0,0,0.4-1,1-2.2c0.6-1.2,1.3-2.5,1.3-2.5
		S17.4,1,19.7,0.9z M15.5,8.1C14.6,7.8,13.5,8,13.5,8s-0.3,0-0.5-0.1c-0.2,0-0.2-0.1-0.2-0.1c0-0.5,0.3-0.4,0.3-0.4
		c0.7,0.1,2.1,0.2,2.1,0.2c0.5,0,0.5,0.3,0.5,0.3C16,8.1,15.5,8.1,15.5,8.1z M7.9,5.8c0,0-0.3,0-0.5,0C7.3,5.7,7.2,5.6,7.2,5.6
		L6.8,5.3c0,0-0.1-0.2-0.1-0.3c0-0.2,0.1-0.3,0.1-0.3S8.3,3.2,10,2.2c1.2-0.7,2.3-0.7,2.3-0.7L14,1.4L11.6,6L7.9,5.8z M40,18.7
		l-22.1-0.8l0-0.1c0,0-0.2-4.9-4.7-6.4c-1-0.3-1-0.5-1.2-1.2c-0.5-1.4-0.5-2.2-0.5-2.2c0-0.2,0.1-0.5,0.1-0.5c0,0,0.1,0,0.1,0
		l-0.1,0.5c0,0.2,0.1,1.2,0.5,2.2c0.2,0.5,0.2,0.9,1.1,1.1c4.6,1.4,4.8,6.6,4.8,6.6l0,0l7.7,0.3c0.2-0.8,0.3-2.2,0.3-2.2
		s0.2-2,0-5.6c-0.1-1-0.1-1.5-0.1-1.8l0,0.1c0,0,0-0.6,0-0.1l0,0L26,8.4c0,0-0.1-1.3,0.2,1.8c0.2,2.8,0.1,5.5,0.1,5.5
		c-0.1,0.9-0.3,2.2-0.3,2.2L40,18.5L40,18.7z M40.8,14c-0.3,2.2-0.8,4.5-0.8,4.5l-0.2,0c0,0,0.5-2.3,0.8-4.5
		c0.3-2.1,0.4-4.2,0.4-4.2l0.1,0C41.2,9.7,41.1,11.8,40.8,14z M53,10.1c-0.9-0.7,0.2-0.7,0.2-0.7c1.3,0.1,2.3,0.4,2.3,0.4
		c1.3,0.8,1,2.2,1,2.2C54.3,11.2,53,10.1,53,10.1z M56.9,19.1c-0.3,0.4-0.4,0.2-0.4,0.2c-0.7-1,0.3-1.4,0.3-1.4
		C57.3,17.7,56.9,19.1,56.9,19.1z"/> <g id="svgstore084fe8244c54e9687f1d1ace2f613a36alloy-front"> <path d="M48,17c0.7,0,1.2,0.5,1.2,1.2s-0.5,1.2-1.2,1.2s-1.2-0.5-1.2-1.2S47.3,17,48,17z"/> <path d="M46.4,13.8l1.5,1.7l1.5-1.7l-1.2,3.4h-0.8L46.4,13.8z"/> <path d="M52,15.7l-1.4,1.8l2,1.2l-3.6-0.6l-0.1-0.7L52,15.7z"/> <path d="M44,15.7l1.4,1.8l-2,1.2l3.6-0.6l0.1-0.7L44,15.7z"/> <path d="M49.4,22.6l0.1-2.3l2.3,0.3l-3.1-1.9l-0.6,0.5L49.4,22.6z"/> <path d="M46.4,22.6l-0.1-2.3L44,20.6l3.1-1.9l0.6,0.5L46.4,22.6z"/> </g> <g id="svgstore084fe8244c54e9687f1d1ace2f613a36alloy-rear"> <path d="M8.8,22.6l-0.1-2.3l-2.3,0.3l3.1-1.9l0.6,0.5L8.8,22.6z"/> <path d="M10.4,17c0.7,0,1.2,0.5,1.2,1.2s-0.5,1.2-1.2,1.2s-1.2-0.5-1.2-1.2S9.8,17,10.4,17z"/> <path d="M8.9,13.8l1.5,1.7l1.5-1.7l-1.2,3.4h-0.8L8.9,13.8z"/> <path d="M14.4,15.7L13,17.5l2,1.2l-3.6-0.6l-0.1-0.7L14.4,15.7z"/> <path d="M6.5,15.7l1.4,1.8l-2,1.2l3.6-0.6l0.1-0.7L6.5,15.7z"/> <path d="M11.9,22.6l0.1-2.3l2.3,0.3l-3.1-1.9l-0.6,0.5L11.9,22.6z"/> </g> </g>  </symbol><symbol title="icon" viewBox="94 31.5 42 42" id="icon-transmission"><title>transmission</title> <path id="svgstore065b47dea957034bd35325917760dc51gearbox-icon" d="M115,31.5c-11.598,0-21,9.402-21,21s9.402,21,21,21s21-9.402,21-21S126.598,31.5,115,31.5z
	 M128.152,59.07c0,0.971,0,2.27-1.344,2.27c-1.347,0-1.312-1.299-1.312-2.27v-2.646c0-1.449-1.176-2.625-2.625-2.625h-0.006
	c-1.45,0-2.625,1.176-2.625,2.625v2.646c0,0.971,0,2.27-1.312,2.27c-1.31,0-1.312-1.299-1.312-2.27v-2.646
	c0-0.725-0.257-1.343-0.771-1.855c-0.512-0.512-1.132-0.77-1.854-0.77h-0.007c-0.726,0-1.346,0.258-1.856,0.77
	c-0.513,0.515-0.771,1.133-0.771,1.855v2.646c0,0.726,0.014,2.27-1.313,2.27c-1.328,0-1.3-1.544-1.3-2.27V56.43
	c0-0.726-0.258-1.345-0.771-1.855c-0.514-0.516-1.134-0.771-1.861-0.77l-2.618,0.006c-0.726,0.002-1.347-0.254-1.859-0.767
	s-0.771-1.132-0.771-1.858v-5.22c0-0.971,0-2.271,1.312-2.271s1.312,1.3,1.312,2.271v2.584c0,0.726,0.257,1.343,0.77,1.856
	c0.514,0.513,1.131,0.769,1.855,0.769h0.017c0.728,0,1.345-0.256,1.854-0.769c0.514-0.514,0.771-1.131,0.771-1.856v-2.59
	c0-0.724,0.004-2.272,1.304-2.272c1.299,0,1.303,1.549,1.303,2.272v2.59c0,1.45,1.176,2.625,2.625,2.625h0.008
	c1.449,0,2.625-1.175,2.625-2.625v-2.59c0-0.971,0.006-2.271,1.312-2.271c1.305,0,1.312,1.299,1.312,2.271v2.59
	c0,0.726,0.257,1.343,0.771,1.856c0.514,0.513,1.133,0.769,1.856,0.769h0.006c0.728,0,1.344-0.256,1.854-0.769
	c0.513-0.514,0.771-1.131,0.771-1.856v-2.59c0-0.724,0.039-2.272,1.304-2.272c1.266,0,1.354,1.549,1.354,2.272v13.11H128.152z"/> </symbol><symbol title="icon" viewBox="94.009 31.5 41.99 42" id="icon-zero-to-60"><title>zero-to-60</title> <path id="svgstore7d5cfe824725afe38acf6f89857e9e8bspeedo" d="M115.005,31.5c-11.599,0-21.001,9.402-21.001,21s9.402,21,21.001,21c11.601,0,20.999-9.402,20.999-21
	S126.604,31.5,115.005,31.5z M119.516,65.195c0,0.438-0.348,0.795-0.771,0.795h-7.477c-0.429,0-0.771-0.355-0.771-0.795v-1.45
	c0-0.438,0.346-0.794,0.771-0.794h7.477c0.426,0,0.771,0.355,0.771,0.794V65.195z M125.609,63.805l-2.372-2.438
	c0.168-0.172,0.322-0.357,0.479-0.541l1.031,1.014c0,0,0.004-0.007,0.006-0.008L125.6,62.7c2.194-2.502,3.467-5.66,3.637-9.026
	h-1.854c0,0.006-0.002,0.012-0.002,0.02l-0.768,0.009c0.02-0.269,0.039-0.527,0.039-0.798c0-0.264-0.021-0.519-0.039-0.774
	l0.768-0.004c0,0.003,0.002,0.006,0.002,0.009h1.854c-0.168-3.365-1.438-6.521-3.637-9.025l-1.172,1.205l-0.754,0.621
	c-0.144-0.166-0.28-0.334-0.435-0.492c-0.166-0.17-0.344-0.326-0.521-0.484l0.496-0.598c0.002,0.004,0.004,0.006,0.011,0.008
	l1.312-1.35c-2.437-2.26-5.508-3.564-8.783-3.738v1.908c0.011,0,0.021,0.002,0.031,0.002l-0.019,0.785
	c-0.254-0.019-0.506-0.039-0.766-0.039c-0.246,0-0.488,0.021-0.73,0.037l-0.021-0.785c0,0,0.002,0,0.004,0v-1.908
	c-3.275,0.173-6.348,1.479-8.782,3.738l1.312,1.35c0.027-0.025,0.059-0.047,0.086-0.072l0.502,0.583
	c-0.104,0.095-0.207,0.194-0.312,0.292l7.866,5.795c0.025-0.001,0.052-0.008,0.078-0.008c1.522,0,2.764,1.277,2.764,2.854
	c0,1.578-1.237,2.854-2.764,2.854c-1.481,0-2.684-1.207-2.751-2.72l-6.021-7.898c-1.788,2.104-2.878,4.85-2.878,7.86
	c0,3.306,1.307,6.299,3.411,8.465l-2.372,2.438c-2.713-2.789-4.394-6.646-4.394-10.9c0-4.258,1.681-8.112,4.394-10.902
	c2.716-2.79,6.465-4.516,10.607-4.516s7.896,1.727,10.607,4.516c2.713,2.791,4.395,6.645,4.395,10.902
	C130.004,57.159,128.322,61.014,125.609,63.805z"/> </symbol></svg>