<svg xmlns="http://www.w3.org/2000/svg" xmlns:xlink="http://www.w3.org/1999/xlink">
	<symbol title="icon" viewBox="93.993 31.493 42 42" id="icon-annual-tax-cars">
		<title>annual-tax-cars</title>
		<polygon id="A" points="112.52,54.503 115.432,54.503 113.996,50.368 "/>
		<path id="tax-icon" d="M114.994,31.493c-11.598,0-21.001,9.401-21.001,21.001c0,11.598,9.401,20.999,21.001,20.999c11.598,0,20.999-9.4,20.999-20.999C135.993,40.896,126.592,31.493,114.994,31.493z M105.804,58.47h-2.393v-8.645h-3.416v-1.86h9.207v1.86h-3.398V58.47z M116.812,58.47l-0.751-2.158h-4.188l-0.77,2.158h-2.484l4.058-10.505h2.687l4.021,10.505H116.812zM127.09,58.47l-2.161-3.58l-2.278,3.58h-2.764l3.655-5.354l-3.478-5.152h2.839l2.023,3.423l2.083-3.423h2.745l-3.479,5.068l3.691,5.438H127.09z"/>
	</symbol>
	<symbol title="icon" viewBox="0 0 42 42" id="icon-boot-size">
		<title>boot-size</title>
		<g id="boot-size">
			<path d="M19.48,12.691c0,0-0.051-0.323-0.248-0.493c-0.211-0.181-0.543-0.209-0.543-0.209H15.73c0,0-0.328,0.026-0.527,0.203c-0.184,0.162-0.219,0.476-0.219,0.476v0.812h4.496V12.691z"/>
			<path d="M21,0C9.402,0,0,9.402,0,21s9.402,21,21,21s21-9.402,21-21S32.598,0,21,0z M16.49,21.144v5.833h-6.021c-1.648,0-2.982-1.296-2.982-2.895v-7.707c0-1.599,1.334-2.895,2.982-2.895h3.018v-1.548c0,0,0.037-0.633,0.447-0.995s1.043-0.452,1.043-0.452h4.527c0,0,0.617,0.075,1.018,0.43c0.418,0.369,0.473,1.018,0.473,1.018v1.548h2.566c1.172,0,2.176,0.663,2.664,1.617h-3.258c0,0-0.831,0.031-1.377,0.577c-0.571,0.571-0.596,1.331-0.596,1.331v0.971h-1.342C18.053,17.976,16.49,19.48,16.49,21.144z M34.49,27.68c0,1.28-1.068,2.318-2.387,2.318H20.361c-1.318,0-2.371-1.038-2.371-2.318v-5.872c0-1.279,1.068-2.317,2.387-2.317h2.117v-1.6c0,0,0.041-0.668,0.408-1.019c0.369-0.352,1.064-0.388,1.064-0.388h0.457c0.034-0.006,0.059-0.009,0.059-0.009h1.869c0,0,0.021,0.003,0.054,0.009h2.13c0,0,0.689,0.042,1.053,0.401c0.361,0.356,0.396,1.029,0.396,1.029v1.578h2.119c1.318,0,2.387,1.038,2.387,2.317V27.68z"/>
			<path d="M27.852,17.975h-1.309v0h-1.955c-0.011,0.001-0.26,0.024-0.416,0.162c-0.148,0.13-0.176,0.38-0.176,0.38v0.973h4.488v-0.955c0,0-0.041-0.259-0.199-0.394C28.117,17.998,27.852,17.975,27.852,17.975z"/>
		</g>
	</symbol>
	<symbol title="icon" viewBox="0 0 114 57" id="icon-city-car">
		<title>city-car</title>
		<g transform="translate(0 1)">
			<g transform="translate(22.5 27.5)">
				<polygon points="8.7,26.6 1.2,27.7 70,27.7 59.3,26.6 8.7,26.6"/>
				<g transform="translate(52.136 15.316)">
					<path d="M5.5,4.1C6.3,4.1,7,4.8,7,5.6C7,6.4,6.3,7,5.5,7C4.7,7,4.1,6.4,4.1,5.6C4.1,4.8,4.7,4.1,5.5,4.1L5.5,4.1z"/>
					<polygon points="3.7,0.4 5.5,2.5 7.3,0.4 6,4.5 5.1,4.5"/>
					<polygon points="10.2,2.7 8.5,4.8 10.8,6.3 6.6,5.6 6.5,4.7"/>
					<polygon points="0.9,2.7 2.6,4.8 0.3,6.3 4.5,5.6 4.6,4.7"/>
					<polygon points="7.2,10.8 7.3,8.1 10,8.4 6.4,6.2 5.7,6.8"/>
					<polygon points="3.7,10.8 3.6,8.1 0.9,8.4 4.5,6.2 5.2,6.8"/>
				</g>
				<path d="M57.7,14.9c-3.3,0-5.9,2.7-5.9,6c0,3.3,2.6,6,5.9,6c3.3,0,5.9-2.7,5.9-6C63.6,17.6,60.9,14.9,57.7,14.9L57.7,14.9zM57.7,25c-2.3,0-4.1-1.9-4.1-4.2c0-2.3,1.8-4.2,4.1-4.2c2.3,0,4.1,1.9,4.1,4.2C61.8,23.2,59.9,25,57.7,25L57.7,25z"/>
				<g transform="translate(4.383 15.316)">
					<path d="M6,4.1c0.8,0,1.4,0.6,1.4,1.4C7.4,6.4,6.8,7,6,7C5.2,7,4.6,6.4,4.6,5.6C4.6,4.8,5.2,4.1,6,4.1L6,4.1z"/>
					<polygon points="4.2,0.4 6,2.5 7.8,0.4 6.5,4.5 5.6,4.5"/>
					<polygon points="10.7,2.7 9,4.8 11.3,6.3 7.1,5.6 6.9,4.7"/>
					<polygon points="1.4,2.7 3.1,4.8 0.8,6.3 5,5.6 5.1,4.7"/>
					<polygon points="7.7,10.8 7.8,8.1 10.5,8.4 6.9,6.2 6.2,6.8"/>
					<polygon points="4.1,10.8 4.1,8.1 1.4,8.4 5,6.2 5.7,6.8"/>
				</g>
				<path d="M10.4,14.9c-3.3,0-5.9,2.7-5.9,6c0,3.3,2.6,6,5.9,6c3.3,0,5.9-2.7,5.9-6C16.3,17.6,13.6,14.9,10.4,14.9L10.4,14.9zM10.4,25c-2.3,0-4.1-1.9-4.1-4.2c0-2.3,1.8-4.2,4.1-4.2c2.3,0,4.1,1.9,4.1,4.2C14.5,23.2,12.7,25,10.4,25L10.4,25z"/>
				<path d="M70.9,21.3c-0.1-0.2-0.1-0.3-0.1-0.3l0.2-2.5L71,16c0,0-0.8-3.2-6.5-4.7c-0.8-0.2-2.3-0.7-3.2-0.9c-3.6-0.8-7.3-1.2-7.3-1.2s-2.9-1.7-6-3.2c-2.8-1.4-5.7-2.6-5.7-2.6C37.7,1.3,29.8,1,29.8,1s-7.1,0-13.6,0.5C10.8,1.8,9,1.6,9,1.6C8.5,1.8,8.7,2,8.9,2.2c0.2,0.2,0.3,0.4,0.3,0.4C5.2,5.7,3.2,9,3.2,9l-1.2,4.6l-1.3,1.6c-0.2,0.2-0.3,1.7-0.3,1.7C0.2,17,0,17.3,0,17.3l0,1.9l0.9,1.2C1.7,21.3,2,21.1,2,21.1l1.4,0.7c0,0,0,0,0-0.1c-0.2-1.3-0.1-3.1,1-4.7c2.9-4.2,8.8-4.4,11.8,0c1.5,2.1,1,5,0.7,6.1c0,0,0,0,0,0l34.1,0.4c0,0-1.5-3.7,0.5-6.6c3-4.4,9.2-4.2,12,0.1c1.7,2.6,0.7,6.6,0.7,6.5c4-0.4,6.7-1.4,6.7-1.4s0.3-0.1,0.3-0.4C71.2,21.6,71,21.4,70.9,21.3L70.9,21.3z M7.2,8.4c-1.3,1.4-1.5,4.1-1.5,4.1C4.8,12.3,4,11.7,4,11.7c-0.4-1.3,0.6-2.9,0.6-2.9c1.3-1.6,2.5-2,2.5-2C7.8,8,7.2,8.4,7.2,8.4L7.2,8.4zM45.5,6.9C45.1,7.2,45,7.8,45,7.8v1l-0.7,1.1L31.4,8.8l-0.8-6.5C38.8,2.6,45.5,6.9,45.5,6.9L45.5,6.9z M35.8,12.1c-1.2-0.4-2.9-0.1-2.9-0.1s-0.4,0-0.7-0.1c-0.2-0.1-0.4-0.2-0.4-0.2c-0.1-0.7,0.5-0.6,0.5-0.6c1,0.2,3.1,0.2,3.1,0.2c0.7,0,0.8,0.4,0.8,0.4C36.7,12.1,35.8,12.1,35.8,12.1L35.8,12.1z M14.9,5.2c0.5-1.4,3.6-2.6,3.6-2.6s2.2-0.3,4.4-0.3c2.5-0.1,5,0.1,5,0.1l0,6.3c-9.3-0.2-13.7-1.4-13.7-1.4S14.4,6.4,14.9,5.2L14.9,5.2z M15.3,15.6c-2.2-2.7-2.4-4.1-2.4-4.1c-0.3-1.3-0.3-2.7-0.3-2.7c0.1-0.2,0.7-1.3,0.7-1.3c0,0.1-0.5,1.4-0.5,1.4c0,0.8,0.3,2.6,0.3,2.6c0.1,1.2,2.3,3.9,2.3,3.9l0.2,0.4L15.3,15.6L15.3,15.6z M18.6,10.9c-1.2-0.4-2.9-0.1-2.9-0.1s-0.4,0-0.7-0.1c-0.2-0.1-0.4-0.2-0.4-0.2c-0.1-0.7,0.5-0.6,0.5-0.6c1,0.2,3.1,0.2,3.1,0.2c0.7,0,0.8,0.4,0.8,0.4C19.5,11,18.6,10.9,18.6,10.9L18.6,10.9z M48.7,22.4L48.7,22.4l0,0.1l-29.8-0.9l0.3-0.2l10.7,0.3c0.3-7.1,0.2-10.5,0.2-10.5l-0.2-2.4l0.2,0l0.2,2.4c0.2,5-0.2,10.5-0.2,10.5l18.5,0.6c0,0,0.9-6.1,0.8-10.2l-0.7-2l0.2,0l0.8,2C49.6,12.2,49.7,15.8,48.7,22.4L48.7,22.4z M68.2,19.8c-0.3,0.9-0.8,0.4-0.8,0.4c-0.6-1,0.3-1.4,0.3-1.4C68.6,18.6,68.2,19.8,68.2,19.8L68.2,19.8z M68.9,15.5c-0.9-0.2-3.7-1.2-3.7-1.2c-0.3-0.3-3.2-1.8-3.2-1.8c-0.7-0.9,2.1-0.5,4.3,0.2c1.6,0.5,2.1,1.2,2.1,1.2C69.1,14.2,69.8,15.7,68.9,15.5L68.9,15.5z"/>
			</g>
		</g>
		<g>
			<path d="M54.2,28.9L54.2,28.9l1.5-0.1l0-8.3l1-2.1l0-0.2c0-1.8,1.5-3.4,3.3-3.6l0.4-0.1l0-2.8l0.1,0l0,2.8l0.4,0.1c1.8,0.2,3.2,1.8,3.3,3.6l1,2.3v8.4h1.5l0.1,2.8l4.7,1v1.9l0,0l1,0.5v-3.2l-4.7-1l-0.1-2.1c0-0.5-0.4-0.8-0.9-0.8h-0.6v-7.4c0-0.1,0-0.2-0.1-0.4l0,0c-0.1-0.2-0.3-0.7-0.9-2.1c-0.1-2.1-1.6-4-3.7-4.4v-2c0-0.3-0.1-0.6-0.4-0.8L61,7.5l-1,0l-0.2,3.5c-0.2,0.2-0.4,0.5-0.4,0.8v2c-2.1,0.5-3.6,2.3-3.7,4.4l-0.9,2.1c0,0.1-0.1,0.2-0.1,0.3v7.4h-0.6c-0.5,0-0.8,0.4-0.9,0.8l0,0.1L54.2,28.9z"/>
			<polygon points="40.1,29.2 40.1,21 40.6,21 40.6,20.5 41.1,20.5 41.1,18.3 41.6,17.6 43.8,17.6 44.3,18.3 44.3,20.5 44.8,20.5,44.8,21 45.3,21 45.3,29 46.3,29 46.3,20 45.8,20 45.8,19.5 45.3,19.5 45.3,18.1 44.4,16.6 41,16.6 40.1,18.1 40.1,19.5 39.6,19.5 39.6,20 39.1,20 39.1,29.3"/>
			<path d="M30.9,29.5c-0.8,0-1.6,0-2.6,0v-9.2h-0.7v-0.8h-5.9v0.8h-0.7v6.6h-1.3v14.6l-1.5,0c0-1,0.1-3.6,0.1-7.8c0-12.4-2-20.8-3.3-24.9c0.1-0.1,0.2-0.2,0.2-0.4c0-0.2-0.1-0.3-0.2-0.4c0,0,0,0,0,0c0-0.4-0.3-0.5-0.5-0.6c-0.7-2-1.5-3.6-2.2-4.8c0,0,0,0,0,0c0-0.3-0.2-0.6-0.4-0.7C10.3,0,9.3,0.1,8,1.8C7.9,1.9,7.8,1.9,7.7,2C7.6,2.1,7.5,2.3,7.5,2.5c0,0,0,0,0,0C6.7,3.7,6,5.3,5.3,7.3C5.1,7.4,4.8,7.5,4.8,7.9c0,0,0,0,0,0C4.7,8,4.6,8.2,4.6,8.3c0,0.2,0.1,0.3,0.2,0.4c-1.3,4.1-3.3,12.4-3.3,24.9v7.9h-1v1h2v-8.9c0-12.7,2.1-21.1,3.4-25l0.3-0.8c0.7-2.1,1.5-3.8,2.3-5l0.2-0.3c0.8-1,1.2-1.1,1.2-1.1c0.1,0,0.5,0.1,1.2,1.1l0,0l0,0l0.2,0.2c0.7,1,1.4,2.5,2,4.2l0,0l0.6,1.8c1.3,3.9,3.3,12.2,3.3,24.8c0,4.3,0,6.9-0.1,7.9l-0.1,0l0,1l3.7,0V27.9h1.3v-6.6h0.7v-0.8h3.9v0.8h0.7v9.2h0.5c0.8,0,1.8,0,2.8,0C30.6,30.2,30.8,29.8,30.9,29.5z"/>
			<polygon points="110.8,41.5 110.8,27.1 103.1,27.1 103.1,32.4 101.2,32.4 101.2,21.1 92.7,21.1 92.7,38.8 90.8,38.8 90.8,15.5 89.4,15.5 88.9,14.4 84.6,14.4 84.6,11.7 79.7,11.7 79.7,24.1 75,24.1 75,36.3 76,36.9 76,25.1 80.7,25.1 80.7,12.7 83.6,12.7 83.6,15.4 88.2,15.4 88.7,16.5 89.8,16.5 89.8,39.8 93.7,39.8 93.7,22.1 100.2,22.1 100.2,33.4 104.1,33.4 104.1,28.1 109.8,28.1 109.8,42.5 113.7,42.5 113.7,41.5 	"/>
		</g>
	</symbol>
	<symbol title="icon" viewBox="0 0 59.4 19.2" id="icon-convertible">
		<title>convertible</title>
		<g id="conv">
			<g id="alloy-front">
				<path d="M48.7,13.4c0.5,0,1,0.4,1,1c0,0.5-0.4,1-1,1s-1-0.4-1-1C47.7,13.9,48.1,13.4,48.7,13.4z"/>
				<path d="M47.4,10.9l1.2,1.4l1.2-1.4L49,13.7h-0.6L47.4,10.9z"/>
				<path d="M51.9,12.4l-1.1,1.5l1.6,1l-2.9-0.4l-0.1-0.6L51.9,12.4z"/>
				<path d="M45.5,12.4l1.1,1.5l-1.6,1l2.9-0.4l0.1-0.6L45.5,12.4z"/>
				<path d="M49.8,17.9l0.1-1.8l1.8,0.3l-2.5-1.5l-0.5,0.4L49.8,17.9z"/>
				<path d="M47.4,17.9l-0.1-1.8l-1.8,0.3l2.5-1.5l0.5,0.4L47.4,17.9z"/>
			</g>
			<path id="tyre-front" d="M48.7,10.3c-2.2,0-4.1,1.8-4.1,4.1s1.8,4.1,4.1,4.1c2.2,0,4.1-1.8,4.1-4.1S50.9,10.3,48.7,10.3zM48.7,17.2c-1.6,0-2.8-1.3-2.8-2.8s1.3-2.8,2.8-2.8s2.8,1.3,2.8,2.8C51.5,16,50.2,17.2,48.7,17.2z"/>
			<g id="alloy-rear">
				<path d="M12,13.4c0.5,0,1,0.4,1,1c0,0.5-0.4,1-1,1s-1-0.4-1-1C11.1,13.9,11.5,13.4,12,13.4z"/>
				<path d="M10.8,10.9l1.2,1.4l1.2-1.4l-0.9,2.8h-0.6L10.8,10.9z"/>
				<path d="M15.2,12.4l-1.1,1.5l1.6,1l-2.9-0.4l-0.1-0.6L15.2,12.4z"/>
				<path d="M8.9,12.4l1.1,1.5l-1.6,1l2.9-0.4l0.1-0.6L8.9,12.4z"/>
				<path d="M13.2,17.9l0.1-1.8l1.8,0.3l-2.5-1.5l-0.5,0.4L13.2,17.9z"/>
				<path d="M10.8,17.9l-0.1-1.8l-1.8,0.3l2.5-1.5l0.5,0.4L10.8,17.9z"/>
			</g>
			<path id="tyre-rear" d="M12,10.3c-2.2,0-4.1,1.8-4.1,4.1s1.8,4.1,4.1,4.1c2.2,0,4.1-1.8,4.1-4.1S14.2,10.3,12,10.3z M12,17.2c-1.6,0-2.8-1.3-2.8-2.8s1.3-2.8,2.8-2.8s2.8,1.3,2.8,2.8C14.9,16,13.6,17.2,12,17.2z"/>
			<path id="body" d="M59.1,12.7c0-0.4,0.3-0.5,0.3-0.5c-0.3-2.5-2.1-4-2.1-4c-0.7-0.5-3.1-1.2-5.4-1.8c-3.2-0.7-6.4-1.3-6.4-1.3s-1.5-0.7-3.8-1.7c-2.2-1-5.2-2.3-7.9-3.1C33.5,0.2,32.7,0,32.7,0s-0.3,0-0.5,0.1c-0.2,0.1-0.3,0.2-0.3,0.4C31.8,0.8,32,0.9,32,0.9s2.5,0.7,4.4,1.4c1.8,0.6,3,1.3,3,1.3s-0.5,0.2-0.5,0.7c0,0.6,0.4,1.4,0.4,1.4L25.7,5c0,0-0.3-2.2-0.9-2.5C24.3,2.2,24,2.3,24,2.3s-0.2,0.1-0.2,0.3c-0.3,1.4-0.2,2.2-0.2,2.2L16,4.3c0,0,0-1.7-1.2-2.1c-0.5-0.1-0.6-0.3-1.2,0C13.4,2.3,13.3,3,13.1,3c-0.3,0-0.5,1.1-0.5,1.1L5.7,3.7c0,0-0.7,0.2-1.5,0.3C2.9,4.2,1.7,4.1,1.7,4.1S1.4,4,1.5,4.5c0.1,0.2,0.4,0.6,0.4,0.6S1.5,5.4,1.3,6.2c-0.2,0.8-0.2,2-0.2,2c-0.6,0.9-1,1.2-1,1.2c-0.2,0.4-0.1,1.1,0,1.6c0,0.3,0.2,0.4,0.2,0.4s0,0.4,0,0.6c0,0.2-0.2,0.3-0.2,0.3s0.1,0.6,0.4,0.9c0.1,0.1-0.1,0.3-0.1,0.3l0.5,0.8l1.1,0.1c2.4,0.4,4.3,0.6,4.3,0.6l1.3,1.2c0,0-0.7-2.9,0.6-4.5c2.1-2.9,6.2-2.9,8.2,0c0.9,1.2,0.7,3.2,0.6,4.1c0,0,0,0.1,0,0.1L44,16.3c0,0-0.7-2.8,0.5-4.6c1.1-1.5,2.7-2.2,4.3-2.2c1.6,0,3,0.8,4.1,2.2c1.1,1.6,0.4,4.5,0.4,4.5c2.3,0.1,6-1,6-1c0-0.2-0.2-0.6-0.2-0.6S59.1,13.4,59.1,12.7z M5.2,6.7C4.6,7,2.5,7.8,2.5,7.8C2,7,2.4,6,2.4,6c0.4-0.6,1.1-0.5,1.1-0.5C5,5.4,5.3,5.9,5.3,5.9C6.1,6.4,5.2,6.7,5.2,6.7z M23.9,6.5c0.7,0.1,2.1,0.2,2.1,0.2c0.5,0,0.5,0.3,0.5,0.3c0.2,0.3-0.3,0.2-0.3,0.2c-0.8-0.3-2-0.1-2-0.1S24,7.1,23.9,7c-0.2,0-0.2-0.1-0.2-0.1C23.6,6.4,23.9,6.5,23.9,6.5z M42.4,15.4c0,0-11.2-0.3-17.1-0.5c0,0-0.1,0-0.1,0L25,14.7c0,0,0,0,0,0c-0.2-0.1-2.8-1.7-3.4-7.8c0,0,0-0.7-0.2-1.4h0.1c0,0,0.2,0.8,0.2,1.4c0,0,0.1,1.3,0.4,2.7c0.2,0.8,0.6,1.8,1,2.6c0.7,1.6,2.1,2.5,2.1,2.5h0c6,0.3,17.2,0.5,17.2,0.5L42.4,15.4z M43.3,10.7c-0.3,2.3-0.8,4.5-0.8,4.5l-0.2,0c0,0,0.5-2.3,0.9-4.6c0.3-2.2-0.7-4.2-0.7-4.2l0.1,0C42.6,6.4,43.5,8.5,43.3,10.7z M53.8,8.1c1.3,0.1,2.3,0.5,2.3,0.5c1.4,0.8,1,2.2,1,2.2c-2.2-0.9-3.5-2-3.5-2C52.7,8.1,53.8,8.1,53.8,8.1z M57.7,14.2c-0.3,0.4-0.4,0.2-0.4,0.2c-0.7-1,0.3-1.4,0.3-1.4C58.1,12.8,57.7,14.2,57.7,14.2z"/>
		</g>
	</symbol>
	<symbol title="icon" viewBox="0 0 59.5 19" id="icon-coupe">
		<title>coupe</title>
		<g id="coupe">
			<g id="alloy-front">
				<path d="M47.9,13.2c0.5,0,1,0.4,1,1s-0.4,1-1,1s-1-0.4-1-1S47.4,13.2,47.9,13.2z"/>
				<path d="M46.7,10.7l1.2,1.4l1.2-1.4l-0.9,2.8h-0.6L46.7,10.7z"/>
				<path d="M51.1,12.2L50,13.7l1.6,1l-2.9-0.4l-0.1-0.6L51.1,12.2z"/>
				<path d="M44.8,12.2l1.1,1.5l-1.6,1l2.9-0.4l0.1-0.6L44.8,12.2z"/>
				<path d="M49.1,17.7l0.1-1.9l1.8,0.3l-2.5-1.5L48.1,15L49.1,17.7z"/>
				<path d="M46.7,17.7l-0.1-1.9l-1.8,0.3l2.5-1.5l0.5,0.4L46.7,17.7z"/>
			</g>
			<path id="tyre-front" d="M48,10.1c-2.2,0-4.1,1.8-4.1,4.1s1.8,4.1,4.1,4.1c2.2,0,4.1-1.8,4.1-4.1S50.2,10.1,48,10.1z M47.9,17c-1.6,0-2.8-1.3-2.8-2.8c0-1.6,1.3-2.8,2.8-2.8s2.8,1.3,2.8,2.8C50.8,15.8,49.5,17,47.9,17z"/>
			<g id="alloy-rear">
				<path d="M11.3,13.2c0.5,0,1,0.4,1,1s-0.4,1-1,1s-1-0.4-1-1S10.8,13.2,11.3,13.2z"/>
				<path d="M10.1,10.7l1.2,1.4l1.2-1.4l-0.9,2.8H11L10.1,10.7z"/>
				<path d="M14.5,12.2l-1.1,1.5l1.6,1L12,14.2l-0.1-0.6L14.5,12.2z"/>
				<path d="M8.1,12.2l1.1,1.5l-1.6,1l2.9-0.4l0.1-0.6L8.1,12.2z"/>
				<path d="M12.5,17.7l0.1-1.9l1.8,0.3l-2.5-1.5L11.4,15L12.5,17.7z"/>
				<path d="M10,17.7L10,15.9l-1.8,0.3l2.5-1.5l0.5,0.4L10,17.7z"/>
			</g>
			<path id="tyre-rear" d="M11.3,10.1c-2.2,0-4.1,1.8-4.1,4.1s1.8,4.1,4.1,4.1s4.1-1.8,4.1-4.1S13.5,10.1,11.3,10.1z M11.3,17c-1.6,0-2.8-1.3-2.8-2.8c0-1.6,1.3-2.8,2.8-2.8s2.8,1.3,2.8,2.8C14.1,15.8,12.9,17,11.3,17z"/>
			<path id="body" d="M53.4,7.1c0,0-2.2-0.6-4.8-1c-2.4-0.4-5.1-0.6-5.1-0.6l-2.9-0.4c-5.8-3.5-9.3-4.4-9.3-4.4s-1.3-0.4-3-0.5C26.3,0,23.8,0,23.8,0c-4.1,0.1-8.5,1.3-8.5,1.3L6.6,4L5.9,4.1c-0.8,0-4.2-0.3-4.2-0.3s0.4,0.5,0.6,0.9c0.1,0.2,0,0.3,0,0.3S1.9,5.7,1.6,6.6C1.4,7.4,1.3,8.3,1.3,8.3S1,8.8,0.4,9.1C0.1,9.2,0,9.6,0,9.6s0,0.6,0,1.2c0.1,0.5,0.2,1,0.2,1c-0.5,0.4,0.4,1.3,0.4,1.3l-0.2,0.1L1,14.2l0.5,0l4.2,1l0.8,0c0,0,0,0,0,0c-0.1-0.5,0-1.1,0-1.1s0.1-2.1,1.2-3.2c1.2-1.2,2.4-1.5,3.4-1.5s2.3,0.2,3.6,1.4c1.4,1.3,1.3,3.4,1.3,3.4s-0.1,0.6-0.1,1.1c0,0.3-0.1,0.7-0.1,0.7l27.6,0c0,0-0.2-0.7-0.2-1.9c0-2.2,1.6-4.7,4.9-4.7c3.1,0,4.7,2.5,4.7,4.7c0,1.2-0.3,1.9-0.3,1.9c5.4,0,6.4-0.8,6.4-0.8s0.3-0.2,0.2-0.5c0-0.2-0.4-0.3-0.4-0.3l0.4-1.7l0.3-0.1l0.1-1.7C56.4,7.5,53.4,7.1,53.4,7.1z M5.6,6.5C4.9,6.8,2.8,7.6,2.8,7.6C2.3,6.8,2.7,5.8,2.7,5.8c0.4-0.6,1.1-0.5,1.1-0.5c1.6-0.1,1.8,0.3,1.8,0.3C6.5,6.1,5.6,6.5,5.6,6.5z M22.8,1.1c0,0,1.6-0.2,3.3-0.2c1.6,0,3.2,0.1,3.2,0.1c1.1,0.2,2,0.5,2.9,0.8c1.5,0.6,2.8,1.4,2.8,1.4s-0.4,0.1-0.6,0.2c-0.2,0.1-0.2,0.2-0.2,0.2L34,5.1L22.8,4.6L22.8,1.1z M25.8,7c-0.8-0.3-2-0.1-2-0.1s-0.3,0-0.5-0.1c-0.2,0-0.2-0.1-0.2-0.1c0-0.5,0.3-0.4,0.3-0.4c0.7,0.1,2.1,0.2,2.1,0.2c0.5,0,0.5,0.3,0.5,0.3C26.4,7,25.8,7,25.8,7z M16.9,2.5c0,0,1-0.4,2.2-0.6c1.5-0.4,3.4-0.7,3.4-0.7l0,3.3c0,0-4.9-0.3-5.8-1.4C16.6,3.2,16.1,2.7,16.9,2.5z M40.1,15l-17.6-0.7l0-0.1h0c0,0-0.3-1.2-0.5-2.1c0,0-0.5-2.7-0.6-5.6c0-0.5,0.7-1.3,0.7-1.3l0.1-0.1l0,0.1c0,0-0.7,0.7-0.6,1.2c0.1,3.6,0.7,5.6,0.7,5.6s0.2,1.3,0.5,2.1h0l17.5,0.7L40.1,15z M40.9,10.3c-0.3,2.3-0.8,4.5-0.8,4.5l-0.2,0c0,0,0.5-2.3,0.9-4.6C41.1,8.1,41.1,6,41.1,6l0.1,0C41.3,5.9,41.2,8.1,40.9,10.3z M53.1,7.9c1.3,0.1,2.3,0.5,2.3,0.5c1.4,0.8,1,2.2,1,2.2c-2.2-0.9-3.5-2-3.5-2C52,7.9,53.1,7.9,53.1,7.9z M57,14c-0.3,0.4-0.4,0.2-0.4,0.2c-0.7-1,0.3-1.4,0.3-1.4C57.4,12.6,57,14,57,14z"/>
		</g>
	</symbol>
	<symbol title="icon" viewBox="0 0 35 48" id="icon-electric-hybrid">
		<title>electric-hybrid</title>
		<path d="M33.3,5.7V0.8C32.9,0.3,32.5,0,31.9,0c-0.5,0-1,0.3-1.4,0.8v4.7c-0.3,0-0.7,0-1,0c0,0,0-3.1,0-3.1C29.6,1.6,29,1,28.2,1c-0.8,0-1.4,0.6-1.4,1.4v3.1c-0.3,0-0.6,0-0.9,0V0.8C25.5,0.3,25,0,24.5,0c-0.5,0-1,0.3-1.4,0.8v4.9c-1.3,0.1-1.1,0-1.1,0.6v2.6v1.8v2.8c0,2.1,1.4,3.9,3.4,4.8v3.7c0.5,0.4,1.1,0.6,1.8,0.8v16.9c0,1-2.1,2.6-2.1-0.7v-9.5c0-2.3-4.6-2.5-6.3-2.4V16.3c0-2-1.2-3.3-3-3.3H5.1c-1.7,0-3,1.3-3,3.3v27.2H1.2c-0.7,0-1.2,0.6-1.2,1.2l0,1.9c0,0.7,0.5,1.2,1.2,1.2h18.6c0.7,0,1.2-0.6,1.2-1.2l0-1.9c0-0.7-0.5-1.2-1.2-1.2h-1V29.3c0.9-0.1,4.1-0.2,4.1,1.2V39c0,1.8,0.7,3.2,1.5,3.9c1,0.9,2.2,1,3.6-0.4c0.7-0.7,1.2-1.7,1.2-2.8V22.9c0.7-0.1,1.3-0.4,1.9-0.8v-3.7c2-0.9,3.4-2.7,3.4-4.8v-2.8V8.9V6.3C34.4,5.7,34.7,5.9,33.3,5.7z M16.3,27.8c0,0.9-0.7,1.7-1.6,1.7H6.3c-0.9,0-1.6-0.8-1.6-1.7V17.2c0-0.9,0.7-1.7,1.6-1.7h8.4c0.9,0,1.6,0.8,1.6,1.7V27.8z M26.4,16l1.2-3.7h-2.1l4.6-5.1L28.9,11H31L26.4,16z"/>
	</symbol>
	<symbol title="icon" viewBox="0 0 60.3 19.5" id="icon-estate">
		<title>estate</title>
		<g id="estate">
			<g id="alloy-front">
				<path d="M51.1,13.7c0.5,0,1,0.4,1,1c0,0.5-0.4,1-1,1c-0.5,0-1-0.4-1-1C50.1,14.1,50.6,13.7,51.1,13.7z"/>
				<path d="M49.9,11.2l1.2,1.4l1.2-1.4L51.4,14h-0.6L49.9,11.2z"/>
				<path d="M54.3,12.7l-1.1,1.5l1.6,1l-2.9-0.4l-0.1-0.6L54.3,12.7z"/>
				<path d="M47.9,12.7l1.1,1.5l-1.6,1l2.9-0.4l0.1-0.6L47.9,12.7z"/>
				<path d="M52.3,18.2l0.1-1.8l1.8,0.3l-2.5-1.5l-0.5,0.4L52.3,18.2z"/>
				<path d="M49.8,18.2l-0.1-1.8l-1.8,0.3l2.5-1.5l0.5,0.4L49.8,18.2z"/>
			</g>
			<path id="tyre-front" d="M51.1,10.6c-2.2,0-4.1,1.8-4.1,4.1s1.8,4.1,4.1,4.1s4.1-1.8,4.1-4.1S53.3,10.6,51.1,10.6z M51.1,17.5c-1.6,0-2.8-1.3-2.8-2.8s1.3-2.8,2.8-2.8s2.8,1.3,2.8,2.8S52.7,17.5,51.1,17.5z"/>
			<g id="alloy-rear">
				<path d="M12.8,13.7c0.5,0,1,0.4,1,1c0,0.5-0.4,1-1,1s-1-0.4-1-1C11.8,14.1,12.3,13.7,12.8,13.7z"/>
				<path d="M11.6,11.2l1.2,1.4l1.2-1.4L13.1,14h-0.6L11.6,11.2z"/>
				<path d="M16,12.7l-1.1,1.5l1.6,1l-2.9-0.4l-0.1-0.6L16,12.7z"/>
				<path d="M9.6,12.7l1.1,1.5l-1.6,1l2.9-0.4l0.1-0.6L9.6,12.7z"/>
				<path d="M14,18.2l0.1-1.8l1.8,0.3l-2.5-1.5l-0.5,0.4L14,18.2z"/>
				<path d="M11.5,18.2l-0.1-1.8l-1.8,0.3l2.5-1.5l0.5,0.4L11.5,18.2z"/>
			</g>
			<path id="tyre-rear" d="M12.8,10.6c-2.2,0-4.1,1.8-4.1,4.1s1.8,4.1,4.1,4.1s4.1-1.8,4.1-4.1S15,10.6,12.8,10.6z M12.8,17.5c-1.6,0-2.8-1.3-2.8-2.8s1.3-2.8,2.8-2.8s2.8,1.3,2.8,2.8S14.4,17.5,12.8,17.5z"/>
			<path id="body" d="M59.9,15.6c-0.1-3.1-0.7-3.6-0.7-3.6c-0.1-2.6-0.5-2.7-0.5-2.7c-2.8-2.8-17-3.5-17-3.5s-1-0.5-2.2-1.1c-1.1-0.6-2.3-1.3-3.4-1.9c-1.5-0.8-2.8-1.4-2.8-1.4c-2.6-1.5-5.9-1.3-5.9-1.3s-5.2-0.2-10.1,0.1C11.7,0.5,6.2,1.4,6.2,1.4S5.9,1.5,5.9,1.6c0,0.1,0.4,0.2,0.4,0.2L1.8,6.2L1.6,6.5C0.5,7.7,0.9,8.9,0.9,8.9s0.2,1.1,0,1.9c-0.1,0.5-0.6,0.7-0.6,0.7L0,12.9c0,0,0,0.6,0.3,1.1C0.6,14.5,1,15,1,15s0.1,0.2,0.4,0.3c0.1,0,1.6,0,1.6,0l5.3,1.2c0,0-0.7-2.9,0.5-4.4c2.1-3,6-2.9,8.1,0c1.2,1.6,0.5,4.4,0.5,4.4h29c0,0-0.5-2.8,0.7-4.4c2-2.8,6.2-3.1,8.1,0c1.4,2.3,0.4,4.4,0.4,4.4c3.8,0.1,4.5-0.6,4.5-0.6C60.3,15.8,59.9,15.7,59.9,15.6z M31.7,1.6C34.5,2.4,37,4.1,37,4.1c-2.2-0.1-0.8,1.7-0.8,1.7l-8.5-0.6l-1.2-4.2C26.5,1.1,29.3,0.9,31.7,1.6z M30.7,6.9c-0.8-0.3-2-0.1-2-0.1s-0.3,0-0.5-0.1c-0.2,0-0.2-0.1-0.2-0.1c0-0.5,0.3-0.4,0.3-0.4c0.7,0.1,2.1,0.2,2.1,0.2c0.5,0,0.5,0.3,0.5,0.3C31.3,6.9,30.7,6.9,30.7,6.9z M26.8,7.4c-0.1-1-0.2-1.6-0.2-1.8l0,0.1c0,0,0-0.6,0-0.1l0,0l0.1,0.1c0,0-0.1-1.3,0.2,1.8c0.3,2.8,0.3,5.6,0.3,5.6c0,0.9-0.2,2.2-0.2,2.2h-0.1C27,14.4,27,13,27,13S27.2,11,26.8,7.4z M21.6,1c1.8,0,3.5,0,3.5,0l0,4.3l-6.7-0.1L18,1.1C18,1.1,19.8,1,21.6,1z M17.8,6.9c-0.8-0.3-2-0.1-2-0.1s-0.3,0-0.5-0.1c-0.2,0-0.2-0.1-0.2-0.1c0-0.5,0.3-0.4,0.3-0.4c0.7,0.1,2.1,0.2,2.1,0.2c0.5,0,0.5,0.3,0.5,0.3C18.3,6.9,17.8,6.9,17.8,6.9z M14.4,4.2c0.4-1.1,2.5-2.9,2.3-2.9l0.9-0.1l0.2,4l-3.1,0C14.7,5.1,14.2,4.6,14.4,4.2z M4.7,7.8C4,8.2,1.9,9,1.9,9C1.5,8.2,1.9,7.2,1.9,7.2c0.4-0.6,1.1-0.5,1.1-0.5C4.5,6.6,4.8,7,4.8,7C5.9,7.3,4.7,7.8,4.7,7.8z M11.6,5.1c0,0-3.4,0.2-6,0.2c0,0,2.4-2,4.6-2.9c2.6-1,4-0.9,4-0.9s-1,1-1.7,1.9C12,4.3,11.6,5.1,11.6,5.1z M41.4,15.4l-23.1,0l0-0.1l0-0.9c0-3.4-3.9-6.1-3.9-6.1c-0.8-0.6-1.9-2.5-1.9-2.5c0-0.2,0-0.6,0-0.6c0,0,0.1,0,0.1,0s0,0.2,0,0.4c0,0.1,0,0.2,0,0.2c1,1.8,1.9,2.4,1.9,2.4c4.2,3.1,3.9,6.1,3.9,6.1l0,0.8l0,0l23,0V15.4z M41.4,15.2h-0.2c0,0,0.9-1.6,0.7-5.9c0,0,0-1.8-0.7-3c0,0-0.1-0.2,0.1,0c0,0,0.4,0.5,0.5,1.2c0.2,0.8,0.2,1.8,0.2,1.8S42.4,13.1,41.4,15.2z M54.7,9.3c-0.9-0.7,0.2-0.7,0.2-0.7C56.1,8.7,57.2,9,57.2,9c1.4,0.8,1,2.2,1,2.2C55.9,10.3,54.7,9.3,54.7,9.3z M58.4,14.5c-0.3,0.4-0.4,0.2-0.4,0.2c-0.7-1,0.3-1.4,0.3-1.4C58.8,13.1,58.4,14.5,58.4,14.5z"/>
		</g>
	</symbol>
	<symbol title="icon" viewBox="0 0 808.55 741.55" id="icon-family-car">
		<title>family-car</title>
		<path d="M6,629.61V618.79a16.3,16.3,0,0,0,.92-5.56c0.22-3.77.37-7.55,0.69-11.31,0.56-6.59,1.24-13.16,1.84-19.75,0.85-9.32,2.06-18.6,3.36-27.87,2.13-15.23,4.76-30.37,8.06-45.39A383.68,383.68,0,0,1,36.2,455.73a210.79,210.79,0,0,1,14.27-30.55,70.59,70.59,0,0,1,12.12-15.93,102,102,0,0,1,22.9-16.54,97.75,97.75,0,0,1,17.69-7.7c9-2.74,18-5.83,26.83-9.13,12.64-4.7,25.12-9.82,37.27-15.67a176.73,176.73,0,0,0,22-12.29,52.47,52.47,0,0,0,8.41-6.77,15.84,15.84,0,0,0,4.21-7.26c1.31-5.16,2.77-10.28,4.17-15.42a16.89,16.89,0,0,1,.64-2,0.92,0.92,0,0,1,.58-0.38,0.53,0.53,0,0,1,.4.26,16.28,16.28,0,0,1,.8,1.61c2.68,6.42,5.61,12.73,8.1,19.23,1.72,4.49,3.88,8.8,6,13.13a5.16,5.16,0,0,0,1.35,2.09,0.79,0.79,0,0,0,.16-1c-0.41-1.49-.82-3-1.28-4.46-2.18-7.06-4-14.22-6.48-21.18-2.07-5.83-4.08-11.67-6.18-17.49a85.39,85.39,0,0,0-3.29-8.67q-6.07-12.38-12.09-24.77c-0.94-1.93-1.86-3.87-2.71-5.84-3.19-7.42-6.3-14.87-9.55-22.26a22.4,22.4,0,0,1-1.92-9.23,208.05,208.05,0,0,0-1.51-27,6.23,6.23,0,0,0-2.11-4.24c-1.11-.95-2.16-2-3.28-2.91a7.79,7.79,0,0,1-2.48-3.83c-0.25-.82-0.56-1.62-0.81-2.45a140.67,140.67,0,0,1-5.73-35.51,168.51,168.51,0,0,1,.39-21.62,47.92,47.92,0,0,1,1-6.86A162.1,162.1,0,0,1,183.5,89.76a118.74,118.74,0,0,1,26.89-32.31,92.89,92.89,0,0,1,40.43-19.53c2.69-.57,5.38-1.11,8.07-1.68a178.34,178.34,0,0,1,28.82-3.85,176.52,176.52,0,0,1,24.71.3,128.21,128.21,0,0,1,17,2.66,87.26,87.26,0,0,1,22.89,8.43,106.16,106.16,0,0,0,10,4.8,83.79,83.79,0,0,1,30.9,22.2,76,76,0,0,1,15.44,27.12,15.6,15.6,0,0,0,1.34,3.34,85.58,85.58,0,0,1,6.74,14.45,0.92,0.92,0,0,0,.75.91c0.39-3.76.71-7.51,1.17-11.25a133,133,0,0,1,8.81-34.6,98.8,98.8,0,0,1,28.61-39.41,69.76,69.76,0,0,1,14.84-9.7c4.75-2.22,9.56-4.29,14.49-6.07a158.36,158.36,0,0,1,41.12-9.14,18.06,18.06,0,0,0,2-.39h20.1a14.07,14.07,0,0,0,2,.38,81.54,81.54,0,0,1,8.69,1A129.11,129.11,0,0,1,610,26.77a194.31,194.31,0,0,1,18.89,14.28,59.19,59.19,0,0,1,12.83,15,93.68,93.68,0,0,1,10.14,24.69,175.47,175.47,0,0,1,5.52,40,204.58,204.58,0,0,1-.34,25,7.15,7.15,0,0,0,1,4.42c2.88,4.91,3.58,10.36,3.35,15.91a64.73,64.73,0,0,1-2.26,14.22c-1,3.56-2,7.11-2.93,10.68a124.89,124.89,0,0,1-7.55,21.34,4.61,4.61,0,0,0-.15,3.93c1.09,2.8,2.12,5.63,3,8.49,4.07,13.09,5.92,26.44,4.45,40.15a81.16,81.16,0,0,1-4.33,19.3c-0.94,2.58-2,5.11-3.09,7.64-0.91,2.17-.94,2.21.69,3.78a75.28,75.28,0,0,1,5.73,5.92,11,11,0,0,0,1.28,1.27,59.47,59.47,0,0,1,7.68,8.31,92.3,92.3,0,0,1,13.77,24.64,130.6,130.6,0,0,1,8.1,35c0.16,1.7.82,2.73,2.45,3.14,0.17,0,.33.11,0.49,0.17,7.53,2.66,15,5.6,22.32,8.69a286.37,286.37,0,0,1,31,15.08,132.28,132.28,0,0,1,21.58,14.91c5.77,5,10.6,10.76,13.71,17.81,1.14,2.59,2.3,5.18,3.39,7.79,5.52,13.24,10.33,26.74,14.59,40.45a471.6,471.6,0,0,1,12.16,47.11c3.22,16.09,6,32.24,6.72,48.67a15.55,15.55,0,0,0,.35,2v41.23a13.23,13.23,0,0,0-.37,2.27c0,2.76-.43,5.47-0.66,8.21a17.77,17.77,0,0,1-2.91,8.43,39.08,39.08,0,0,1-6.67,7.81,71.34,71.34,0,0,1-9,6.84,17.23,17.23,0,0,1-3,1.55c-6.87,2.7-13.77,5.34-20.77,7.68-0.65.22-1.29,0.46-1.95,0.67a2.66,2.66,0,0,0-2,2.63c-0.12,2.14-.4,4.27-0.52,6.42a19.61,19.61,0,0,1-2.89,9.24,39,39,0,0,1-6.46,8,23.59,23.59,0,0,1-4.57,3.74c-7.8,4.36-15.7,8.51-23.9,12.07A285.15,285.15,0,0,1,659.93,723c-7,1.12-14.11,2-21.2,2.68-5.72.57-11.46,1.09-17.2,1.27-8.92.28-17.84,0.73-26.77,0.54-1,0-2.06,0-3.09-.11-4.87-.41-9.75-0.78-14.62-1.28q-8.07-.82-16.11-1.85-12.26-1.59-24.44-3.71a7,7,0,0,0-4.51.57c-0.53.27-1.1,0.48-1.65,0.73A261.29,261.29,0,0,1,487.14,737a340.5,340.5,0,0,1-72.79,10.2,11.81,11.81,0,0,0-3.82.43H387.86a23.11,23.11,0,0,0-5.84-.84c-7.1-.56-14.18-1.37-21.24-2.29-16.26-2.13-32.43-4.79-48.47-8.25-14.44-3.11-28.74-6.75-42.81-11.27-7.93-2.55-15.78-5.31-23.49-8.48a16.65,16.65,0,0,0-4.71-1.22c-7.09-.71-14.17-1.4-21.25-2.24q-16.49-2-32.92-4.36-21.53-3.13-42.92-7.14c-20.5-3.88-40.85-8.41-61-14a448.46,448.46,0,0,1-46.87-15.66c-3.66-1.48-7.25-3.14-11-4.5a20.64,20.64,0,0,1-9.77-7.65,40.3,40.3,0,0,1-5.26-10.28A70,70,0,0,1,7,633.58,10.17,10.17,0,0,0,6,629.61Zm209.67,68.88c0.84,0.06,1.18-.39.73-1.59a53.36,53.36,0,0,1-1.84-5.35,66.27,66.27,0,0,1-1.85-21.72c0.36-4.79.92-9.57,1.55-14.34A341.14,341.14,0,0,1,223,611.82a245.88,245.88,0,0,1,20.72-53.16,40.91,40.91,0,0,1,7.34-9.87,77.15,77.15,0,0,1,13.34-10.48,113.66,113.66,0,0,1,13.27-6.85A250.28,250.28,0,0,0,306.71,516a120.46,120.46,0,0,0,14.24-10.18,35.57,35.57,0,0,0,5.86-6.13,12.26,12.26,0,0,0,2.19-4.9c0.38-1.94.69-3.89,1.18-5.8a6.34,6.34,0,0,0-.7-4.93c-1.46-2.62-2.82-5.31-4.13-8a156.25,156.25,0,0,1-7.09-17.13,7.19,7.19,0,0,0-2.26-3.36,19.11,19.11,0,0,1-6.46-10.88c-1.31-5.77-3.23-11.41-3.79-17.35A1.26,1.26,0,0,0,304,426c-0.68.12-1.34,0.29-2,.46a55.45,55.45,0,0,1-19.45,1.08,49.78,49.78,0,0,1-18.51-6,85.11,85.11,0,0,1-18.55-13.79,149.44,149.44,0,0,1-19.28-23.1,260.43,260.43,0,0,1-17.41-29.48c-0.39-.76-0.8-1.52-1.25-2.25a0.75,0.75,0,0,0-1.13-.2,23.41,23.41,0,0,0-2,1.6,77.49,77.49,0,0,1-7.74,6A184.3,184.3,0,0,1,172.81,374c-10.41,5.1-21.07,9.66-31.91,13.79-9.95,3.8-20,7.44-30.15,10.52-1.89.57-3.82,1.05-5.66,1.75C92,405,80.29,412.21,70.61,422.48a30.82,30.82,0,0,0-3.36,4.22c-2.36,3.59-4.51,7.31-6.51,11.11a214,214,0,0,0-12.4,29.13,388.91,388.91,0,0,0-12.86,47.19Q31.24,534,28.4,554.19c-1,7.31-1.93,14.64-2.8,22-0.64,5.37-1.19,10.75-1.7,16.13S23,603.07,22.55,608.46c-0.26,3.42-.34,6.86-0.66,10.28a77.69,77.69,0,0,0,.19,17A40.22,40.22,0,0,0,26,649.5a13.09,13.09,0,0,0,6.78,6.36c7.45,3.11,14.95,6.1,22.57,8.77a550.53,550.53,0,0,0,58.71,16.6c20.09,4.63,40.35,8.36,60.71,11.58,9.41,1.49,18.85,2.77,28.29,4.1C207.13,697.49,211.22,697.94,215.67,698.49Zm187.6,33.66c4.95-.13,10.62.07,16.27-0.46,4-.37,8.06-0.39,12.08-0.76,7.86-.73,15.71-1.64,23.51-2.92a281.4,281.4,0,0,0,53.26-13.85,208.43,208.43,0,0,0,32.16-15,26.38,26.38,0,0,0,6.34-5.21,8.26,8.26,0,0,0,2.28-5.07c0.26-3.85.69-7.7,0.83-11.56a224.3,224.3,0,0,0-.52-26.51,210.08,210.08,0,0,0-3.53-25,172.87,172.87,0,0,0-16-45.81,80.57,80.57,0,0,0-6.89-11.47,111.73,111.73,0,0,0-16.65-17.16,202,202,0,0,0-23.34-16.92,101.65,101.65,0,0,0-13.34-7.24,99,99,0,0,1-16.24-8.9,40.87,40.87,0,0,1-7.68-6.44c-2.07-2.34-2.21-2-3.8.34a72.1,72.1,0,0,1-13.43,15.2,57.9,57.9,0,0,1-32.17,13.76c-3.43.34-6.86,0.31-10.28,0.56a43.43,43.43,0,0,1-9.24-.42c-10.14-1.41-19-5.72-26.89-12.14A73.79,73.79,0,0,1,336.15,514c-0.35-.49-0.66-1-1-1.48-0.75-1-1.24-1-2.1-.26-0.51.46-1,1-1.45,1.46a80.63,80.63,0,0,1-10.48,9.12,180.54,180.54,0,0,1-39.8,22,43.34,43.34,0,0,0-5.57,2.67,68.47,68.47,0,0,0-11.46,8.29,41.51,41.51,0,0,0-9.43,11.81c-3.17,6.1-6.12,12.3-8.68,18.68a260.41,260.41,0,0,0-13.39,45.94c-1.79,8.93-3.13,17.93-4.19,27a125.13,125.13,0,0,0-1,19.79,38.7,38.7,0,0,0,1.14,7.63,22.3,22.3,0,0,0,1.59,4.35,5.77,5.77,0,0,0,2.83,2.86c3.73,1.75,7.4,3.64,11.16,5.33A295.74,295.74,0,0,0,283.1,713c15.52,4.49,31.26,8.05,47.14,11,12,2.21,24,4.12,36.14,5.6q7.41,0.91,14.84,1.7a105.54,105.54,0,0,0,13.35.89C397.23,732.11,399.9,732.15,403.27,732.15Zm1.83-526.42a1.1,1.1,0,0,0-.66,1c-0.41,1.4-.75,2.82-1.19,4.21-0.2.63-.13,1.76-0.79,1.74-0.95,0-.72-1.18-0.85-1.88q-1.34-7.09-2.62-14.18a6.05,6.05,0,0,0-2.32-3.84,39.78,39.78,0,0,1-12.95-18.84,65.47,65.47,0,0,1-2.29-30,31.12,31.12,0,0,0,.25-7.68,51.13,51.13,0,0,0-7.91-22.65c-6.34-9.81-15.12-16.76-25.65-21.61A19.1,19.1,0,0,0,344,90.62c-3-.62-6.06-1.24-9.08-1.9a24.38,24.38,0,0,0-6.14-.57c-5.32.2-10.63,0.48-16,.43-2.15,0-4.29.07-6.44,0a9.37,9.37,0,0,0-4.45,1.09,52,52,0,0,0-8.45,5.41,61.88,61.88,0,0,0-12.17,13.22,20,20,0,0,0-2.52,4.75,33.32,33.32,0,0,1-9.41,13.64,40.15,40.15,0,0,1-13.76,7.91,57.09,57.09,0,0,1-16.92,3,100,100,0,0,1-22.54-1.85,18.72,18.72,0,0,0-10.14.82,26.17,26.17,0,0,0-12.75,9.62c-3.68,5.13-5.62,11-6.78,17.1a28.39,28.39,0,0,0-.53,6.66c0.14,2.91.3,5.83,0.37,8.75,0.24,9.35.44,18.71,0.67,28.06,0.05,2.23.18,4.46,0.25,6.69a11,11,0,0,1-.1,1.78,0.63,0.63,0,0,1-1,.3c-0.43-.41-0.82-0.87-1.24-1.3s-1.08-1.1-1.64-1.63a0.5,0.5,0,0,0-.47,0,0.56,0.56,0,0,0-.21.43c0,0.43.08,0.85,0.13,1.28,0.22,2.22.55,4.44,0.63,6.66,0.23,6.18.39,12.36,0.53,18.53a11.85,11.85,0,0,0,.95,4.5c1.26,2.92,2.46,5.86,3.72,8.77,2.9,6.7,5.59,13.49,8.77,20.06,2.84,5.88,5.69,11.75,8.61,17.58a142.54,142.54,0,0,1,8.33,19.94c0.74,2.29,1.63,4.53,2.38,6.81,1.62,4.89,3.55,9.67,5,14.62,3.22,11,6.51,22.07,9.74,33.11a14.58,14.58,0,0,0,1.91,4.19c1.5,2.2,2.94,4.44,4.45,6.63a123,123,0,0,0,18.13,21,66.89,66.89,0,0,0,17.39,11.85,42.19,42.19,0,0,0,27.64,3c3.18-.73,3.25-0.84,2.67-3.93a86.26,86.26,0,0,1-1.75-15.34c-0.06-10.47-.34-20.95.46-31.41a53.8,53.8,0,0,1,3-14.57,79.72,79.72,0,0,1,16.81-26.91,114.44,114.44,0,0,1,32.3-24c2.33-1.19,4.51-2.4,6-4.61a16.81,16.81,0,0,1,2.32-2.4,9,9,0,0,1,1.42-1.1,1.89,1.89,0,0,1,2.39,0,1,1,0,0,0,1.57-.14,7.28,7.28,0,0,1,2.36-1.9c0.25,0.85-.38,1.19-0.68,1.65a26.37,26.37,0,0,0-2.5,4.2,1.49,1.49,0,0,0,.49,2,7.05,7.05,0,0,0,.84.6c1.11,0.68,1.55.62,2.5-.26,0.39-.36.56-1,1.45-1-0.52,1.16-1,2.15-1.4,3.18A1.08,1.08,0,0,0,372,297a0.87,0.87,0,0,0,1-.65c0.11-.23.21-0.47,0.29-0.72a21.81,21.81,0,0,1,7.52-9.92c1.08-.85,2.25-1.57,3.36-2.38a13.47,13.47,0,0,0,4.72-5.62c4.38-10.08,8.69-20.19,13.36-30.14,1.13-2.41,2.05-4.91,3.14-7.34a10.5,10.5,0,0,0,.83-5.78,81.69,81.69,0,0,1-.4-9q-0.19-9.27-.43-18.54A1.37,1.37,0,0,0,405.11,205.73Zm348,442.47a192.41,192.41,0,0,0-16.62-81.6,124.63,124.63,0,0,0-7.87-14.77c-4.4-7-10.17-12.74-16.26-18.19a188.77,188.77,0,0,0-25-18.61,97.87,97.87,0,0,0-11.84-6.77c-4-1.81-7.94-3.7-11.79-5.79A58.19,58.19,0,0,1,649,491.78c-2.1-2.21-2.16-2.19-3.84.33a73.47,73.47,0,0,1-11.13,13.14,58.39,58.39,0,0,1-26.63,14.48,84.52,84.52,0,0,1-26.13,1.58,48.78,48.78,0,0,1-22.38-7.9,65.5,65.5,0,0,1-18.71-18.2c-0.69-1-1.32-2-2-3s-1.13-.9-1.89-0.14c-1.28,1.27-2.48,2.62-3.81,3.83a121.9,121.9,0,0,1-17.91,13.42,195.51,195.51,0,0,1-22.89,12.32,8.05,8.05,0,0,0-1.54.91,0.61,0.61,0,0,0,0,.92,10,10,0,0,0,1.4,1.12c2.34,1.59,4.72,3.13,7,4.75a194.08,194.08,0,0,1,29.21,24.41,114.49,114.49,0,0,1,14.63,18.92,135.48,135.48,0,0,1,12.46,26.81A185.14,185.14,0,0,1,563,631.66a207.34,207.34,0,0,1,2.76,31.78,263,263,0,0,1-1,27.27,20.36,20.36,0,0,1-2.06,7.38,36.66,36.66,0,0,1-4.7,6.75,18.93,18.93,0,0,0-1.39,1.84,0.6,0.6,0,0,0,.3.87,4.82,4.82,0,0,0,1.23.33c2.29,0.34,4.58.71,6.88,1,6.9,0.84,13.8,1.71,20.71,2.43a103.31,103.31,0,0,0,12.59.76c8.15-.15,16.31.09,24.46-0.45,3.94-.26,7.89-0.44,11.82-0.78q11.8-1,23.51-2.89a281.07,281.07,0,0,0,54.73-14.33,210,210,0,0,0,31-14.59,28.24,28.24,0,0,0,5.49-4.24,9.78,9.78,0,0,0,3.29-6.51c0.2-3.17.49-6.34,0.58-9.51C753.22,655.25,753.14,651.72,753.14,648.2ZM479.61,376c0,1.37,0,2.75,0,4.12,0,3,.08,3.17,2.82,4.53l0.23,0.11a257.67,257.67,0,0,1,24.84,13.6c0.61,0.38,1.25,1.17,2,.56,0.61-.47.32-1.29,0.2-2a88.67,88.67,0,0,1-1-15.4c0-.6,0-1.2,0-1.8s-0.34-.41-0.7-0.41c-0.59,0-.62-0.51-0.66-0.92-0.19-2.14-.43-4.27-0.51-6.42a109.61,109.61,0,0,1,1-20.29,73.18,73.18,0,0,1,5.26-19.06,46.58,46.58,0,0,0,2-5.29A62.78,62.78,0,0,1,538,294.92a83.42,83.42,0,0,1,25.46-12.69A102,102,0,0,1,584.67,278a100.3,100.3,0,0,1,18.25,0c1.79,0.16,3.59.29,5.39,0.48a2.58,2.58,0,0,0,2.5-1c0.78-1,1.57-2,2.31-3.1a185.18,185.18,0,0,0,17.4-30,132.84,132.84,0,0,0,9.31-27.79,14.57,14.57,0,0,1,1.36-3.87,80.53,80.53,0,0,0,3.73-8.2c3.67-9.38,6.19-19.1,8.64-28.85a47.26,47.26,0,0,0,1.2-14.07,19.59,19.59,0,0,0-1.48-6.5,14.61,14.61,0,0,0-1.13-2,0.52,0.52,0,0,0-.44-0.16,0.53,0.53,0,0,0-.35.31,13.14,13.14,0,0,0-.4,1.75,2.16,2.16,0,0,1-2.34,2.19,2.71,2.71,0,0,0-2.42,1.21,1.41,1.41,0,0,1-1.84.42c-0.4-.15-0.8-0.31-1.19-0.49A67.78,67.78,0,0,1,623,144.57a76.62,76.62,0,0,1-19.71-32.76c-0.2-.66-0.4-1.31-0.65-2a0.7,0.7,0,0,0-1.06-.37c-0.91.48-1.81,1-2.66,1.56-1.36.91-2.66,1.9-4,2.81A211.56,211.56,0,0,1,566,130.18a239.55,239.55,0,0,1-34.92,13.14A315.1,315.1,0,0,1,481,153.82c-4.85.58-9.74,1-14.62,1.2-6.78.29-13.56,0.19-20.35,0-1.37,0-2.74-.18-4.11-0.28-2-.13-3.94-0.29-5.91-0.38a1.35,1.35,0,0,0-1.59,1.32c-0.11.68-.1,1.37-0.17,2.05-0.21,2-.42,3.92-0.65,5.88a0.51,0.51,0,0,1-.55.42,0.61,0.61,0,0,1-.43-0.23c-0.4-.66-0.8-1.32-1.15-2-1.09-2.14-2.18-4.29-3.22-6.45a3.13,3.13,0,0,0-2.79-2c-0.43,0-.85-0.15-1.28-0.17a1.41,1.41,0,0,0-1.74,1.44q-0.57,5.89-1,11.8a10.51,10.51,0,0,0,.19,2.3c0.19,1.27.39,2.55,0.66,3.81,1.32,6.12,2.63,12.25,4,18.36a24.75,24.75,0,0,0,5.7,11.4,5.36,5.36,0,0,1,1.43,3.22q0.23,2.43.56,4.86a140.3,140.3,0,0,0,13.79,43.51,158.46,158.46,0,0,0,25.49,36.69,4.8,4.8,0,0,1,1.36,4.17,159.17,159.17,0,0,1-7,32.15c-0.44,1.3-.84,2.62-1.34,3.9a3.43,3.43,0,0,0,.62,3.83c0.28,0.32.52,0.68,0.77,1a58.33,58.33,0,0,1,7.05,12.83C478.24,357.36,479.48,366.59,479.61,376Zm-168,43.23c0,3.09,0,6.18,0,9.27a18.64,18.64,0,0,0,.58,4.84c0.92,3.49,1.81,7,2.75,10.46a15.25,15.25,0,0,0,2,4.46,7.67,7.67,0,0,0,3.27,3.19,3.39,3.39,0,0,1,2,2.21c0.72,2,1.44,4,2.19,6.06a151.45,151.45,0,0,0,6.87,15.82c0.39,0.75.67,1.64,1.87,1.11a0.73,0.73,0,0,1,.78.55c0.31,0.61.6,1.24,0.87,1.87,2.08,4.81,4.18,9.61,6.22,14.43a68.73,68.73,0,0,0,12,19.11,55.92,55.92,0,0,0,17.72,13.47,43.41,43.41,0,0,0,26.89,3.46c9.16-1.61,16.89-6.08,23.63-12.36a67.87,67.87,0,0,0,13-16.85,33,33,0,0,1,2.65-4.7,7.16,7.16,0,0,0,1.49-5.26c0-.43,0-0.86,0-1.29a5.5,5.5,0,0,1,1.42-4A81.25,81.25,0,0,0,449.84,469c2-4,3.74-8.11,5.36-12.27a12.68,12.68,0,0,1,2.17-3.77,24.62,24.62,0,0,0,3.32-5.2,84.82,84.82,0,0,0,4.12-10.27,12.65,12.65,0,0,0,.5-6.84c-0.25-1.17-.36-2.38-0.52-3.57-0.81-5.87-1.7-11.73-2.42-17.61-0.65-5.37-1.1-10.76-2-16.1a155.43,155.43,0,0,0-6.59-27.25,40.48,40.48,0,0,0-5.32-10.25,54.63,54.63,0,0,0-5.73-6.61c-9.28-9.35-20.8-13.05-33.64-13.06a60,60,0,0,0-18.51,2.89,7.42,7.42,0,0,1-3.55.24q-3.3-.53-6.64-0.88a92.48,92.48,0,0,0-22.35.16,52.3,52.3,0,0,0-22.95,8.59,36.48,36.48,0,0,0-10.84,11.21,11.75,11.75,0,0,1-1.54,2.05,21,21,0,0,0-4,6.27A60.82,60.82,0,0,0,315.31,378a160.34,160.34,0,0,0-3,23C311.85,407.05,311.42,413.14,311.57,419.24ZM663,406.77a38.34,38.34,0,0,0-.63-7.39,44.67,44.67,0,0,0-3.8-12,6,6,0,0,0-1.25-1.93,0.89,0.89,0,0,0-1.47.2,0.89,0.89,0,0,1-1.31.32,23.06,23.06,0,0,0-4.69-1.34,127.48,127.48,0,0,1-14.12-4c-19.59-6.87-36.69-17.8-51.82-31.91a155.21,155.21,0,0,1-18-19.83c-1.29-1.71-2.53-3.46-3.85-5.16-0.81-1-1.23-1.1-2.45-.56-0.39.17-.77,0.37-1.15,0.58a87.49,87.49,0,0,0-10.75,7.07,94.8,94.8,0,0,0-14.28,13.71,107.8,107.8,0,0,0-16,25.12c-1,2.19-1.92,4.4-2.92,6.59a5.61,5.61,0,0,0-.46,2.25,101.15,101.15,0,0,0,.79,17,86.89,86.89,0,0,0,3.13,13.8,6.47,6.47,0,0,1,.13,4.28,10.38,10.38,0,0,0-.42,3.31,46.07,46.07,0,0,0,.88,9.21c0.62,3.46,1.28,6.92,2.11,10.34,0.78,3.19,2.4,5.88,5.51,7.39a3.29,3.29,0,0,1,1.77,2.39c0.18,0.75.38,1.5,0.59,2.24a64.33,64.33,0,0,0,4.2,10.78,0.82,0.82,0,0,0,.58.42,0.78,0.78,0,0,0,.52-0.47c0.27-.72.45-1.47,0.7-2.19a0.49,0.49,0,0,1,.85,0c0.37,0.68.73,1.36,1,2.06,2.11,4.89,4.24,9.76,6.3,14.67a67.86,67.86,0,0,0,5.92,11.12,59.11,59.11,0,0,0,21.79,20.34,44.27,44.27,0,0,0,20.25,5.27,42.48,42.48,0,0,0,18.49-3.93c10.58-4.85,18.37-12.77,24.53-22.46a3.69,3.69,0,0,0,.78-2.15c-0.12-1.91,1-3.2,2.1-4.52a138.87,138.87,0,0,0,10.9-14.66,141.73,141.73,0,0,0,8.77-15.73c0.82-1.7,1.55-3.44,2.27-5.19,0.21-.52.7-1.16,0.1-1.65-0.45-.36-1,0.08-1.41.31a19,19,0,0,1-3.83,1.49c-0.74.2-1.51,0.34-2.27,0.48a0.9,0.9,0,0,1-.94-0.27,0.8,0.8,0,0,1,.06-1c0.33-.5.7-1,1-1.47,1.17-1.69,2.42-3.34,3.5-5.09A51,51,0,0,0,663,406.77Zm139.07,191.3c0.09-8.18-.37-15.8-0.93-23.42-0.62-8.4-1.59-16.75-2.86-25.07a483.8,483.8,0,0,0-17.12-72.63q-7.12-22.61-16-44.6a29.43,29.43,0,0,0-6.11-9.44,73.25,73.25,0,0,0-11.2-9.45,163.89,163.89,0,0,0-17.41-10.51,349.78,349.78,0,0,0-41.74-18.27c-2.49-.92-2.77-0.74-3.13,1.88-0.47,3.4-.8,6.82-1.36,10.21a76.9,76.9,0,0,1-11.54,30.08c-0.14.22-.27,0.44-0.42,0.65a3.8,3.8,0,0,0-.63,3.65c0.13,0.41.21,0.83,0.32,1.25a89,89,0,0,1,2.64,13.9,61.55,61.55,0,0,1-1.88,23.22,63.94,63.94,0,0,1-7.23,16.17c-1.52,2.5-1.48,2.64,1,4.18a99,99,0,0,0,12.14,6.22,43.93,43.93,0,0,1,4.59,2.33A245.08,245.08,0,0,1,704,511.9c10.23,7.44,20,15.42,28.43,24.9A112.88,112.88,0,0,1,744,552.25c6.9,11.08,11.73,23.1,15.45,35.57a209.7,209.7,0,0,1,8.28,54.33c0,0.51,0,1,.06,1.54,0.11,1.15.58,1.44,1.76,1.1,0.16,0,.32-0.12.48-0.18,5.08-1.87,10.17-3.72,15.06-6a46.3,46.3,0,0,0,11.72-7.85,12.81,12.81,0,0,0,4.27-9C801.58,613.66,802.29,605.62,802.11,598.07Zm-327.16-182a67.62,67.62,0,0,1-1,8.85,138.48,138.48,0,0,1-4.57,16.63c-1.57,4.46-3.28,8.89-6.08,12.74a31.31,31.31,0,0,0-3.88,7.23c-0.43,1.12-.89,2.24-1.37,3.33-3.41,7.71-7.15,15.26-12.37,21.93-1.82,2.32-1.64,4.76-1.2,7.32a2.24,2.24,0,0,0,1.92,1.85c0.92,0.2,1.84.43,2.77,0.59a3.39,3.39,0,0,1,2.45,1.69,21.43,21.43,0,0,0,3.9,4.77,67.59,67.59,0,0,0,16.12,10.53,3.5,3.5,0,0,0,3.22,0c1.32-.63,2.66-1.21,4-1.82A256.56,256.56,0,0,0,509,495.7q2.4-1.51,4.72-3.14c1-.69,1-1.24.37-2.15a13.28,13.28,0,0,0-1.18-1.36,23.51,23.51,0,0,1-2.7-3.44,72.82,72.82,0,0,1-5.45-9.63,60.16,60.16,0,0,1-5.56-30.58,75.17,75.17,0,0,1,6.73-25.27c0.32-.7.64-1.41,0.9-2.13a1.19,1.19,0,0,0-.37-1.4c-0.8-.64-1.62-1.27-2.48-1.84a233.11,233.11,0,0,0-23.5-13.37c-0.46-.23-0.93-0.45-1.41-0.64-1.58-.64-2-0.46-2.43,1.11-0.59,2.15-1.09,4.33-1.71,6.47a10.64,10.64,0,0,0-.37,4.33C474.73,413.86,474.84,415.06,474.95,416.1Zm-48-206.22a7.64,7.64,0,0,0-1.64-5.12,31.88,31.88,0,0,1-5.57-12.08c-0.39-1.67-.65-3.37-1-5a16.4,16.4,0,0,0-.66-2.21,0.36,0.36,0,0,0-.63-0.07,8.15,8.15,0,0,0-.65,1.38c-0.6,1.52-1.16,3-1.78,4.56a5.11,5.11,0,0,1-3,3,5.26,5.26,0,0,0-3.51,5.41c0,10.82.53,21.63,0.62,32.45a17.58,17.58,0,0,0,.25,2.82,8.87,8.87,0,0,1-.52,4.8c-0.68,1.76-1.34,3.54-2.1,5.26-2.33,5.26-4.74,10.49-7.07,15.75-2.89,6.52-5.73,13.05-8.58,19.58-0.24.55-.45,1.11-0.64,1.68a0.6,0.6,0,0,0,.06.48,0.51,0.51,0,0,0,.69.09c0.46-.23.9-0.51,1.36-0.74,0.61-.31,1.22-0.64,1.85-0.89a1,1,0,0,1,1.44.65c0.17,0.48.24,1,.38,1.49a26.8,26.8,0,0,0,1,3.2c2.28,5.31,5.95,9.61,10.12,13.51,0.44,0.41.67,0.27,0.95-.52s0.55-.82,1.06-0.46a11.79,11.79,0,0,1,2.33,2.39,4.06,4.06,0,0,0,2.75,1.72,4,4,0,0,1,1.68.58,8.71,8.71,0,0,0,3.85,1.37,5.69,5.69,0,0,1,3.4,1.61,4,4,0,0,0,1.55.87,120.63,120.63,0,0,1,11.38,4.12c0.3,0.13.7,0.3,0.89-.12a0.92,0.92,0,0,0-.19-0.7c-0.28-.43-0.62-0.82-0.94-1.23a88.19,88.19,0,0,1-10.39-16.85,82.74,82.74,0,0,1-7.89-31A102.59,102.59,0,0,1,420.49,232a144.9,144.9,0,0,1,5.64-18.2A8.74,8.74,0,0,0,426.94,209.88Z" transform="translate(-6 -6.07)"/>
	</symbol>
	<symbol title="icon" viewBox="0 0 53 53" id="icon-first-car">
		<title>first-car</title>
		<path d="M9.5 53.7c-1 0-1.8-.7-2-1.6L-.7 9.9c-.1-.5 0-1.1.3-1.5.3-.4.8-.7 1.3-.8L43.1-.6c1.1-.2 2.1.5 2.3 1.6l8.2 42.2c.2 1.1-.52.1-1.6 2.3L9.9 53.7h-.4zm34-52.4L1.3 9.5l8.2 42.2 42.2-8.2-8.2-42.2z"/>
		<path d="M26.3 15c1.4-.3 2.6-.3 3.7-.1s2 .6 2.7 1.2c.7.6 1.3 1.2 1.8 2 .4.8.8 1.7.9 2.6.2.9.2 1.8.1 2.7-.1.9-.4 1.8-.9 2.6s-1.21.5-2.1 2.1c-.9.6-2.1 1-3.5 1.3l-5.2 1 1.6 8-4.9 1L16.1 17l10.2-2zm.7 10.8c.6-.1 1.1-.3 1.6-.4.5-.2.9-.4 1.3-.8.4-.3.6-.7.8-1.2.2-.5.2-1.1 0-1.8-.1-.7-.4-1.3-.7-1.7-.3-.4-.7-.7-1.2-.8-.4-.2-.9-.2-1.5-.2-.5 0-1.1.1-1.7.2l-3.8.7 1.3 6.7 3.9-.7z"/>
	</symbol>
	<symbol title="icon" viewBox="93.996 31.5 42 42" id="icon-fuel-consumption">
		<title>fuel-consumption</title>
		<g id="fuel-pump">
			<path id="pump-window" d="M116.746,40.445h-6.505c-0.705,0-1.275,0.587-1.275,1.302V49.7c0,0.715,0.57,1.301,1.275,1.301h6.505c0.697,0,1.265-0.586,1.265-1.301v-7.953C118.013,41.032,117.443,40.445,116.746,40.445z"/>
			<path id="pump-icon" d="M114.996,31.5c-11.598,0-21,9.402-21,21s9.402,21,21,21c11.6,0,21-9.402,21-21S126.593,31.5,114.996,31.5z M126.981,48.881v9.768v0.009c0,0.764-0.297,1.497-0.838,2.038c-1.039,1.037-1.882,0.962-2.611,0.283c-0.586-0.539-1.058-1.513-1.058-2.855V51.87c0-1.054-2.315-0.981-3.005-0.896v10.446h0.734c0.479,0,0.846,0.399,0.846,0.896v1.281c0,0.489-0.391,0.896-0.871,0.896h-13.33c-0.479,0-0.869-0.403-0.869-0.896v-1.281c0-0.493,0.39-0.896,0.869-0.896h0.62V40.457c0-0.807,0.557-1.465,1.233-1.465h9.533c0.678,0,1.232,0.658,1.232,1.465v8.911c1.205-0.078,4.534,0.036,4.534,1.752v7.001c0,2.453,1.5,1.286,1.5,0.533v-0.008V48.88l0.229-2.369l-0.824-2.167c-0.697-1.169-1.41-1.708-1.41-1.713l0.455-0.622c0.01,0.003,0.803,0.609,1.582,1.906l1.121,0.964l0.637,2.605L126.981,48.881z"/>
		</g>
	</symbol>
	<symbol title="icon" viewBox="0 0 48.8 18.2" id="icon-hatchback">
		<title>hatchback</title>
		<g id="hatchback">
			<g id="alloy-front">
				<path d="M39.5,12.5c0.5,0,1,0.4,1,1c0,0.5-0.4,1-1,1c-0.5,0-1-0.4-1-1C38.5,12.9,38.9,12.5,39.5,12.5z"/>
				<path d="M38.2,10l1.2,1.4l1.2-1.4l-0.9,2.7h-0.6L38.2,10z"/>
				<path d="M42.7,11.5l-1.1,1.5l1.6,1l-2.9-0.4l-0.1-0.6L42.7,11.5z"/>
				<path d="M36.3,11.5l1.1,1.5l-1.6,1l2.9-0.4l0.1-0.6L36.3,11.5z"/>
				<path d="M40.6,17l0.1-1.8l1.8,0.3L40,13.9l-0.5,0.4L40.6,17z"/>
				<path d="M38.2,17l-0.1-1.8l-1.8,0.3l2.5-1.5l0.5,0.4L38.2,17z"/>
			</g>
			<path id="tyre-front" d="M39.5,9.4c-2.2,0-4,1.8-4,4c0,2.2,1.8,4,4,4c2.2,0,4-1.8,4-4C43.5,11.2,41.7,9.4,39.5,9.4z M39.5,16.3c-1.6,0-2.8-1.3-2.8-2.8c0-1.6,1.3-2.8,2.8-2.8c1.6,0,2.8,1.3,2.8,2.8C42.3,15,41,16.3,39.5,16.3z"/>
			<g id="alloy-rear">
				<path d="M7.1,12.5c0.5,0,1,0.4,1,1c0,0.5-0.4,1-1,1s-1-0.4-1-1C6.1,12.9,6.6,12.5,7.1,12.5z"/>
				<path d="M5.9,10l1.2,1.4L8.4,10l-0.9,2.7H6.8L5.9,10z"/>
				<path d="M10.3,11.5l-1.1,1.5l1.6,1l-2.9-0.4l-0.1-0.6L10.3,11.5z"/>
				<path d="M4,11.5l1.1,1.5l-1.6,1l2.9-0.4l0.1-0.6L4,11.5z"/>
				<path d="M8.3,17l0.1-1.8l1.8,0.3l-2.5-1.5l-0.5,0.4L8.3,17z"/>
				<path d="M5.8,17l-0.1-1.8l-1.8,0.3l2.5-1.5l0.5,0.4L5.8,17z"/>
			</g>
			<path id="tyre-rear" d="M7.1,9.4c-2.2,0-4,1.8-4,4c0,2.2,1.8,4,4,4c2.2,0,4-1.8,4-4C11.1,11.2,9.3,9.4,7.1,9.4z M7.1,16.3c-1.6,0-2.8-1.3-2.8-2.8c0-1.6,1.3-2.8,2.8-2.8s2.8,1.3,2.8,2.8C9.9,15,8.7,16.3,7.1,16.3z"/>
			<path id="body" d="M48.6,13.7c-0.1-0.1-0.1-0.2-0.1-0.2l0.1-1.7l0-1.6c0,0-0.5-2.2-4.5-3.2c-0.6-0.1-1.6-0.4-2.2-0.6c-2.5-0.6-5-0.8-5-0.8s-2-1.1-4.1-2.2c-1.9-0.9-3.9-1.8-3.9-1.8c-3-1.5-8.5-1.7-8.5-1.7s-4.8,0-9.3,0.3c-3.7,0.3-5,0.1-5,0.1C5.8,0.5,5.9,0.7,6.1,0.8C6.2,1,6.3,1.1,6.3,1.1C3.6,3.2,2.2,5.4,2.2,5.4L1.3,8.5L0.5,9.6c-0.2,0.1-0.2,1.2-0.2,1.2C0.1,10.8,0,11,0,11l0,1.3l0.6,0.8c0.6,0.6,0.7,0.5,0.7,0.5l1,0.5c0,0,0,0,0,0c-0.1-0.9,0-2.1,0.7-3.2c2-2.9,6-3,8.1,0c1,1.4,0.7,3.3,0.5,4.1c0,0,0,0,0,0L35,15.3c0,0-1-2.5,0.3-4.5c2.1-3,6.3-2.8,8.2,0c1.2,1.8,0.5,4.4,0.5,4.4c2.7-0.3,4.6-1,4.6-1s0.2-0.1,0.2-0.3C48.8,13.9,48.6,13.8,48.6,13.7z M4.9,5c-0.9,0.9-1,2.8-1,2.8C3.3,7.6,2.8,7.3,2.8,7.3c-0.3-0.9,0.4-2,0.4-2C4,4.2,4.9,3.9,4.9,3.9C5.3,4.7,4.9,5,4.9,5z M31.2,4c-0.3,0.2-0.4,0.6-0.4,0.6v0.7L30.4,6l-8.9-0.7L21,0.9C26.6,1.1,31.2,4,31.2,4z M24.5,7.5c-0.8-0.3-2-0.1-2-0.1s-0.3,0-0.5-0.1c-0.2,0-0.2-0.1-0.2-0.1c0-0.5,0.3-0.4,0.3-0.4C22.8,6.9,24.3,7,24.3,7c0.5,0,0.5,0.3,0.5,0.3C25.1,7.5,24.5,7.5,24.5,7.5z M10.2,2.8c0.4-1,2.5-1.8,2.5-1.8s1.5-0.2,3-0.2c1.7,0,3.4,0.1,3.4,0.1l0,4.2c-6.4-0.1-9.4-1-9.4-1S9.9,3.6,10.2,2.8z M10.5,9.9C8.9,8.1,8.8,7.1,8.8,7.1C8.6,6.2,8.6,5.3,8.6,5.3c0-0.1,0.5-0.9,0.5-0.9c0,0.1-0.3,0.9-0.3,0.9c0,0.5,0.2,1.7,0.2,1.7c0.1,0.8,1.6,2.6,1.6,2.6l0.2,0.3L10.5,9.9z M12.8,6.7c-0.8-0.3-2-0.1-2-0.1s-0.3,0-0.5-0.1c-0.2,0-0.2-0.1-0.2-0.1C10,6,10.4,6,10.4,6c0.7,0.1,2.1,0.2,2.1,0.2c0.5,0,0.5,0.3,0.5,0.3C13.3,6.7,12.8,6.7,12.8,6.7z M33.3,14.5L33.3,14.5L33.3,14.5L12.9,14l0.2-0.1l7.3,0.2C20.7,9.3,20.6,7,20.6,7l-0.2-1.6l0.1,0L20.7,7c0.2,3.4-0.1,7.1-0.1,7.1L33.3,14.5c-0.1,0,0.5-4.1,0.5-6.9l-0.5-1.4l0.1,0L34,7.5C34,7.5,34,10,33.3,14.5z M46.7,12.7c-0.2,0.6-0.5,0.3-0.5,0.3c-0.4-0.7,0.2-0.9,0.2-0.9C47,11.9,46.7,12.7,46.7,12.7z M47.2,9.8C46.6,9.6,44.6,9,44.6,9c-0.2-0.2-2.2-1.2-2.2-1.2c-0.4-0.6,1.4-0.4,3,0.1c1.1,0.3,1.5,0.8,1.5,0.8C47.3,8.9,47.8,9.9,47.2,9.8z"/>
		</g>
	</symbol>
	<symbol title="icon" viewBox="93.996 31.5 42 42" id="icon-insuranceGroup">
		<title>insuranceGroup</title>
		<path id="shield" d="M103.684,45.949c1.045,6.793,3.843,16.637,11.313,19.508c7.462-2.867,10.26-12.689,11.308-19.479c-4.533-0.953-9.106-2.468-11.343-4.41C112.664,43.475,107.989,44.953,103.684,45.949z M114.996,62.971c-5.837-2.551-8.121-10.804-8.994-16.041c3.385-1.035,6.845-1.721,8.951-3.451c2.062,1.764,5.487,2.484,9.031,3.494C123.109,52.202,120.825,60.426,114.996,62.971z"/>
		<path id="insurance-icon" d="M114.996,31.5c-11.598,0-21,9.402-21,21s9.402,21,21,21c11.6,0,21-9.402,21-21S126.593,31.5,114.996,31.5z M114.996,67.49c-9.631-3.107-12.59-15.617-13.501-23.184c5.458,0,13.501-5.316,13.501-5.316s7.554,5.316,13.503,5.316C127.589,51.872,124.63,64.381,114.996,67.49z"/>
	</symbol>
	<symbol title="icon" viewBox="0 0 841.9 595.3" id="icon-long-distance">
		<title>long-distance</title>
		<g>
			<path d="M156.1,34.8c3.1-3.1,6.2-5.1,9.2-5.1s6.2,1,9.2,4.1l124.2,129.4l7.2-7.2l-27.8-29L307,77.9c1-1,2.1-2.1,3.1-2.1c1,0,2.1,0,3.1,1l82.9,61l-26.4,55.1l10.3,4.1l46.2-98.6c0-1,1-2.1,2.1-2.1s2.1,0,3.1,1l119.4,92.9L519.5,233l8.2,6.2L663.2,53.3c4.1-5.1,9.2-8.2,14.4-8.2c5.1,0,10.3,3.1,14.4,8.2l104.7,144.8l8.2-6.2L700.2,47.1c-6.2-8.2-14.4-12.3-22.6-12.3c-9.2,0-16.4,4.1-22.6,12.3l-98.4,135L437.4,90.2c-3.1-3.1-7.2-4.1-11.3-3.1c-4.1,0-7.2,3.1-9.2,7.2l-16.3,34.1l-81.2-59.7c-3.1-3.1-7.2-4.1-11.3-3.1c-4.1,1-7.2,4.1-10.3,7.2l-27.2,46.3l-88.8-92.5c-5.1-5.1-11.3-7.2-17.5-7.2c-6.2,0-12.3,3.1-16.4,9.2L6.2,227.8l8.2,6.2L156.1,34.8z"/>
			<polygon points="836.8,246.3 0,246.3 0,256.6 337.6,256.6 43.1,580 137.6,580 361.2,256.6 410.4,256.6 409.7,268.9 432.2,268.9 431.5,256.6 480.7,256.6 704.3,580 798.8,580 504.3,256.6 836.8,256.6"/>
			<polygon points="408.6,284.3 406.6,310 435.3,310 433.3,284.3"/>
			<polygon points="397.3,454.7 391.2,555.3 450.7,555.3 444.6,454.7"/>
			<polygon points="401.4,389 440.5,389 437.4,343.8 404.5,343.8"/>
		</g>
	</symbol>
	<symbol title="icon" viewBox="0 0 58.4 23.1" id="icon-mpv">
		<title>mpv</title>
		<g id="mpv">
			<g id="alloy-front">
				<path d="M47.9,17.3c0.5,0,1,0.4,1,1c0,0.5-0.4,1-1,1s-1-0.4-1-1C46.9,17.8,47.4,17.3,47.9,17.3z"/>
				<path d="M46.7,14.8l1.2,1.4l1.2-1.4l-0.9,2.7h-0.6L46.7,14.8z"/>
				<path d="M51.1,16.3l-1.1,1.4l1.6,1l-2.9-0.4l-0.1-0.6L51.1,16.3z"/>
				<path d="M44.7,16.3l1.1,1.4l-1.6,1l2.9-0.4l0.1-0.6L44.7,16.3z"/>
				<path d="M49.1,21.8l0.1-1.8l1.8,0.3l-2.5-1.5L48,19.1L49.1,21.8z"/>
				<path d="M46.6,21.8L46.6,20l-1.8,0.3l2.5-1.5l0.5,0.4L46.6,21.8z"/>
			</g>
			<path id="tyre-front" d="M47.9,14.2c-2.2,0-4,1.8-4,4c0,2.2,1.8,4,4,4s4-1.8,4-4C51.9,16.1,50.1,14.2,47.9,14.2z M47.9,21.1c-1.6,0-2.8-1.3-2.8-2.8s1.3-2.8,2.8-2.8c1.6,0,2.8,1.3,2.8,2.8S49.4,21.1,47.9,21.1z"/>
			<g id="alloy-rear">
				<path d="M10.4,17.3c0.5,0,1,0.4,1,1c0,0.5-0.4,1-1,1c-0.5,0-1-0.4-1-1C9.4,17.8,9.8,17.3,10.4,17.3z"/>
				<path d="M9.2,14.8l1.2,1.4l1.2-1.4l-0.9,2.7h-0.6L9.2,14.8z"/>
				<path d="M13.5,16.3l-1.1,1.4l1.6,1l-2.9-0.4L11,17.7L13.5,16.3z"/>
				<path d="M7.2,16.3l1.1,1.4l-1.6,1l2.9-0.4l0.1-0.6L7.2,16.3z"/>
				<path d="M11.5,21.8l0.1-1.8l1.8,0.3l-2.5-1.5l-0.5,0.4L11.5,21.8z"/>
				<path d="M9.1,21.8L9,20l-1.8,0.3l2.5-1.5l0.5,0.4L9.1,21.8z"/>
			</g>
			<path id="tyre-rear" d="M10.3,14.2c-2.2,0-4,1.8-4,4c0,2.2,1.8,4,4,4s4-1.8,4-4C14.4,16.1,12.6,14.2,10.3,14.2z M10.4,21.1c-1.6,0-2.8-1.3-2.8-2.8s1.3-2.8,2.8-2.8s2.8,1.3,2.8,2.8S11.9,21.1,10.4,21.1z"/>
			<path id="body" d="M58.3,17.1c0,0,0.2-1.8-0.2-3.1c0,0-0.8-1.3-1.7-2.3c-1-1.1-2.1-1.6-2.1-1.6s-1.6-1-3.5-1.5C48.7,8,46,6.8,46,6.8s-9.2-5.6-14.2-6.2c0,0-5.2-0.8-12.8-0.6C12.9,0.2,7.1,0.8,7.1,0.8S4.4,1,4.1,1.2C3.8,1.4,5.5,1.9,5.2,2.1c-1,0.9-2,2-2.9,3.7c-0.2,0.4-1,0.3-1.2,0.8c0,0,0.5,0.5,0.1,0.8C0.9,7.6,0.6,8,0.6,8.6v4.3c0,0-0.6,0.4-0.6,0.9c0,0.9,0,2.2,0.2,2.9c0.1,0.3,0.4,0.7,0.4,0.7s0,1.3,2.2,1.9l3,0.6c0,0-0.5-2.5,0.6-4.1c2.1-3,5.9-2.9,8,0c1.1,1.6,0.6,4.5,0.6,4.5h28.5c0,0-0.6-2.8,0.6-4.5c2.1-3,5.8-3,8,0c1.2,1.7,0.5,4.5,0.5,4.5h4C56.5,20.2,59.1,19.1,58.3,17.1z M4.3,9c-0.6,0.3-2.7,1.1-2.7,1.1C1.1,9.3,1.5,8.3,1.5,8.3c0.4-0.6,1.1-0.5,1.1-0.5c1.6-0.1,1.8,0.3,1.8,0.3C5.2,8.7,4.3,9,4.3,9z M39.3,4.8C39.5,5,39.8,5.6,39.9,6c0,0.2-0.2,0.2-0.2,0.5c0,0.5,0.1,0.9,0.1,0.8l-0.8,1.4L29.4,8l-1-6.6C28.5,1.4,33.7,1.1,39.3,4.8z M32.8,10.5c-0.8-0.3-2-0.1-2-0.1s-0.3,0-0.5-0.1c-0.2,0-0.2-0.1-0.2-0.1c0-0.5,0.3-0.4,0.3-0.4c0.7,0.1,2.1,0.2,2.1,0.2c0.5,0,0.5,0.3,0.5,0.3C33.3,10.5,32.8,10.5,32.8,10.5z M22.7,1.2c2.6,0,5.2,0.2,5.2,0.2l-0.2,6.4L15.9,7.2l1.7-5.8C17.6,1.4,20.2,1.2,22.7,1.2z M18.1,9.8c-0.8-0.3-2-0.1-2-0.1s-0.3,0-0.5-0.1c-0.2,0-0.2-0.1-0.2-0.1c0-0.5,0.3-0.4,0.3-0.4c0.7,0.1,2.1,0.2,2.1,0.2c0.5,0,0.5,0.3,0.5,0.3C18.7,9.9,18.1,9.8,18.1,9.8z M11.7,7.2c0,0-0.5-0.1-0.8-0.5c-0.6-0.7-1.9-2.3-2-3c0,0-1.1-1.4,1.2-1.7l7-0.6c0,0-1.4,3.7-1.9,5.8H11.7z M42,19l-24.6,0l0-0.1l0-0.9c0-0.2-0.1-0.7-0.1-0.8c-0.9-2.9-2.2-5.3-2.2-5.3C14.3,10.9,14.7,9,14.7,9c0-0.2,0.1-0.6,0.1-0.6c0,0,0.1,0,0.1,0L14.9,9c-0.4,2.3,0.3,2.9,0.3,2.9c1.4,2.8,2,4.4,2.2,5.2c0.1,0.4,0.1,0.9,0.1,0.9l0,0.8l0,0l11.4,0c0.1-0.8,0.2-2.2,0.2-2.2s0.2-2-0.2-5.6c-0.1-1-0.2-1.5-0.2-1.8l0,0.1c0,0,0-0.6,0-0.1l0,0l0.1,0.1c0,0-0.1-1.3,0.2,1.8c0.3,2.8,0.3,5.6,0.3,5.6c0,0.9-0.2,2.2-0.2,2.2l-0.1,0l13,0L42,19L42,19z M41.9,18.8h-0.2c0,0,0.9-1.6,0.7-5.9c0,0,0-1.7-0.7-2.9c0,0-0.1-0.2,0.1,0c0,0,0.4,0.5,0.5,1.2c0.2,0.8,0.2,1.8,0.2,1.8S42.9,16.7,41.9,18.8z M55.8,18.1c-0.3,0.4-0.4,0.2-0.4,0.2c-0.7-1,0.3-1.4,0.3-1.4C56.2,16.7,55.8,18.1,55.8,18.1z M55.9,13.7c-2.2-0.9-3.5-2-3.5-2C51.6,11,52.7,11,52.7,11c1.3,0.1,2.3,0.5,2.3,0.5C56.3,12.3,55.9,13.7,55.9,13.7z"/>
		</g>
	</symbol>
	<symbol title="icon" viewBox="93.996 31.5 42 42" id="icon-number-of-doors">
		<title>number-of-doors</title>
		<path id="door" d="M114.996,31.5c-11.598,0-21,9.402-21,21s9.402,21,21,21c11.6,0,21-9.402,21-21S126.593,31.5,114.996,31.5z M128.495,54.77c0,0-2.815,0.869-4.37,2.824c-1.622,2.043-1.982,3.676-1.982,3.676c0,0.953-0.713,1.729-1.591,1.729h-14.046c-0.877,0-1.588-0.771-1.588-1.729c0,0-1.928-4.178-1.928-9.336c0-4.291,0-8.224,0-8.224c0-0.953,0.711-1.726,1.588-1.726h15.974c0.878,0,1.703,0.515,2.386,1.726l5.562,7.776L128.495,54.77L128.495,54.77z"/>
		<path id="window" d="M104.51,50.982v-7.03c0,0-0.08-0.431,0.396-0.431h15.105c0,0,0.866-0.06,1.332,0.858l4.787,6.603H104.51L104.51,50.982z"/>
		<path id="handle" d="M105.723,53.993h5.164c0,0-0.281,1.294-2.385,1.294C108.502,55.287,106.178,55.344,105.723,53.993z"/>
	</symbol>
	<symbol title="icon" viewBox="0 0 71 46" id="icon-off-road">
		<title>off-road</title>
		<g>
			<g transform="translate(7.5)">
				<path d="M21.5,36.5c-8.6,0.2-15.7-6.7-15.9-15.3C5.4,12.7,12.3,5.6,20.9,5.4c8.6-0.2,15.7,6.7,15.9,15.3C36.9,29.3,30.1,36.4,21.5,36.5L21.5,36.5z M41.5,27l0.9-4.9L40.9,21c0-0.1,0-0.1,0-0.2l1.4-1.1l-0.9-4.9l-1.7-0.5c0-0.1,0-0.1-0.1-0.2l1-1.5l-2.5-4.3l-1.8,0.1c0,0-0.1-0.1-0.1-0.1l0.4-1.8l-3.8-3.2L31,3.9c0,0-0.1-0.1-0.1-0.1l-0.2-1.8l-4.7-1.7l-1.4,1.2c-0.1,0-0.1,0-0.2,0L23.6,0h-5l-0.8,1.6c-0.1,0-0.1,0-0.2,0l-1.3-1.2l-4.7,1.7L11.3,4c0,0-0.1,0.1-0.1,0.1L9.5,3.4L5.7,6.6l0.4,1.8c0,0-0.1,0.1-0.1,0.1L4.2,8.4l-2.5,4.3l1,1.5c0,0.1,0,0.1-0.1,0.2L0.9,15L0,19.9L1.5,21c0,0.1,0,0.1,0,0.2L0,22.3l0.9,4.9l1.7,0.5c0,0.1,0,0.1,0.1,0.2l-1,1.5l2.5,4.3l1.8-0.1c0,0,0.1,0.1,0.1,0.1l-0.4,1.8l3.8,3.2l1.7-0.7c0,0,0.1,0.1,0.1,0.1l0.2,1.8l4.7,1.7l1.4-1.2c0.1,0,0.1,0,0.2,0l0.8,1.6h5l0.8-1.6c0.1,0,0.1,0,0.2,0l1.3,1.2l4.7-1.7L31,38c0,0,0.1-0.1,0.1-0.1l1.7,0.7l3.8-3.2l-0.4-1.8c0,0,0.1-0.1,0.1-0.1l1.8,0.1l2.5-4.3l-1-1.5c0-0.1,0-0.1,0.1-0.2L41.5,27z"/>
				<path d="M21.2,32.1c-6,0-10.9-4.9-10.9-10.9c0-6,4.9-10.9,10.9-10.9s10.9,4.9,10.9,10.9C32.1,27.2,27.2,32.1,21.2,32.1z M21.2,11.4c-5.4,0-9.9,4.4-9.9,9.9s4.4,9.9,9.9,9.9s9.9-4.4,9.9-9.9S26.7,11.4,21.2,11.4z"/>
				<g transform="translate(16.48 16.02)">
					<ellipse cx="4.5" cy="5.1" rx="1.8" ry="1.9"/>
					<path d="M4.5,2.1c0.6,0,1.1-0.5,1.1-1.1C5.5,0.5,5.1,0,4.5,0c-0.6,0-1,0.5-1,1.1C3.5,1.7,3.9,2.1,4.5,2.1L4.5,2.1z M4.5,8.1c-0.6,0-1,0.5-1,1.1c0,0.6,0.5,1.1,1,1.1c0.6,0,1.1-0.5,1.1-1.1C5.5,8.6,5.1,8.1,4.5,8.1L4.5,8.1z M0.5,4.1C0.7,4.2,0.9,4.2,1,4.2C1.4,4.2,1.8,4,2,3.7c0.3-0.5,0.1-1.2-0.4-1.5C1.4,2.1,1.2,2.1,1.1,2.1c-0.4,0-0.7,0.2-0.9,0.5C-0.1,3.1,0,3.8,0.5,4.1L0.5,4.1z M8.5,6.2C8.3,6.1,8.1,6,7.9,6C7.6,6,7.2,6.3,7,6.6C6.7,7.1,6.9,7.8,7.4,8.1c0.2,0.1,0.3,0.1,0.5,0.1c0.4,0,0.7-0.2,0.9-0.6C9.1,7.1,9,6.5,8.5,6.2L8.5,6.2z M1.1,6.2c-0.2,0-0.4,0.1-0.6,0.2c-0.5,0.3-0.6,1-0.3,1.5c0.2,0.3,0.5,0.5,0.9,0.5c0.2,0,0.4-0.1,0.6-0.2C2.2,7.9,2.3,7.2,2,6.7C1.8,6.4,1.5,6.2,1.1,6.2L1.1,6.2z M7.9,4.1c0.2,0,0.4,0,0.6-0.2c0.5-0.3,0.6-1,0.3-1.5C8.5,2.1,8.2,1.9,7.9,1.9C7.7,1.9,7.5,2,7.3,2.1C7.1,2.2,6.9,2.5,6.8,2.7C6.8,3,6.8,3.3,7,3.5C7.2,3.9,7.5,4.1,7.9,4.1L7.9,4.1z"/>
				</g>
			</g>
			<path d="M26.5,46h-14v-5c0-0.9,0.8-1.4,1.6-1.1L26.7,45L26.5,46z M13.5,45h10.4l-10.2-4.2c-0.1,0-0.1,0-0.1,0c0,0-0.1,0-0.1,0.2V45z"/>
			<g>
				<path d="M38.9,47H26.5c-1.1,0-2-0.9-2-2v-1.5c0-1.1,0.9-2,2-2h12.4c1.1,0,2,0.9,2,2V45C40.9,46.1,40,47,38.9,47z M26.5,43.5V45h12.4l0-1.5H26.5z"/>
			</g>
			<path d="M40.9,46c-0.4,0-0.8-0.2-1-0.4c-0.3-0.3-0.4-0.7-0.4-1.1l0.2-4.2c0-0.7,0.6-1.5,1.2-1.9L47,35c0.5-0.3,1.5-0.5,2.1-0.6l5.3-0.2c0,0,0,0,0,0c0.6,0,1.2,0.3,1.6,0.7c0,0,0,0,0,0v-2.2c0-0.8,0.5-1.6,1.2-1.9l3.6-1.5c0.7-0.3,1.7,0,2.1,0.7l2.2,3.8c0.4,0.7,0.3,1.6-0.3,2.1l-2.8,2.5l1.4-0.3c0.7-0.1,1.6,0.2,2.1,0.7l5.5,6.8H55.8l1.9-5.2c0.2-0.7,1-1.3,1.7-1.5l0.5-0.1c-0.1,0-0.1-0.1-0.2-0.1L57,37c-0.1,0-0.1-0.1-0.2-0.2l0.6,1.6c0.3,0.6,0.2,1.6,0,2.2l-1.7,3.9c-0.3,0.7-1.1,1.2-1.9,1.2L40.9,46z M54.5,35.3l-5.3,0.2c-0.5,0-1.2,0.2-1.7,0.4l-6.2,3.3c-0.3,0.2-0.7,0.7-0.7,1.1l-0.2,4.2c0,0.1,0,0.2,0.1,0.3c0.1,0.1,0.2,0.1,0.3,0.1v0.5l0-0.5l12.9-0.2c0.4,0,0.8-0.3,1-0.6l1.7-3.9c0.2-0.4,0.2-1.1,0-1.4l-1.2-2.9C55.3,35.6,54.8,35.3,54.5,35.3z M57.2,44.7h11.7l-4.2-5.2c-0.2-0.3-0.8-0.5-1.1-0.4l-4,0.8c-0.4,0.1-0.8,0.5-0.9,0.8L57.2,44.7z M61.5,30.3c-0.1,0-0.2,0-0.2,0l-3.6,1.5C57.3,32,57,32.4,57,32.8V35c0,0.4,0.3,1,0.6,1.2l2.6,1.8c0.3,0.2,0.7,0.2,0.9,0l3-2.7c0.2-0.2,0.3-0.6,0.1-0.9l-2.2-3.8C62,30.4,61.7,30.3,61.5,30.3z"/>
			<rect y="45" width="71" height="1"/>
			<path d="M13.7,46H0.5l0.2-7.5c0-0.8,0.6-1.5,1.4-1.7l6.3-1.3c0.8-0.2,1.6,0.3,1.9,1L13.7,46z M1.5,45h10.8l-2.9-8.1c-0.1-0.3-0.4-0.5-0.7-0.4l-6.3,1.3c-0.3,0.1-0.6,0.4-0.6,0.7L1.5,45z"/>
		</g>
	</symbol>
	<symbol title="icon" viewBox="0 0 57.2 24.7" id="icon-other">
		<title>other</title>
		<g id="van">
			<path id="tyre-front" d="M46.8,15.7c-2.3,0-4.1,1.9-4.1,4.1c0,2.3,1.9,4.1,4.1,4.1c2.3,0,4.1-1.9,4.1-4.1C50.9,17.5,49.1,15.7,46.8,15.7z M46.8,22.7c-1.6,0-2.9-1.3-2.9-2.9c0-1.6,1.3-2.9,2.9-2.9c1.6,0,2.9,1.3,2.9,2.9C49.7,21.4,48.4,22.7,46.8,22.7z"/>
			<path id="tyre-rear" d="M10,15.7c-2.3,0-4.1,1.9-4.1,4.1c0,2.3,1.9,4.1,4.1,4.1s4.1-1.9,4.1-4.1C14.2,17.5,12.3,15.7,10,15.7z M10.1,22.7c-1.6,0-2.9-1.3-2.9-2.9c0-1.6,1.3-2.9,2.9-2.9s2.9,1.3,2.9,2.9C12.9,21.4,11.7,22.7,10.1,22.7z"/>
			<path id="body" d="M57.2,16.6c-0.5-0.5-1.3-0.9-1.3-0.9c-0.2-0.5-0.8-1.6-0.8-1.6c-0.4-1.1-1.5-1.4-1.5-1.4c-4.6-1.6-8.4-1.8-8.4-1.8l-0.5-0.5l-0.1,0.2l-0.2-0.1l-0.2-0.2l-0.3,0.1c-0.7-0.4-1.3-1.1-1.3-1.1c-4.7-4.4-9.5-6.9-9.5-6.9C31,1,28.7,1,28.7,1C11-0.3,5.6,0.1,5.6,0.1C4.4,0.1,4,1.1,4,1.1C2.9,3.8,2.4,7.8,2.4,7.8c-0.3,0-0.4,0-0.4,0c0,0.4,0.3,0.5,0.3,0.5C2.1,10.3,2,15.1,2,15.1c-0.4,0.1-0.2,0.7-0.2,0.7l0.3,0l0,1.2c0,0-0.7,0-0.9,0.2C1,17.5,1.3,18,1.3,18l0.1,1c0,0,0,0.3,0.3,0.5c0.2,0.1,0.7,0.1,0.7,0.1l0,0.6c0,0,0.6,0,1.4-0.2l1.3,0c0,0,0,0,0,0c0-0.9,0.1-2,0.7-2.8c2.2-3.1,6-3,8.1,0c1.2,1.7,0.6,4.6,0.6,4.6h27.5c0,0-0.6-2.9,0.6-4.6c2.2-3,6-3.1,8.1,0c0.8,1.1,0.8,2.8,0.7,3.8c0,0,0,0,0,0l0.3,0l0,0.4l2.8-0.1l0-0.5l0.2-0.1c0,0,1.6-0.4,1.9-1.1C56.8,19.7,57.2,19,57.2,16.6L57.2,16.6z M39.4,8l0.1,0.8c-0.5,0.5-2.2,3.1-2.2,3.1c-0.3,0-0.5-0.2-0.5-0.2L35.9,11l-0.5-5.6C37.2,6.7,39.4,8,39.4,8z M28.2,4.2l3.8,0.2c1.2,0.1,3,0.7,3,0.7l0.6,5.9l-7-0.3l-0.8-6.2C27.7,4.2,28.2,4.2,28.2,4.2z M27.5,12c0.7,0.1,2.2,0.2,2.2,0.2c0.5,0,0.6,0.3,0.6,0.3c0.2,0.3-0.4,0.2-0.4,0.2c-0.9-0.3-2-0.1-2-0.1s-0.3,0-0.5-0.1c-0.2,0-0.2-0.1-0.2-0.1C27.1,11.9,27.5,12,27.5,12z M3.8,11.7l0,3c0,0.4-0.3,0.4-0.3,0.4C3,15.1,2.8,15,2.8,15c-0.1-2.4,0-4,0-4l0.7,0c0,0,0.2,0,0.3,0.2C3.9,11.4,3.8,11.7,3.8,11.7z M40.5,20v0.2l-23.9-0.6l0-0.1h0l0-0.8c0-0.3-0.1-0.7-0.1-0.9c-0.2-1.6-1.8-3.1-1.8-3.1s0-2.7,0-4c0,0,0,0,0,0c0,0-10.6-0.2-10.6-0.2s-0.2,0-0.4-0.1C3.6,10.3,3.6,10,3.6,10l11.1,0.2c0,0,0,0,0,0c0-0.2,0-0.3,0-0.3l0.4-8c0,0,0-0.2,0.2-0.4c0.2-0.1,0.4-0.1,0.4-0.1l10.5,0.1c0,0,0.2,0,0.4,0.2c0.1,0.1,0.1,0.4,0.1,0.4l-0.1,17.5L40.5,20l-0.2,0c0.3-2.8,1.1-3.4,1.1-3.4l0-4.1h0.2l0,4.1C40.6,17.7,40.5,20,40.5,20L40.5,20z M55,15.5c-2.3-0.9-3.6-2-3.6-2c-0.9-0.7,0.2-0.7,0.2-0.7c1.3,0.1,2.3,0.5,2.3,0.5C55.4,14.1,55,15.5,55,15.5z M56.5,19.2c-0.3,0.4-0.4,0.2-0.4,0.2c-0.7-1,0.3-1.4,0.3-1.4C56.9,17.8,56.5,19.2,56.5,19.2z"/>
			<path id="door-rear" d="M26.4,1.8c-0.1-0.1-0.3-0.2-0.3-0.2L15.6,1.6c0,0-0.2,0-0.3,0.1c-0.1,0.1-0.1,0.3-0.1,0.3l-0.4,8.3l0,4.5c1.6,1.5,1.7,2.9,1.7,3c0.1,0.5,0.1,0.9,0.1,0.9l0,0.8l9.7,0.2l0.1-17.5C26.5,2.2,26.4,2,26.4,1.8z M16.5,11c-0.9,0-0.8-1.1-0.8-1.1L15.9,5c0-1,1-0.9,1-0.9h7.7c1.1-0.1,1.1,0.7,1.1,0.7l0,5.3c0.1,1-0.7,0.9-0.7,0.9L16.5,11z M25.3,12.6c-0.9-0.3-2-0.1-2-0.1s-0.3,0-0.5-0.1c-0.2,0-0.2-0.1-0.2-0.1c0-0.5,0.3-0.4,0.3-0.4c0.7,0.1,2.2,0.2,2.2,0.2c0.5,0,0.6,0.3,0.6,0.3C25.9,12.6,25.3,12.6,25.3,12.6z"/>
			<path id="window-panel" d="M16,5.1l-0.2,4.8c0,0-0.1,1,0.8,1l8.2,0c0,0,0.8,0.1,0.7-0.9l0-5.1c0,0,0-0.8-1-0.7l-7.5,0C16.9,4.3,16,4.1,16,5.1z"/>
			<g id="alloy-front">
				<path d="M46.8,18.8c0.5,0,1,0.4,1,1c0,0.5-0.4,1-1,1c-0.5,0-1-0.4-1-1C45.8,19.3,46.3,18.8,46.8,18.8z"/>
				<path d="M45.6,16.3l1.3,1.4l1.3-1.4l-1,2.8h-0.6L45.6,16.3z"/>
				<path d="M50.1,17.8l-1.2,1.5l1.6,1l-2.9-0.5l-0.1-0.6L50.1,17.8z"/>
				<path d="M43.6,17.8l1.2,1.5l-1.6,1l2.9-0.5l0.1-0.6L43.6,17.8z"/>
				<path d="M48,23.4l0.1-1.9l1.9,0.3l-2.5-1.5l-0.5,0.4L48,23.4z"/>
				<path d="M45.5,23.4l-0.1-1.9l-1.9,0.3l2.5-1.5l0.5,0.4L45.5,23.4z"/>
			</g>
			<g id="alloy-rear">
				<path d="M10.1,18.8c0.5,0,1,0.4,1,1c0,0.5-0.4,1-1,1s-1-0.4-1-1C9.1,19.3,9.5,18.8,10.1,18.8z"/>
				<path d="M8.8,16.3l1.3,1.4l1.3-1.4l-1,2.8H9.8L8.8,16.3z"/>
				<path d="M13.3,17.8l-1.2,1.5l1.6,1l-2.9-0.5l-0.1-0.6L13.3,17.8z"/>
				<path d="M6.8,17.8L8,19.3l-1.6,1l2.9-0.5l0.1-0.6L6.8,17.8z"/>
				<path d="M11.3,23.4l0.1-1.9l1.9,0.3l-2.5-1.5l-0.5,0.4L11.3,23.4z"/>
				<path d="M8.8,23.4l-0.1-1.9l-1.9,0.3l2.5-1.5l0.5,0.4L8.8,23.4z"/>
			</g>
		</g>
	</symbol>
	<symbol title="icon" viewBox="0 0 827.57 435.42" id="icon-performance">
		<title>performance</title>
		<path d="M254.61,112.49c-27.92,33.36-39,67.74-43.21,110.7l-2.18,20.39,79.5,6.44,1.19-18.22c3.17-23.66,11.78-47.32,25.74-66.63l5.35-7.52-58.86-54.87Zm39.55,44.07c-14,21.48-22.57,45-24.75,69.8l-36.53-3.27c3.27-33.27,10.74-64,32.23-93Z"/>
		<path d="M554,124.29L437.91,202.5a42,42,0,0,0-12.77-1.88,43.11,43.11,0,1,0,40.49,28.71Z"/>
		<path d="M520.78,134l43-38.71c0-1.09-1.09-2.08-2.18-3.17A200.33,200.33,0,0,0,434.84,39.44V97.89C466,101.15,498.3,112.51,520.78,134Z"/>
		<path d="M172.78,263.49l-37,37a20.91,20.91,0,0,0-11.29-3.27A21.48,21.48,0,1,0,146,318.73a20.91,20.91,0,0,0-3.27-11.29l37-37Z"/>
		<path d="M419.79,107.16l-1.34-79.5-11.78,1.09c-49.5,3.17-90,22.57-126.58,55.84l-4.26,4.26-8.61,7.52L326.34,149l8.61-6.44a134.89,134.89,0,0,1,76.23-34.35ZM400.49,88.84a155.25,155.25,0,0,0-73.06,32.28L299.51,96.37c27.92-24.65,59.7-40.79,98.41-45.15Z"/>
		<path d="M763.53,263.49l-37,37a20.91,20.91,0,0,0-11.29-3.27,21.48,21.48,0,1,0,21.48,21.48,20.91,20.91,0,0,0-3.27-11.29l37-37Z"/>
		<path d="M578.79,111.42l-38.71,44.06A139.23,139.23,0,0,1,568,228.54l1.09,9.7,9.7-1.09,37.62-3.27,9.7-1.09v-9.7H626C621.76,181.21,605.62,142.5,578.79,111.42Z"/>
		<path d="M800.12,237.48A116.81,116.81,0,0,0,716.85,203c-20.59,0-39.5,4.75-56.33,14.06v-0.89l-0.1-.59a52.44,52.44,0,0,1-1-5.45,64.69,64.69,0,0,0-1.19-6.44v-0.2l-0.1-.2a33.74,33.74,0,0,1-.89-4.55,43.38,43.38,0,0,0-1.19-6c-0.5-2.18-1.09-4.06-1.58-5.94s-1.09-3.66-1.58-5.74c-1.09-4.46-2.28-7.82-3.37-11.09-0.59-1.78-1.49-3.86-2.28-5.74s-1.49-3.56-2-5a56.13,56.13,0,0,0-2.38-5.45,34,34,0,0,1-1.78-4.06,46.67,46.67,0,0,0-4.06-9.6c-0.5-.89-1-1.78-1.49-2.77a28.77,28.77,0,0,0-2.48-5,17.81,17.81,0,0,1-1.68-3.37l-0.2-.59-0.4-.59L626,120.66l-1.58-2.38-0.3-.4-0.3-.3-0.3-.3a22,22,0,0,0-4.26-7.52,30,30,0,0,0-6.63-9.9l-0.69-1.49-0.4-.69-0.59-.59a32,32,0,0,1-2.28-2.67c-0.79-1-1.68-2.18-2.77-3.37a57.15,57.15,0,0,0-7.33-8.42l-0.69-1.49L595.67,79a6.56,6.56,0,0,1-1.78-1.88,25,25,0,0,0-2.28-2.57A46.58,46.58,0,0,0,587.46,71a35.81,35.81,0,0,1-3.37-2.87l-0.3-.3-0.4-.3-2.28-1.58a22.12,22.12,0,0,0-3.66-3.76c-0.69-.59-1.29-1.09-1.88-1.68L575,59.87l-0.69-.4A28,28,0,0,1,568.05,55l-0.2-.2-0.3-.2-4.26-3.27-0.4-.3-0.4-.2A13.73,13.73,0,0,1,560,49.18a26.24,26.24,0,0,0-3.66-2.48c-1.58-1.09-3-1.88-4.26-2.67s-2.48-1.49-4-2.48L544,38.38l-0.4-.3-0.4-.2-6.44-3.27c-0.5-.3-1.29-0.69-2-1.09a45.21,45.21,0,0,0-6.93-3.37l-4-2-6.44-3.27-0.3-.2-0.3-.1c-3.17-1.09-6.44-2.18-10.79-3.27l-4.85-2A21.93,21.93,0,0,0,497.17,18,9.41,9.41,0,0,1,495,17.3l-0.3-.2-0.3-.1c-1.68-.59-3.66-1.09-5.54-1.68s-3.66-1.09-5.15-1.58l-0.3-.1-0.3-.1-5.35-1.09-0.5-.1h-0.2a1.84,1.84,0,0,1-.69-0.2,19.88,19.88,0,0,0-4.26-.89c-2.28-.5-4.36-0.79-6.53-1.09a51.26,51.26,0,0,1-5.84-1S433.31,7,425.29,7s-15.84.3-23.46,0.79a12.73,12.73,0,0,0-4.06.79,6.14,6.14,0,0,1-1.09.3h-0.5l-0.5.1-5.35,1.09h-0.2a52.44,52.44,0,0,1-5.45,1,50.9,50.9,0,0,0-5.94,1.09,8.36,8.36,0,0,0-2.38.59,9.73,9.73,0,0,1-2.18.5h-0.79l-0.79.3-5.74,1.88a39.79,39.79,0,0,0-10.4,2.38l-0.3.1-0.3.2a9.41,9.41,0,0,1-2.18.69,19.54,19.54,0,0,0-3.86,1.29l-6.14,2.08c-1.78.59-3.17,1.19-4.55,1.68s-2.57,1-4.06,1.49l-0.3.1-0.3.2-3.27,1.58L328,28.78,321.53,32a16,16,0,0,0-1.78,1,31.44,31.44,0,0,1-6.83,3l-0.5.1-0.5.2a20.52,20.52,0,0,0-3.17,1.88,15.76,15.76,0,0,1-2.18,1.29l-0.2.1-0.2.1L301,42.84c-0.4.2-.89,0.4-1.29,0.59a25.39,25.39,0,0,0-6.73,4,18.92,18.92,0,0,0-3.27,2.67,6.32,6.32,0,0,1-1.39,1.19l-0.5.2-0.59.4-5.35,4.26-0.2.2-0.2.2a32,32,0,0,1-2.67,2.28,32.65,32.65,0,0,0-3.27,2.67,12.51,12.51,0,0,0-3.17,2.67A6.32,6.32,0,0,1,271,65.31l-0.5.2-0.4.3-5,4a34.46,34.46,0,0,0-7.23,6l-0.59.59-0.4.69a6.84,6.84,0,0,1-1.19,1.39,14.66,14.66,0,0,0-2.77,3.47l-3.86,4.85a40.29,40.29,0,0,0-3,3.56A20.2,20.2,0,0,1,243.82,93a28.63,28.63,0,0,0-5,6.34l-3.86,5.84a30.17,30.17,0,0,0-5.94,7.43l-3.17,6.24-3.17,5.25-0.3.5-0.2.5A16.71,16.71,0,0,1,220,129a31.74,31.74,0,0,0-1.88,3.07l-0.79,1.58-2.38,4.85-3.27,6.44q-0.89,1.93-1.78,4.16c-0.5,1.19-1,2.48-1.49,3.37l-0.5,2.18c0,1-.89,2.67-1.58,4.26l-0.2.3-0.1.3-2.08,6.14c-0.59,1.19-1.09,2.48-1.58,3.76s-1,2.48-1.49,3.37a21.36,21.36,0,0,0-1.49,5,10.43,10.43,0,0,1-.69,2.57l-0.2.3-0.1.3-2.18,6.44a31,31,0,0,0-1.19,4.85c-0.3,1.29-.5,2.38-0.89,3.66l-0.3.79v0.79a18.46,18.46,0,0,1-.4,2.77,21,21,0,0,0-.59,4.26l-1,6.14-0.1.4v0.4a20.71,20.71,0,0,1-.4,3.37,25.59,25.59,0,0,0-.59,5.25V221A118.34,118.34,0,0,0,41.45,235.5a117.72,117.72,0,0,0,83.26,201A119.29,119.29,0,0,0,229.26,374.3a2.33,2.33,0,0,0,.5.5,10.35,10.35,0,0,1,1,1.39,18.57,18.57,0,0,0,1.78,2.38,134.75,134.75,0,0,0,10.89,15.15l0.2,0.2,0.2,0.2,0.79,0.79c3.37,4.46,7.72,8.81,13.17,14.16l3.27,3.27,0.2,0.2,0.3,0.2a84.64,84.64,0,0,1,10.2,9.21l3.27,3.27,3.76,3.76,3.47-4,13.56-15.54,55.84-1.18v21.28c0,7.52,5.35,12.87,11.78,12.87H481.62c6.44,0,11.78-6.44,11.78-12.87V407a15.23,15.23,0,0,0-.1-1.7L544,404.2l22.18,22.18,3,3,3.37-2.57,4.26-3.27a139.86,139.86,0,0,0,13.46-12.28L593.5,408a135.79,135.79,0,0,0,12.08-13.17l1.88-1.88a77.8,77.8,0,0,0,7.92-9.8l0.89-1.19a116,116,0,0,0,39.5,37.92A118.62,118.62,0,0,0,799.13,402c22.28-21.88,34.95-50.79,35.44-81.28A117.22,117.22,0,0,0,800.12,237.48ZM715.22,420.9c-40.79,0-77.32-23.66-93.46-60.19L617.5,351l-4.16,10.49c-1.09,1.09-1.09,2.18-2.18,3.27l-3.27,5.35a180,180,0,0,1-10.79,15l-2.18,2.18a116.58,116.58,0,0,1-10.79,11.78l-3.27,3.27a32.41,32.41,0,0,1-8.61,8.61l-20.39-20.39L289.7,396l-10.79,12.87c-1.09-2.08-3.17-3.17-5.35-5.35l-3.27-3.27a151,151,0,0,1-12.87-14l-1.09-2.18c-3.27-4.26-6.44-9.7-9.7-14l-2.18-4.26c-4.36-6.44-7.52-10.79-9.7-16.14l-6.44-10.79-4.26,11.78c-14,41.88-52.57,70.89-97.72,70.89-55.84,0-102.07-46.23-102.07-102.07S70.51,217.45,126.35,217.45c27.92,0,52.67,9.7,72,29l8.61,8.61V219.63c0-2.18,1.09-5.35,1.09-7.52l1.09-7.52c0-2.18,1.09-4.26,1.09-6.44,1.09-2.18,1.09-5.35,2.18-7.52l2.18-6.44c1.09-2.18,1.09-4.26,2.18-6.44a15.34,15.34,0,0,1,2.18-7.52l2.18-6.44c1.09-2.18,1.09-4.26,2.18-6.44a51.35,51.35,0,0,1,3.27-7.52l3.27-6.44a20,20,0,0,0,3.27-5.35c1-2.18,3.17-4.26,4.26-6.44l3.27-6.44c1.09-2.08,2.18-3.17,3.27-5.35s3.17-4.26,4.26-6.44l4.26-5.35c2.08-2.08,3.17-3.17,4.26-5.35L262,97.36,266.24,92l4.26-4.26c1.09-2.08,3.17-3.17,5.35-5.35l5.64-4.75c1-1,2.08-3.17,4.26-4.26,2.18-2.08,4.26-3.17,6.44-5.35l5.35-4.26c2.08-1.09,3.17-2.18,5.35-3.27,2.08-2.08,4.26-3.17,5.35-5.35l6.44-3.27c2.08-1.09,3.17-2.18,5.35-3.27s5.35-2.18,7.52-3.27L334,42.11c2.08,0,3.17-1.09,5.35-2.18,3.17-1.09,5.35-2.18,6.44-3.27l6.44-2.18c2.08-1.09,3.17-1.09,5.35-2.18s5.35-1.09,8.61-2.18L372.57,28c2.08,0,3.17-1.09,5.35-1.09,4.26-1.09,7.52-2.18,11.78-2.18,0,0,5.74-1.09,6.83-1.09,1-1.09,3.17-1.09,4.26-1.09a312.31,312.31,0,0,1,45.15,0c1,1.09,3.17,1.09,4.26,1.09l5.35,1.09c4.26,1.09,8.61,1.09,12.87,2.18,2.08,0,3.17,1.09,5.35,1.09l6.44,2.18c3.27,0,6.44,1.09,9.7,2.18,2.08,1.09,3.17,1.09,5.35,2.18l5.35,2.18c3.27,1.09,5.35,2.18,8.61,3.27,2.08,0,3.17,1.09,5.35,2.18l5.35,2.18c3.27,1,5.35,3.17,8.61,4.26A51.36,51.36,0,0,0,536,51.82l4.26,3.27c2.18,1,5.35,2.08,7.52,4.26,2.08,1,3.17,3.17,5.35,4.26l4.26,3.27c2.18,2.08,5.35,3.17,7.52,5.35,2.08,1,3.17,3.17,5.35,4.26l3.27,3.27L580,86.17l5.35,5.35,2.18,2.18c2.18,2.18,4.26,5.35,6.44,7.52,1,2.18,3.17,4.26,4.26,6.44l1.09,2.18c2.18,3.27,4.26,5.35,6.44,8.61,1,2.18,3.17,4.26,4.26,6.44l1.09,2.18c2.08,3.27,3.17,6.44,5.35,9.7,2.08,2.18,3.17,5.35,4.26,7.52v1.09c1,3.27,3.17,6.44,4.26,9.7a41.42,41.42,0,0,1,4.26,9.7c2.08,3.27,3.17,7.52,4.26,10.79s2.18,6.44,3.27,9.7,2.18,7.52,3.27,10.79,1.09,6.44,2.18,9.7a32.13,32.13,0,0,1,2.18,10.79c0,3.27,1.09,7.52,1.09,10.79v16.24l8.61-6.44a102.12,102.12,0,0,1,61.18-20.39c55.84,0,102.07,46.23,102.07,102.07S771.06,420.9,715.22,420.9Z"/>
	</symbol>
	<symbol title="icon" viewBox="0 0 48.8 18.2" id="icon-pickup">
		<title>pickup</title>
		<g id="Vans_x2F_Trucks">
			<g id="ic_pickup" transform="translate(-1.000000, 0.000000)">
				<g id="coupe" transform="translate(4.806391, 14.089963)">
					<g id="alloy-front" transform="translate(46.869564, 0.690337)">
						<path d="M-9.6-1.7c0.4,0,0.8,0.4,0.8,0.8s-0.4,0.8-0.8,0.8s-0.8-0.4-0.8-0.8S-10-1.7-9.6-1.7L-9.6-1.7z"/>
						<polygon points="-10.6,-3.8 -9.6,-2.7 -8.6,-3.8 -9.4,-1.5 -9.8,-1.5"/>
						<polygon points="-7,-2.6 -8,-1.3 -6.7,-0.5 -9,-0.9 -9.1,-1.4"/>
						<polygon points="-12.2,-2.6 -11.2,-1.3 -12.5,-0.5 -10.2,-0.9 -10.1,-1.4"/>
						<polygon points="-8.7,2.1 -8.6,0.5 -7.1,0.7 -9.1,-0.5 -9.5,-0.2"/>
						<polygon points="-10.6,2.1 -10.7,0.5 -12.2,0.7 -10.2,-0.5 -9.8,-0.2"/>
					</g>
					<path id="tyre-front" d="M37.3-3.7c-1.8,0-3.3,1.5-3.3,3.4s1.5,3.4,3.3,3.4c1.8,0,3.3-1.5,3.3-3.4S39.1-3.7,37.3-3.7L37.3-3.7z M37.3,2.2C36,2.2,35,1.1,35-0.2s1-2.4,2.3-2.4c1.3,0,2.3,1.1,2.3,2.4C39.5,1.1,38.5,2.2,37.3,2.2L37.3,2.2z"/>
					<g id="alloy-rear" transform="translate(6.957798, 0.690337)">
						<path d="M0.7-1.7c0.4,0,0.8,0.4,0.8,0.8S1.1-0.1,0.7-0.1s-0.8-0.4-0.8-0.8S0.3-1.7,0.7-1.7L0.7-1.7z"/>
						<polygon points="-0.3,-3.8 0.7,-2.7 1.7,-3.8 0.9,-1.5 0.5,-1.5"/>
						<polygon points="3.3,-2.6 2.4,-1.3 3.6,-0.5 1.3,-0.9 1.2,-1.4"/>
						<polygon points="-1.9,-2.6 -0.9,-1.3 -2.2,-0.5 0.1,-0.9 0.2,-1.4"/>
						<polygon points="1.6,2.1 1.7,0.5 3.2,0.7 1.2,-0.5 0.8,-0.2"/>
						<polygon points="-0.3,2.1 -0.4,0.5 -1.9,0.7 0.1,-0.5 0.5,-0.2"/>
					</g>
					<path id="tyre-rear" d="M7.6-3.7c-1.8,0-3.3,1.5-3.3,3.4s1.5,3.4,3.3,3.4s3.3-1.5,3.3-3.4S9.4-3.7,7.6-3.7L7.6-3.7z M7.7,2.2c-1.3,0-2.3-1.1-2.3-2.4s1-2.4,2.3-2.4c1.3,0,2.3,1.1,2.3,2.4C9.9,1.1,8.9,2.2,7.7,2.2L7.7,2.2z"/>
				</g>
				<path id="body" d="M18.5,13.2l19.9,0.1c0,0,0.2-3.4,4-3.3c2.3,0.1,3.2,2.4,3.2,2.8v0.4v0.5h1.7l0.2-0.7l1.4-0.8c0,0,0.4-1.8,0.3-2.6l-0.3-0.4c0,0,0.1-0.9-0.1-1.7c-0.2-0.8-0.6-1.2-0.8-1.4c-0.2-0.1-2.9-0.9-5.2-1.1s-5.2-0.5-5.2-0.5s-1.7-1-3.3-1.9c-1.3-0.7-2.7-1.4-2.9-1.5C31,1,30.7,0.5,29.8,0.4C28.4,0.2,26.8,0,24.5,0s-4.2,0.2-4.9,0.2s-1.4,0.6-1.4,0.6S18,0.8,17.6,1c-0.4,0.2-0.7,2.8-0.7,3.4S17,4.9,17,5.3c0,0.4,0.1,2.6,0.3,4.1s0.5,3.3,0.8,3.6C18.4,13.2,18.5,13.2,18.5,13.2z M34.2,3.7c0,0-2.5-1.7-3.8-1.9c-1.3-0.3-3.4-0.4-3.4-0.4l0.3,3.7l6.3,0.2c0,0-0.1,0-0.1-0.2s0.1-1.1,0.1-1.2c0-0.1,0.2-0.2,0.2-0.2L34.2,3.7z M25.3,5l0-3.7l-6,0.2l0,3.1c0,0,0.7,0.3,1.7,0.3C22.1,4.9,25.3,5,25.3,5z M27.6,7.3c0,0-0.2,0-0.4-0.1C27.1,7.1,27,7,27,7c0-0.6,0.3-0.5,0.3-0.5C27.8,6.7,29,6.7,29,6.7c0.4,0,0.4,0.4,0.4,0.4c0,0.4-0.3,0.3-0.3,0.3C28.5,7,27.6,7.3,27.6,7.3z M19.2,6.9c0,0-0.2,0-0.4-0.1c-0.1-0.1-0.2-0.2-0.2-0.2c0-0.6,0.3-0.5,0.3-0.5c0.5,0.2,1.7,0.2,1.7,0.2c0.4,0,0.4,0.4,0.4,0.4c0,0.4-0.3,0.3-0.3,0.3C20,6.7,19.2,6.9,19.2,6.9z M48.6,8.3c0,0,0.1-0.6,0-1c-0.1-0.4-0.2-0.5-0.2-0.5l-1.9,0L46.2,7v0.1c0,0,0.8,0.9,1.1,1C47.6,8.3,48.6,8.3,48.6,8.3z M48,11.7l-0.1-0.8l0.9-0.1c0,0,0,0.4,0,0.5c0,0.2-0.1,0.4-0.1,0.4L48,11.7z M26.4,5.3v3.9c0,0.5-0.2,3.4-0.2,3.4s8.6,0.1,9,0c0.4-0.1,0.7-0.4,0.8-0.9s0.4-2.1,0.5-3.6c0.1-1.5-0.2-2.4-0.2-2.4l0.1,0c0,0,0.3,0.7,0.2,2.4c-0.1,1.7-0.5,3.7-0.5,3.7s-0.1,0.9-0.9,1c-0.9,0.1-9,0-9,0l-6.7,0c0,0-0.5,0-0.7-0.2c-0.2-0.2-0.3-0.4-0.4-1.1S17.8,8,17.8,6.6s0.1-2.2,0.1-2.2l0.1,0c0,0-0.1,1.2-0.1,2.2s0.6,4.7,0.6,4.7s0.2,0.9,0.4,1c0.2,0.1,0.3,0.1,0.7,0.2c0.4,0,6.5,0,6.5,0s0.2-2,0.2-3.4c0-1.4,0-3.9,0-3.9L26.4,5.3z M18,13.1c0,0-0.7-1.5-1-4.3S16.8,5,16.8,5L2.2,4.9c0,0-0.1,0.1-0.2,0.4S1.9,5.9,1.9,5.9S1.8,7,2,8.5s0.3,1.8,0.3,1.8l-0.7,0.3c0,0-0.1,0.8,0.4,1.2c0.5,0.4,1.4,0.6,1.4,0.6l0-0.2l0.4-0.1H4l-0.2,0.2H3.5l-0.1,0.1l0,0.7l0.1,0.1l0.7,0c0,0,0-0.2,0.3-0.3c0.3-0.1,1.2-0.5,1.2-0.5l0.6,0L8.8,13c0,0,0.4-1,0.4-1c0.4-0.7,1.6-1.9,3.3-1.9s2.6,1.3,2.8,1.5c0.7,1.1,0.7,1.6,0.7,1.6h1L18,13.1z M2.3,9.8c0,0-0.2-1.3-0.3-2.2C2,6.8,2,5.9,2,5.9l0.9,0c0,0,0.2,0,0.3,0.1c0.1,0.2,0.1,0.4,0.1,0.4s0.1,1.8,0.1,2.1c0,0.2-0.4,0.9-0.5,1C2.8,9.6,2.6,9.9,2.6,9.9L2.3,9.8z M2.6,4.8l0.5-0.3l5.7,0c0,0,4.2,0,4.4,0S14,3.4,14,3.4s0.8-1.9,1.2-2.2s2.1-0.6,2.1-0.6l0.2,0.1c0,0-0.2,0.1-0.4,0.5c-0.2,0.5-0.5,2.7-0.5,3.1c0,0.4,0.1,0.5,0.1,0.5L2.6,4.8z M18.3,13.4c0,0-0.1,0.2,0,0.5c0.2,0.3,0.9,0.4,0.9,0.4l17,0.1c0,0,0.6-0.1,0.7-0.4c0.1-0.3,0.1-0.5,0.1-0.5L18.3,13.4z"/>
			</g>
		</g>
		<path fill="#FF0000" d="M33.2,3.7c0,0-2.5-1.7-3.8-1.9c-1.3-0.3-3.4-0.4-3.4-0.4l0.3,3.7l6.3,0.2c0,0-0.1,0-0.1-0.2s0.1-1.1,0.1-1.2c0-0.1,0.2-0.2,0.2-0.2L33.2,3.7z"/>
		<path fill="#FF0000" d="M24.3,5l0-3.7l-6,0.2l0,3.1c0,0,0.7,0.3,1.7,0.3C21.1,4.9,24.3,5,24.3,5z"/>
		<path fill="#FF0000" d="M47.6,8.3c0,0,0.1-0.6,0-1c-0.1-0.4-0.2-0.5-0.2-0.5l-1.9,0L45.2,7v0.1c0,0,0.8,0.9,1.1,1C46.6,8.3,47.6,8.3,47.6,8.3z"/>
	</symbol>
	<symbol title="icon" viewBox="94 31.5 42 42" id="icon-price">
		<title>price</title>
		<path id="price-icon" d="M115,31.5c-11.598,0-21,9.402-21,21s9.402,21,21,21s21-9.402,21-21S126.598,31.5,115,31.5z M121.062,62.479c-0.705,0.353-1.453,0.524-2.244,0.524c-0.578,0-1.551-0.229-2.916-0.688c-1.366-0.459-2.445-0.688-3.236-0.688c-0.734,0-1.43,0.13-2.085,0.393c-0.386,0.157-0.884,0.43-1.491,0.809l-1.433-2.127c1.091-0.789,1.969-1.66,2.635-2.614s0.999-1.989,0.999-3.108c0-0.318-0.062-0.691-0.188-1.123c-0.078-0.271-0.209-0.64-0.393-1.106h-3.199v-1.56h2.272c0,0.052-0.162-0.262-0.485-0.937c-0.322-0.674-0.537-1.166-0.646-1.476c-0.096-0.291-0.178-0.627-0.244-1.012c-0.068-0.386-0.104-0.797-0.104-1.236c0-1.557,0.613-2.952,1.84-4.188c1.227-1.232,2.981-1.85,5.271-1.85c2.15,0,3.781,0.607,4.886,1.826c1.105,1.22,1.673,2.941,1.701,5.168h-2.678c0-1.508-0.341-2.652-1.021-3.438c-0.681-0.783-1.717-1.176-3.104-1.176c-1.353,0-2.375,0.367-3.069,1.102c-0.693,0.733-1.042,1.625-1.042,2.674c0,0.521,0.108,1.055,0.326,1.604c0.217,0.549,0.678,1.527,1.383,2.938h4.749v1.558h-4.098c0.096,0.459,0.167,0.817,0.21,1.078s0.063,0.528,0.063,0.81c0,0.999-0.289,1.985-0.869,2.958c-0.578,0.976-1.484,1.938-2.722,2.897c0.666-0.35,1.323-0.625,1.97-0.831c0.646-0.204,1.278-0.308,1.896-0.308c0.695,0,1.613,0.178,2.758,0.531s1.896,0.532,2.251,0.532c0.454,0,0.869-0.09,1.246-0.271c0.229-0.109,0.583-0.34,1.058-0.688l1.203,2.021C121.971,61.925,121.488,62.26,121.062,62.479z"/>
	</symbol>
	<symbol title="icon" viewBox="0 0 59.7 19.9" id="icon-saloon">
		<title>saloon</title>
		<g id="saloon">
			<g id="alloy-front">
				<path d="M48.9,14.1c0.5,0,1,0.4,1,1c0,0.5-0.4,1-1,1c-0.5,0-1-0.4-1-1C47.9,14.5,48.4,14.1,48.9,14.1z"/>
				<path d="M47.7,11.6l1.2,1.4l1.2-1.4l-0.9,2.8h-0.6L47.7,11.6z"/>
				<path d="M52.1,13.1L51,14.6l1.6,1l-2.9-0.4l-0.1-0.6L52.1,13.1z"/>
				<path d="M45.7,13.1l1.1,1.5l-1.6,1l2.9-0.4l0.1-0.6L45.7,13.1z"/>
				<path d="M50.1,18.6l0.1-1.9L52,17l-2.5-1.5L49,15.9L50.1,18.6z"/>
				<path d="M47.6,18.6l-0.1-1.9L45.7,17l2.5-1.5l0.5,0.4L47.6,18.6z"/>
			</g>
			<path id="tyre-front" d="M48.9,11c-2.3,0-4.1,1.8-4.1,4.1c0,2.3,1.8,4.1,4.1,4.1c2.3,0,4.1-1.8,4.1-4.1C53,12.8,51.2,11,48.9,11z M48.9,17.9c-1.6,0-2.8-1.3-2.8-2.8c0-1.6,1.3-2.8,2.8-2.8s2.8,1.3,2.8,2.8C51.7,16.6,50.5,17.9,48.9,17.9z"/>
			<g id="alloy-rear">
				<path d="M12.1,14.1c0.5,0,1,0.4,1,1c0,0.5-0.4,1-1,1s-1-0.4-1-1C11.1,14.5,11.5,14.1,12.1,14.1z"/>
				<path d="M10.9,11.6l1.2,1.4l1.2-1.4l-0.9,2.8h-0.6L10.9,11.6z"/>
				<path d="M15.3,13.1l-1.1,1.5l1.6,1l-2.9-0.4l-0.1-0.6L15.3,13.1z"/>
				<path d="M8.9,13.1l1.1,1.5l-1.6,1l2.9-0.4l0.1-0.6L8.9,13.1z"/>
				<path d="M13.3,18.6l0.1-1.9l1.8,0.3l-2.5-1.5l-0.5,0.4L13.3,18.6z"/>
				<path d="M10.8,18.6l-0.1-1.9L8.9,17l2.5-1.5l0.5,0.4L10.8,18.6z"/>
			</g>
			<path id="tyre-rear" d="M12,11C9.8,11,8,12.8,8,15.1c0,2.3,1.8,4.1,4.1,4.1s4.1-1.8,4.1-4.1C16.1,12.8,14.3,11,12,11z M12.1,17.9c-1.6,0-2.8-1.3-2.8-2.8c0-1.6,1.3-2.8,2.8-2.8s2.8,1.3,2.8,2.8C14.9,16.6,13.7,17.9,12.1,17.9z"/>
			<path id="body" d="M59.4,13.3c0-0.4,0.3-0.5,0.3-0.5c-0.3-2.5-2.1-4-2.1-4c-0.7-0.5-3.1-1.2-5.4-1.8c-3.2-0.8-6.4-1.3-6.4-1.3S44.3,5.1,42,4.1c-2.2-1-5.3-2.3-8-3.1c-3.4-1-7-0.9-7-0.9s-2.5,0-4.7,0.1c-2,0.1-3.7,0.4-3.7,0.4s-0.1-0.1-0.2-0.1c-0.4,0-1.2,0-1.2,0s0,0.4,0,0.4c0,0-3.1,0.8-5.7,1.6C8.8,3.1,6.8,3.9,6.8,3.9S5.6,4.4,4.2,4.6C2.9,4.8,1.7,4.7,1.7,4.7S1.4,4.6,1.5,5.2c0.1,0.2,0.4,0.6,0.4,0.6S1.5,6,1.3,6.9c-0.2,0.8-0.2,2-0.2,2c-0.6,0.9-1,1.2-1,1.2c-0.2,0.4-0.1,1.1,0,1.6c0,0.3,0.2,0.4,0.2,0.4s0,0.4,0,0.6c0,0.2-0.2,0.3-0.2,0.3s0.1,0.6,0.4,0.9c0.1,0.1-0.1,0.3-0.1,0.3L0.8,15l1.1,0.1c2.4,0.4,4.3,0.6,4.3,0.6l1.3,1.2c0,0-0.7-2.9,0.6-4.6c2.1-2.9,6.2-3,8.3,0c0.9,1.2,0.7,3.2,0.6,4.1c0,0,0,0.1,0,0.1l27.4,0.4c0,0-0.7-2.8,0.5-4.6c1.1-1.5,2.7-2.2,4.4-2.2c1.6,0,3.1,0.8,4.1,2.2c1.1,1.6,0.4,4.5,0.4,4.5c2.3,0.1,6-1,6-1c0-0.2-0.2-0.6-0.2-0.6S59.4,14,59.4,13.3z M5.2,7.3C4.6,7.6,2.5,8.4,2.5,8.4C2,7.7,2.4,6.6,2.4,6.6c0.4-0.6,1.1-0.5,1.1-0.5C5.1,6,5.3,6.5,5.3,6.5C6.1,7,5.2,7.3,5.2,7.3z M29.3,1.1c1.2,0.1,2.4,0.3,2.4,0.3s4.9,1,7.8,2.8c0,0-1.1,0.2-0.2,2.2L29,5.6L27.4,1C27.4,1,28.3,1,29.3,1.1z M31.2,7.9c-0.8-0.3-2-0.1-2-0.1s-0.3,0-0.5-0.1c-0.2,0-0.2-0.1-0.2-0.1c0-0.5,0.3-0.4,0.3-0.4C29.5,7.4,31,7.4,31,7.4c0.5,0,0.6,0.3,0.6,0.3C31.8,7.9,31.2,7.9,31.2,7.9z M17.7,1.7c0,0,1.5-0.3,3.2-0.4c2.3-0.2,5-0.3,5-0.3l0.3,4.3c0,0-6.3-0.2-10-0.5l-0.2-1.2L17.7,1.7z M17,6.8c-0.8-0.3-2-0.1-2-0.1s-0.3,0-0.5-0.1c-0.2,0-0.2-0.1-0.2-0.1c0-0.5,0.3-0.4,0.3-0.4c0.7,0.1,2.2,0.2,2.2,0.2c0.5,0,0.6,0.3,0.6,0.3C17.6,6.8,17,6.8,17,6.8z M11.8,4.4c-0.4-0.1-0.8-0.4-1-0.6c-0.1-0.1,0.1-0.1,0.1-0.1s2.4-1,5.9-1.8l-2.8,3C14,4.8,12.6,4.7,11.8,4.4z M42.6,16.1l-21.3-1v0c0,0-0.7,0-1.8-0.8c0,0-1.6-1.8-3.5-3.6c-0.6-0.6-1.3-1.2-2-1.8c-0.6-0.5-1.1-1-1.3-1.4c-0.1-0.3-0.1-0.5-0.2-0.8c0-0.5,0.7-1.3,0.7-1.3l0.1-0.1l0,0.1c0,0-0.5,0.5-0.7,1.1c-0.1,0.4,0.1,0.9,0.1,0.9S13,7.7,13.4,8c0.2,0.2,0.5,0.5,0.8,0.7c0.6,0.5,1.5,1.3,1.9,1.7c2,2,3.7,3.8,3.7,3.8s1,0.6,1.6,0.6v0l6.5,0.3l-0.1,0c0,0,0.2-4.3-0.1-7.6c0,0,0-0.7-0.2-1.5h0.1c0,0,0.2,0.8,0.2,1.4c0,0,0.3,3.4,0.1,7.7l14.7,0.7L42.6,16.1z M43.5,11.3c-0.3,2.3-0.8,4.6-0.8,4.6l-0.2,0c0,0,0.5-2.3,0.9-4.6c0.3-2.2-0.7-4.2-0.7-4.2l0.1,0C42.8,7.1,43.8,9.1,43.5,11.3z M54.1,8.8c1.3,0.1,2.3,0.5,2.3,0.5c1.4,0.8,1,2.2,1,2.2c-2.2-0.9-3.5-2-3.5-2C53,8.8,54.1,8.8,54.1,8.8z M58,14.9c-0.3,0.4-0.4,0.2-0.4,0.2c-0.7-1,0.3-1.4,0.3-1.4C58.4,13.5,58,14.9,58,14.9z"/>
		</g>
	</symbol>
	<symbol title="icon" viewBox="93.996 31.5 42 42" id="icon-seats">
		<title>seats</title>
		<path id="seats-icon" d="M114.996,31.5c-11.598,0-21,9.402-21,21s9.402,21,21,21c11.6,0,21-9.402,21-21S126.593,31.5,114.996,31.5z M125.854,59.568c-0.457,0.523-1.271,0.595-1.815,0.156l-2.436-1.953l-0.302,0.109c0.002,0,0.007,0,0.007,0.002c0.012,0.035,0.637,1.936-0.5,4.027l-1.843,3.391c-0.332,0.608-1.11,0.846-1.742,0.525c-0.632-0.316-0.877-1.066-0.548-1.676l1.475-2.709c0.937-1.721,0.252-2.493,0.252-2.493s-1.23-0.401-3.503-0.401c-2.274,0-3.505,0.401-3.505,0.401s-0.683,0.772,0.252,2.493l1.475,2.709c0.33,0.607,0.086,1.355-0.545,1.676c-0.633,0.32-1.413,0.083-1.743-0.525l-1.845-3.391c-1.137-2.096-0.512-3.992-0.5-4.027c0.003-0.002,0.005-0.002,0.009-0.002l-0.302-0.109l-2.435,1.953c-0.546,0.438-1.359,0.371-1.816-0.156c-0.457-0.526-0.383-1.311,0.164-1.748l1.468-1.18c1.757-1.508,2.188-3.894,2.188-3.894s0.617-2.376,1.271-4.733c0.653-2.357,2.307-2.916,3.016-3.283c0.708-0.366,1.444-0.828,1.444-1.222c0-0.393-0.416-0.702-0.416-0.702l0.004-0.002c-0.759-0.537-1.251-1.397-1.251-2.371c0-1.629,1.374-2.949,3.066-2.949s3.066,1.32,3.066,2.949c0,0.974-0.492,1.834-1.251,2.371l0.004,0.002c0,0-0.416,0.311-0.416,0.702s0.734,0.854,1.444,1.222c0.125,0.063,0.279,0.137,0.455,0.222c0.031-0.052,0.064-0.103,0.113-0.146l3.467-3.375c0.297-0.289,0.779-0.293,1.081-0.009c0.299,0.285,0.303,0.75,0.006,1.038l-3.413,3.322c0.521,0.478,1.014,1.172,1.308,2.229c0.651,2.358,1.271,4.734,1.271,4.734s0.432,2.386,2.189,3.893l1.467,1.18C126.236,58.26,126.311,59.042,125.854,59.568z"/>
		<path id="seatbelt" d="M120.842,56.969c-0.248,0.326-0.725,0.397-1.063,0.16l0,0c-0.021-0.011-0.062-0.033-0.131-0.064c-0.14-0.062-0.379-0.154-0.75-0.254c-0.739-0.193-2.005-0.406-3.999-0.403c-3.492,0-4.738,0.646-4.88,0.726l0,0c-0.133,0.092-0.291,0.143-0.451,0.143c-0.077,0-0.155-0.014-0.231-0.037c-0.232-0.072-0.416-0.247-0.49-0.471l-0.613-1.812c-0.09-0.264-0.018-0.553,0.188-0.747l8.657-8.284c0.297-0.285,0.78-0.283,1.079,0.003c0.299,0.287,0.295,0.751-0.002,1.038l-8.326,7.967l0.207,0.606c0.846-0.281,2.358-0.597,4.866-0.597c4.208,0,5.612,0.89,5.778,1.008C121.017,56.182,121.092,56.641,120.842,56.969z"/>
	</symbol>
	<symbol title="icon" viewBox="0 0 58.5 24" id="icon-suv">
		<title>suv</title>
		<g id="suv">
			<path id="tyre-front" d="M48,13.1c-2.8,0-5.1,2.3-5.1,5.1s2.3,5.1,5.1,5.1s5.1-2.3,5.1-5.1C53.1,15.4,50.8,13.1,48,13.1z M48,21.7c-1.9,0-3.5-1.6-3.5-3.5c0-2,1.6-3.5,3.5-3.5c2,0,3.5,1.6,3.5,3.5C51.5,20.1,49.9,21.7,48,21.7z"/>
			<path id="tyre-rear" d="M10.5,13.1c-2.8,0-5.1,2.3-5.1,5.1s2.3,5.1,5.1,5.1s5.1-2.3,5.1-5.1C15.5,15.4,13.3,13.1,10.5,13.1zM10.4,21.7c-1.9,0-3.5-1.6-3.5-3.5c0-2,1.6-3.5,3.5-3.5s3.5,1.6,3.5,3.5C14,20.1,12.4,21.7,10.4,21.7z"/>
			<path id="body" d="M58.5,14.1c0-0.6-0.8-1.6-0.8-1.6s-0.2-1-0.5-1.8c-0.5-1.2-1-1.4-1-1.4s-3.1-1-6.3-1.7C46.4,7,43,6.9,43,6.9C33.2,0,32.1,0.4,32.1,0.4S25.9-0.1,19.5,0C13,0.2,6.3,1,6.3,1s0.2,0.2,0.4,0.4c0.1,0.1,0.6,0,0.3,0.3C5.5,3,3.7,5.1,2.8,6.1C2.7,6.2,2.4,6.3,2.2,6.4C2.1,6.6,2,6.7,2,6.7S1.6,7.3,1.5,8c-0.1,0.6,0,1.2,0,1.2s0,1.6-0.3,2.3C1,12,0.7,12.2,0.5,12.5c-0.2,0.5-0.1,0.9-0.1,0.9l-0.2,0.3L0.4,15c0.5,2.3,0.7,2.5,1.8,2.9c0.7,0.3,2.4,0.2,2.4,0.2s-0.3-2.4,1.9-4.3c2.1-1.9,6.2-2.1,8.4,0.6c1.8,2.2,1.2,5,1.2,5l26.2,1c0,0-1-3.2,0.6-5.5c2.3-3.4,7.4-3.4,9.6-0.4c2.1,2.7,1,5.4,1,5.4l-0.1,0.5c0,0,2.1,0,3.2-0.2c1.2-0.2,0.4-0.4,0.4-0.4c1.2-0.1,1.4-2.4,1.4-2.4S58.6,15.4,58.5,14.1z M5.3,7.8C4.7,8.2,2.6,8.9,2.6,8.9C2.1,8.2,2.5,7.2,2.5,7.2c0.4-0.6,1.1-0.5,1.1-0.5C5.1,6.6,5.4,7,5.4,7C6.2,7.5,5.3,7.8,5.3,7.8z M28.7,1.2c1,0.1,2.1,0.3,2.1,0.3c4.3,0.8,8.6,4.6,8.6,4.6c-1.3-0.1-0.7,1.3-0.7,1.3L26.9,6.5L26.5,1C26.5,1,27.6,1.1,28.7,1.2z M29.3,8.8c-0.8-0.3-1.9-0.1-1.9-0.1s-0.3,0-0.5-0.1c-0.2,0-0.2-0.1-0.2-0.1c0-0.5,0.3-0.4,0.3-0.4c0.7,0.1,2.1,0.2,2.1,0.2c0.5,0,0.5,0.3,0.5,0.3C29.9,8.9,29.3,8.8,29.3,8.8z M19.7,0.9c2.6-0.1,5.4,0,5.4,0l0,5.5c0,0-8.1-0.4-12.1-0.5c0,0,0.4-1,1-2.2c0.6-1.2,1.3-2.5,1.3-2.5S17.4,1,19.7,0.9z M15.5,8.1C14.6,7.8,13.5,8,13.5,8s-0.3,0-0.5-0.1c-0.2,0-0.2-0.1-0.2-0.1c0-0.5,0.3-0.4,0.3-0.4c0.7,0.1,2.1,0.2,2.1,0.2c0.5,0,0.5,0.3,0.5,0.3C16,8.1,15.5,8.1,15.5,8.1z M7.9,5.8c0,0-0.3,0-0.5,0C7.3,5.7,7.2,5.6,7.2,5.6L6.8,5.3c0,0-0.1-0.2-0.1-0.3c0-0.2,0.1-0.3,0.1-0.3S8.3,3.2,10,2.2c1.2-0.7,2.3-0.7,2.3-0.7L14,1.4L11.6,6L7.9,5.8z M40,18.7l-22.1-0.8l0-0.1c0,0-0.2-4.9-4.7-6.4c-1-0.3-1-0.5-1.2-1.2c-0.5-1.4-0.5-2.2-0.5-2.2c0-0.2,0.1-0.5,0.1-0.5c0,0,0.1,0,0.1,0l-0.1,0.5c0,0.2,0.1,1.2,0.5,2.2c0.2,0.5,0.2,0.9,1.1,1.1c4.6,1.4,4.8,6.6,4.8,6.6l0,0l7.7,0.3c0.2-0.8,0.3-2.2,0.3-2.2s0.2-2,0-5.6c-0.1-1-0.1-1.5-0.1-1.8l0,0.1c0,0,0-0.6,0-0.1l0,0L26,8.4c0,0-0.1-1.3,0.2,1.8c0.2,2.8,0.1,5.5,0.1,5.5c-0.1,0.9-0.3,2.2-0.3,2.2L40,18.5L40,18.7z M40.8,14c-0.3,2.2-0.8,4.5-0.8,4.5l-0.2,0c0,0,0.5-2.3,0.8-4.5c0.3-2.1,0.4-4.2,0.4-4.2l0.1,0C41.2,9.7,41.1,11.8,40.8,14z M53,10.1c-0.9-0.7,0.2-0.7,0.2-0.7c1.3,0.1,2.3,0.4,2.3,0.4c1.3,0.8,1,2.2,1,2.2C54.3,11.2,53,10.1,53,10.1z M56.9,19.1c-0.3,0.4-0.4,0.2-0.4,0.2c-0.7-1,0.3-1.4,0.3-1.4C57.3,17.7,56.9,19.1,56.9,19.1z"/>
			<g id="alloy-front">
				<path d="M48,17c0.7,0,1.2,0.5,1.2,1.2s-0.5,1.2-1.2,1.2s-1.2-0.5-1.2-1.2S47.3,17,48,17z"/>
				<path d="M46.4,13.8l1.5,1.7l1.5-1.7l-1.2,3.4h-0.8L46.4,13.8z"/>
				<path d="M52,15.7l-1.4,1.8l2,1.2l-3.6-0.6l-0.1-0.7L52,15.7z"/>
				<path d="M44,15.7l1.4,1.8l-2,1.2l3.6-0.6l0.1-0.7L44,15.7z"/>
				<path d="M49.4,22.6l0.1-2.3l2.3,0.3l-3.1-1.9l-0.6,0.5L49.4,22.6z"/>
				<path d="M46.4,22.6l-0.1-2.3L44,20.6l3.1-1.9l0.6,0.5L46.4,22.6z"/>
			</g>
			<g id="alloy-rear">
				<path d="M8.8,22.6l-0.1-2.3l-2.3,0.3l3.1-1.9l0.6,0.5L8.8,22.6z"/>
				<path d="M10.4,17c0.7,0,1.2,0.5,1.2,1.2s-0.5,1.2-1.2,1.2s-1.2-0.5-1.2-1.2S9.8,17,10.4,17z"/>
				<path d="M8.9,13.8l1.5,1.7l1.5-1.7l-1.2,3.4h-0.8L8.9,13.8z"/>
				<path d="M14.4,15.7L13,17.5l2,1.2l-3.6-0.6l-0.1-0.7L14.4,15.7z"/>
				<path d="M6.5,15.7l1.4,1.8l-2,1.2l3.6-0.6l0.1-0.7L6.5,15.7z"/>
				<path d="M11.9,22.6l0.1-2.3l2.3,0.3l-3.1-1.9l-0.6,0.5L11.9,22.6z"/>
			</g>
		</g>
	</symbol>
	<symbol title="icon" viewBox="0 0 98 44" id="icon-towing">
		<title>towing</title>
		<g>
			<path d="M43.7,37c0,0.5-0.4,0.9-0.8,0.9c-0.5,0-0.8-0.4-0.8-0.9c0-0.5,0.4-0.9,0.8-0.9C43.3,36.2,43.7,36.5,43.7,37L43.7,37z M42.9,35.5c-0.3,0-0.5-0.2-0.5-0.5c0-0.3,0.2-0.5,0.5-0.5c0.2,0,0.4,0.2,0.4,0.5C43.3,35.3,43.1,35.5,42.9,35.5L42.9,35.5z M42.9,38.5c0.2,0,0.4,0.2,0.4,0.5c0,0.3-0.2,0.5-0.4,0.5c-0.3,0-0.5-0.2-0.5-0.5C42.4,38.7,42.6,38.5,42.9,38.5L42.9,38.5z M44.2,36.3c-0.1-0.2,0-0.5,0.2-0.6c0.2-0.1,0.5,0,0.6,0.2c0.1,0.2,0,0.5-0.2,0.6C44.6,36.6,44.3,36.5,44.2,36.3L44.2,36.3z M41.6,37.8c0.1,0.2,0,0.5-0.2,0.6c-0.2,0.1-0.5,0-0.6-0.2c-0.1-0.2,0-0.5,0.2-0.6C41.2,37.5,41.5,37.5,41.6,37.8L41.6,37.8z M44.1,37.8c0.1-0.2,0.4-0.3,0.6-0.2c0.2,0.1,0.3,0.4,0.1,0.6c-0.1,0.2-0.4,0.3-0.6,0.1C44.1,38.3,44,38,44.1,37.8L44.1,37.8z M41.6,36.2c-0.1,0.2-0.4,0.3-0.6,0.2c-0.2-0.1-0.3-0.4-0.1-0.6c0.1-0.2,0.4-0.3,0.6-0.1C41.7,35.7,41.8,36,41.6,36.2L41.6,36.2z M76.3,24.3c0-0.1-1.6-8.2-3.4-11.2c-1.5-2.7-3-2.9-5.9-3.4l-0.5-0.1c-3.2-0.5-13.4-1.2-13.9-1.2l-1.2-0.1l0.9,0.8c1,0.9,1.6,1,1.8,1c0.1,0,0.2,0,0.3,0c0.7,0,1.7,0.1,2.7,0.2c-0.4,0.3-0.7,0.7-0.7,1.2V19c0,0.8,0.6,1.4,1.4,1.4h10.9c0.8,0,1.4-0.6,1.4-1.4v-3.4c0.5,1.8,1.4,5,1.6,6.2c0.1,0.3,0.1,0.6-0.1,0.8c-0.2,0.2-0.5,0.2-0.6,0.2c-0.1,0-0.1,0-0.1,0l-13.1-0.3c-1.7,0-2.2-0.7-2.2-0.7l0,0l0,0l-2.2-2.4c-1-1.2-2.5-1.3-3.2-1.3c-0.2,0-0.3,0-0.3,0h-7.7h-1.2h-6.7h-0.7V8.5c0-0.7-0.6-1.2-1.2-1.2h-8c-0.7,0-1.2,0.6-1.2,1.2V18h-9.8h-0.5l0.1,0.5c0,0.1,0.2,0.7,1.3,0.7l8.9,0.1v10.1c0,0.7,0.6,1.2,1.2,1.2h8c0.7,0,1.2-0.6,1.2-1.2v-10l7.9,0.1h0l0.2,0l7.7,0c0,0,1.5,0,2.4,1l3.6,3.6c0.2,0.2,1.3,1.3,4.8,1.4c4.4,0.2,14.5,0.5,14.6,0.5c0,0,0.1,0,0.3,0c0.5,0,0.8-0.2,0.9-0.4C76.3,25.4,76.4,25,76.3,24.3L76.3,24.3z M69.7,19c0,0.6-0.5,1-1,1H57.8c-0.6,0-1-0.5-1-1v-7.3c0-0.6,0.5-1,1-1h10.9c0.6,0,1,0.5,1,1V19L69.7,19z M33.2,29.4c0,0.4-0.4,0.8-0.8,0.8h-8c-0.5,0-0.8-0.4-0.8-0.8V19.3l0.1,0l0.4,0l8.1,0.1l0.4,0l0.6,0V29.4L33.2,29.4z M33.2,18h-0.6h-7.3h-1.2h-0.5V8.5c0-0.5,0.4-0.8,0.8-0.8h8c0.5,0,0.8,0.4,0.8,0.8V18L33.2,18z"/>
			<path d="M96.7,29.4c-0.4-0.9-1.3-2.3-1.3-2.4c0,0,0,0,0,0c-0.2-0.2-0.5-0.4-0.8-0.4c-0.2,0-0.3,0-0.5,0.1c-0.3,0.1-0.5,0.4-0.6,0.7c-0.1,0.3,0,0.6,0.2,0.8l0.3,0.4c-0.1,0.1-0.1,0.2-0.2,0.3c-0.1,0.4,0,0.8,0.1,0.9l0.5,1.2l-5.3,0v-3.3c0-0.5-0.4-0.8-0.8-0.8h-0.1l0,0c-0.1-0.1-0.3-0.1-0.5-0.1c-0.1,0-0.2,0-0.2,0c-0.2,0.1-0.4,0.2-0.5,0.5L86.2,29c-0.2,0.4-0.4,1.1-0.4,2c-0.2,0-0.4,0-0.5,0.1c0.1-6.8-3-17.9-7-24.9c-3-5.3-9.6-5.5-10.9-5.5c-0.2,0-0.3,0-0.3,0h-4C62.9,0.3,62.4,0,61.9,0h-8.8c-0.5,0-1,0.3-1.2,0.8H5.4c0,0,0,0,0,0C3.9,0.8,2.8,1.3,2.1,2.1c-0.9,1-0.9,2.2-0.9,2.5C1.1,5.5,0,17.1,0,23.8c0,4.9,0.5,10.5,0.5,10.6c0.1,1,0.9,2.9,3.4,2.9L18,37.1l0.4,0.1c0.3,0.2,0.9,0.3,1.9,0.4l5.9,0.4c0.3,0.3,1,0.6,2.1,0.8c0,0.1,0.1,0.2,0.2,0.3c0.2,0.3,0.6,0.5,1,0.5h4c0.5,0,0.9-0.3,1.1-0.6l4.7,0c-0.2-0.3-0.3-0.5-0.4-0.8l-5,0v0.3c0,0.3-0.4,0.3-0.4,0.3h-4h0C28.8,38.7,29,38,29,38c-2.2-0.2-2.4-0.9-2.4-0.9l-6.2-0.4c-1.5-0.1-1.6-0.3-1.6-0.3l-0.6-0.1L3.9,36.4c-2.4,0-2.6-2.1-2.6-2.1s-0.5-5.7-0.5-10.5C0.8,16.8,2,4.6,2,4.6s-0.2-2.8,3.3-3h47.2V1.4c0-0.3,0.2-0.5,0.5-0.5h8.8c0.3,0,0.5,0.2,0.5,0.5v0.2h4.8c0,0,0.1,0,0.2,0c1.3,0,7.4,0.3,10.2,5.1c4.3,7.5,7.4,19.5,6.8,25.7l0.8,0.1l0.3-0.4c0,0,0.1-0.2,0.4-0.2c0,0,0.1,0,0.2,0h0.7c0-2.1,0.3-2.5,0.3-2.5l0.4-0.9v6c-0.2,0.1-0.4,0.2-0.5,0.2c-0.1,0-0.4,0-0.9,0c-0.8,0-1.7,0-2,0c-0.1,0.4-0.3,0.7-0.5,1l-10.6,0.1L72.3,36l-15,1.4l-0.7,0.6L47,38c-0.1,0.3-0.2,0.6-0.4,0.9l9.8-0.1c0.2,0,0.4-0.1,0.5-0.2l0.6-0.4l14.8-1.4c0.1,0,0.2,0,0.2-0.1l0.4-0.1l10.4-0.1c0.3,0,0.5-0.1,0.7-0.4c0.1-0.2,0.3-0.4,0.4-0.6c0.4,0,1,0,1.5,0c0.6,0,0.8,0,0.9,0v0.7c-0.3-0.1-0.7-0.2-1-0.2c-1.4,0-2.5,1.1-2.5,2.5s1.1,2.5,2.5,2.5c0.8,0,1.4-0.4,1.9-0.9h0v-0.1c0.1-0.1,0.1-0.1,0.2-0.2h0.4c0.5,0,0.8-0.4,0.8-0.8v-3.1c0.1,0,0.3,0,0.4,0c0.5,0,1-0.2,1.3-0.3c0,0,0,0,0,0c0,0,0,0.1,0,0.1c0,0.3,0.3,0.8,1.1,0.8c0.3,0,0.5-0.1,0.6-0.2c0.3-0.1,0.4-0.4,0.5-0.7c0.1-0.2,0.2-0.4,0.1-0.7c0-0.2-0.1-0.4-0.2-0.6c0,0,0-0.1,0-0.2c0.6-0.1,1.5-0.2,2-0.3c0.3,0.2,0.6,0.4,1,0.4c0.8,0,1.4-0.6,1.5-1.3c0-0.1,0-0.2,0-0.2C97.5,32.1,97.1,30.4,96.7,29.4L96.7,29.4z M85.8,40c-0.9,0-1.6-0.7-1.6-1.6c0-0.9,0.7-1.6,1.6-1.6c0.6,0,1.2,0.4,1.4,0.9h-1.1c0,0-0.1,0-0.1,0c0,0-0.1,0-0.1,0h-0.2v0c-0.3,0.1-0.5,0.4-0.5,0.7c0,0.3,0.2,0.6,0.5,0.7v0h0.2c0,0,0.1,0,0.1,0c0,0,0.1,0,0.1,0h1.1C86.9,39.7,86.4,40,85.8,40L85.8,40z M96.6,32.8c0,0.4-0.3,0.6-0.7,0.6c-0.3,0-0.5-0.1-0.6-0.4c0,0-0.1,0-0.1-0.1c0,0-2.3,0.3-2.9,0.3c-0.1,0-0.2,0-0.2,0l0,0c0,0,0,1.1,0.2,1.4c0,0,0.1,0.1,0.1,0.2c0,0.2-0.1,0.3-0.1,0.3v0.2c0,0-0.2,0.1-0.3,0.1c-0.2,0-0.3-0.1-0.3-0.1v-0.2c0,0-0.1-0.2-0.1-0.3c0-0.1,0-0.3,0-0.3S91,34.5,91,34.5l-0.4,0c0,0-0.4,0.3-1,0.3c-1,0-1.2-0.2-1.2-0.2l0,0v3.1h-0.6V27.6l0,0l0.2,0.2h0.3v4.2l6.7,0c0,0,0.5-0.1,0.3-1l-0.7-1.5c0,0-0.2-0.3,0.1-0.4c0.1,0,0.3-0.3,0.3-0.3l-0.6-1c0,0-0.1-0.2,0.1-0.3c0.1,0,0.1,0,0.2,0c0.1,0,0.1,0,0.1,0s0.9,1.4,1.2,2.3c0.4,0.9,0.7,2.4,0.7,2.9C96.7,32.7,96.6,32.7,96.6,32.8L96.6,32.8z"/>
			<path d="M29.2,16.7h-2.3c-0.8,0-1.4-0.6-1.4-1.4v-4.6c0-0.8,0.6-1.4,1.4-1.4h2.3c0.8,0,1.4,0.6,1.4,1.4v4.6C30.6,16,30,16.7,29.2,16.7L29.2,16.7z M26.8,9.6c-0.6,0-1,0.5-1,1v4.6c0,0.6,0.5,1,1,1h2.3c0.6,0,1-0.5,1-1v-4.6c0-0.6-0.5-1-1-1H26.8L26.8,9.6z"/>
			<path d="M4.3,34.6V10.2c0-3.5,2.3-6.1,5.4-6.1h57.1c10,0,14.1,18.2,14.4,29.7l0,0.2l-31.4,0.3l0-0.4l31-0.3c-0.3-11.3-4.4-29-14-29H9.7c-2.9,0-4.9,2.4-4.9,5.7v24L36,33.9l0,0.4L4.3,34.6L4.3,34.6z"/>
			<path d="M14.5,10.5H6.2l0.1-0.3c1.8-3.7,5-3.4,5-3.4l8,0l-2.1,2.6C16.3,10.4,14.6,10.5,14.5,10.5L14.5,10.5z M6.9,10.1h7.6c0.1,0,1.6,0,2.5-1l1.6-1.9h-7.2c0,0-0.1,0-0.2,0C10.5,7.2,8.3,7.4,6.9,10.1L6.9,10.1z M25.6,21.9c-0.5,0-0.7-0.3-0.7-0.7l0,0c0-0.4,0.2-0.7,0.7-0.7h0.8c0.5,0,0.7,0.3,0.7,0.7l0,0c0,0.4-0.2,0.7-0.7,0.7H25.6L25.6,21.9z M42.9,30.9c-3.3,0-5.9,2.7-5.9,6.1c0,3.4,2.7,6.1,5.9,6.1c3.3,0,5.9-2.7,5.9-6.1C48.8,33.7,46.2,30.9,42.9,30.9L42.9,30.9z M42.9,40.9c-2.1,0-3.8-1.8-3.8-3.9c0-2.2,1.7-3.9,3.8-3.9c2.1,0,3.8,1.8,3.8,3.9C46.8,39.2,45.1,40.9,42.9,40.9L42.9,40.9z"/>
		</g>
	</symbol>
	<symbol title="icon" viewBox="94 31.5 42 42" id="icon-transmission">
		<title>transmission</title>
		<path id="gearbox-icon" d="M115,31.5c-11.598,0-21,9.402-21,21s9.402,21,21,21s21-9.402,21-21S126.598,31.5,115,31.5z M128.152,59.07c0,0.971,0,2.27-1.344,2.27c-1.347,0-1.312-1.299-1.312-2.27v-2.646c0-1.449-1.176-2.625-2.625-2.625h-0.006c-1.45,0-2.625,1.176-2.625,2.625v2.646c0,0.971,0,2.27-1.312,2.27c-1.31,0-1.312-1.299-1.312-2.27v-2.646c0-0.725-0.257-1.343-0.771-1.855c-0.512-0.512-1.132-0.77-1.854-0.77h-0.007c-0.726,0-1.346,0.258-1.856,0.77c-0.513,0.515-0.771,1.133-0.771,1.855v2.646c0,0.726,0.014,2.27-1.313,2.27c-1.328,0-1.3-1.544-1.3-2.27V56.43c0-0.726-0.258-1.345-0.771-1.855c-0.514-0.516-1.134-0.771-1.861-0.77l-2.618,0.006c-0.726,0.002-1.347-0.254-1.859-0.767s-0.771-1.132-0.771-1.858v-5.22c0-0.971,0-2.271,1.312-2.271s1.312,1.3,1.312,2.271v2.584c0,0.726,0.257,1.343,0.77,1.856c0.514,0.513,1.131,0.769,1.855,0.769h0.017c0.728,0,1.345-0.256,1.854-0.769c0.514-0.514,0.771-1.131,0.771-1.856v-2.59c0-0.724,0.004-2.272,1.304-2.272c1.299,0,1.303,1.549,1.303,2.272v2.59c0,1.45,1.176,2.625,2.625,2.625h0.008c1.449,0,2.625-1.175,2.625-2.625v-2.59c0-0.971,0.006-2.271,1.312-2.271c1.305,0,1.312,1.299,1.312,2.271v2.59c0,0.726,0.257,1.343,0.771,1.856c0.514,0.513,1.133,0.769,1.856,0.769h0.006c0.728,0,1.344-0.256,1.854-0.769c0.513-0.514,0.771-1.131,0.771-1.856v-2.59c0-0.724,0.039-2.272,1.304-2.272c1.266,0,1.354,1.549,1.354,2.272v13.11H128.152z"/>
	</symbol>
	<symbol title="icon" viewBox="94.009 31.5 41.99 42" id="icon-zero-to-60">
		<title>zero-to-60</title>
		<path id="speedo" d="M115.005,31.5c-11.599,0-21.001,9.402-21.001,21s9.402,21,21.001,21c11.601,0,20.999-9.402,20.999-21S126.604,31.5,115.005,31.5z M119.516,65.195c0,0.438-0.348,0.795-0.771,0.795h-7.477c-0.429,0-0.771-0.355-0.771-0.795v-1.45c0-0.438,0.346-0.794,0.771-0.794h7.477c0.426,0,0.771,0.355,0.771,0.794V65.195z M125.609,63.805l-2.372-2.438c0.168-0.172,0.322-0.357,0.479-0.541l1.031,1.014c0,0,0.004-0.007,0.006-0.008L125.6,62.7c2.194-2.502,3.467-5.66,3.637-9.026h-1.854c0,0.006-0.002,0.012-0.002,0.02l-0.768,0.009c0.02-0.269,0.039-0.527,0.039-0.798c0-0.264-0.021-0.519-0.039-0.774l0.768-0.004c0,0.003,0.002,0.006,0.002,0.009h1.854c-0.168-3.365-1.438-6.521-3.637-9.025l-1.172,1.205l-0.754,0.621c-0.144-0.166-0.28-0.334-0.435-0.492c-0.166-0.17-0.344-0.326-0.521-0.484l0.496-0.598c0.002,0.004,0.004,0.006,0.011,0.008l1.312-1.35c-2.437-2.26-5.508-3.564-8.783-3.738v1.908c0.011,0,0.021,0.002,0.031,0.002l-0.019,0.785c-0.254-0.019-0.506-0.039-0.766-0.039c-0.246,0-0.488,0.021-0.73,0.037l-0.021-0.785c0,0,0.002,0,0.004,0v-1.908c-3.275,0.173-6.348,1.479-8.782,3.738l1.312,1.35c0.027-0.025,0.059-0.047,0.086-0.072l0.502,0.583c-0.104,0.095-0.207,0.194-0.312,0.292l7.866,5.795c0.025-0.001,0.052-0.008,0.078-0.008c1.522,0,2.764,1.277,2.764,2.854c0,1.578-1.237,2.854-2.764,2.854c-1.481,0-2.684-1.207-2.751-2.72l-6.021-7.898c-1.788,2.104-2.878,4.85-2.878,7.86c0,3.306,1.307,6.299,3.411,8.465l-2.372,2.438c-2.713-2.789-4.394-6.646-4.394-10.9c0-4.258,1.681-8.112,4.394-10.902c2.716-2.79,6.465-4.516,10.607-4.516s7.896,1.727,10.607,4.516c2.713,2.791,4.395,6.645,4.395,10.902C130.004,57.159,128.322,61.014,125.609,63.805z"/>
	</symbol>
</svg>
